<?xml version="1.0" encoding="utf-8" standalone="no"?>
<!DOCTYPE svg PUBLIC "-//W3C//DTD SVG 1.1//EN"
  "http://www.w3.org/Graphics/SVG/1.1/DTD/svg11.dtd">
<svg xmlns:xlink="http://www.w3.org/1999/xlink" width="460.8pt" height="345.6pt" viewBox="0 0 460.8 345.6" xmlns="http://www.w3.org/2000/svg" version="1.1">
 <metadata>
  <rdf:RDF xmlns:dc="http://purl.org/dc/elements/1.1/" xmlns:cc="http://creativecommons.org/ns#" xmlns:rdf="http://www.w3.org/1999/02/22-rdf-syntax-ns#">
   <cc:Work>
    <dc:type rdf:resource="http://purl.org/dc/dcmitype/StillImage"/>
    <dc:date>2022-04-25T16:14:54.740012</dc:date>
    <dc:format>image/svg+xml</dc:format>
    <dc:creator>
     <cc:Agent>
      <dc:title>Matplotlib v3.5.1, https://matplotlib.org/</dc:title>
     </cc:Agent>
    </dc:creator>
   </cc:Work>
  </rdf:RDF>
 </metadata>
 <defs>
  <style type="text/css">*{stroke-linejoin: round; stroke-linecap: butt}</style>
 </defs>
 <g id="figure_1">
  <g id="patch_1">
   <path d="M 0 345.6 
L 460.8 345.6 
L 460.8 0 
L 0 0 
z
" style="fill: #ffffff"/>
  </g>
  <g id="axes_1">
   <g id="patch_2">
    <path d="M 57.6 307.584 
L 414.72 307.584 
L 414.72 41.472 
L 57.6 41.472 
z
" style="fill: #ffffff"/>
   </g>
   <g id="matplotlib.axis_1">
    <g id="xtick_1">
     <g id="line2d_1">
      <defs>
       <path id="meea3e8d950" d="M 0 0 
L 0 3.5 
" style="stroke: #000000; stroke-width: 0.8"/>
      </defs>
      <g>
       <use xlink:href="#meea3e8d950" x="57.6" y="307.584" style="stroke: #000000; stroke-width: 0.8"/>
      </g>
     </g>
     <g id="text_1">
      <!-- 0.0 -->
      <g transform="translate(49.648438 322.182437)scale(0.1 -0.1)">
       <defs>
        <path id="DejaVuSans-30" d="M 2034 4250 
Q 1547 4250 1301 3770 
Q 1056 3291 1056 2328 
Q 1056 1369 1301 889 
Q 1547 409 2034 409 
Q 2525 409 2770 889 
Q 3016 1369 3016 2328 
Q 3016 3291 2770 3770 
Q 2525 4250 2034 4250 
z
M 2034 4750 
Q 2819 4750 3233 4129 
Q 3647 3509 3647 2328 
Q 3647 1150 3233 529 
Q 2819 -91 2034 -91 
Q 1250 -91 836 529 
Q 422 1150 422 2328 
Q 422 3509 836 4129 
Q 1250 4750 2034 4750 
z
" transform="scale(0.015625)"/>
        <path id="DejaVuSans-2e" d="M 684 794 
L 1344 794 
L 1344 0 
L 684 0 
L 684 794 
z
" transform="scale(0.015625)"/>
       </defs>
       <use xlink:href="#DejaVuSans-30"/>
       <use xlink:href="#DejaVuSans-2e" x="63.623047"/>
       <use xlink:href="#DejaVuSans-30" x="95.410156"/>
      </g>
     </g>
    </g>
    <g id="xtick_2">
     <g id="line2d_2">
      <g>
       <use xlink:href="#meea3e8d950" x="129.024" y="307.584" style="stroke: #000000; stroke-width: 0.8"/>
      </g>
     </g>
     <g id="text_2">
      <!-- 0.2 -->
      <g transform="translate(121.072438 322.182437)scale(0.1 -0.1)">
       <defs>
        <path id="DejaVuSans-32" d="M 1228 531 
L 3431 531 
L 3431 0 
L 469 0 
L 469 531 
Q 828 903 1448 1529 
Q 2069 2156 2228 2338 
Q 2531 2678 2651 2914 
Q 2772 3150 2772 3378 
Q 2772 3750 2511 3984 
Q 2250 4219 1831 4219 
Q 1534 4219 1204 4116 
Q 875 4013 500 3803 
L 500 4441 
Q 881 4594 1212 4672 
Q 1544 4750 1819 4750 
Q 2544 4750 2975 4387 
Q 3406 4025 3406 3419 
Q 3406 3131 3298 2873 
Q 3191 2616 2906 2266 
Q 2828 2175 2409 1742 
Q 1991 1309 1228 531 
z
" transform="scale(0.015625)"/>
       </defs>
       <use xlink:href="#DejaVuSans-30"/>
       <use xlink:href="#DejaVuSans-2e" x="63.623047"/>
       <use xlink:href="#DejaVuSans-32" x="95.410156"/>
      </g>
     </g>
    </g>
    <g id="xtick_3">
     <g id="line2d_3">
      <g>
       <use xlink:href="#meea3e8d950" x="200.448" y="307.584" style="stroke: #000000; stroke-width: 0.8"/>
      </g>
     </g>
     <g id="text_3">
      <!-- 0.4 -->
      <g transform="translate(192.496438 322.182437)scale(0.1 -0.1)">
       <defs>
        <path id="DejaVuSans-34" d="M 2419 4116 
L 825 1625 
L 2419 1625 
L 2419 4116 
z
M 2253 4666 
L 3047 4666 
L 3047 1625 
L 3713 1625 
L 3713 1100 
L 3047 1100 
L 3047 0 
L 2419 0 
L 2419 1100 
L 313 1100 
L 313 1709 
L 2253 4666 
z
" transform="scale(0.015625)"/>
       </defs>
       <use xlink:href="#DejaVuSans-30"/>
       <use xlink:href="#DejaVuSans-2e" x="63.623047"/>
       <use xlink:href="#DejaVuSans-34" x="95.410156"/>
      </g>
     </g>
    </g>
    <g id="xtick_4">
     <g id="line2d_4">
      <g>
       <use xlink:href="#meea3e8d950" x="271.872" y="307.584" style="stroke: #000000; stroke-width: 0.8"/>
      </g>
     </g>
     <g id="text_4">
      <!-- 0.6 -->
      <g transform="translate(263.920438 322.182437)scale(0.1 -0.1)">
       <defs>
        <path id="DejaVuSans-36" d="M 2113 2584 
Q 1688 2584 1439 2293 
Q 1191 2003 1191 1497 
Q 1191 994 1439 701 
Q 1688 409 2113 409 
Q 2538 409 2786 701 
Q 3034 994 3034 1497 
Q 3034 2003 2786 2293 
Q 2538 2584 2113 2584 
z
M 3366 4563 
L 3366 3988 
Q 3128 4100 2886 4159 
Q 2644 4219 2406 4219 
Q 1781 4219 1451 3797 
Q 1122 3375 1075 2522 
Q 1259 2794 1537 2939 
Q 1816 3084 2150 3084 
Q 2853 3084 3261 2657 
Q 3669 2231 3669 1497 
Q 3669 778 3244 343 
Q 2819 -91 2113 -91 
Q 1303 -91 875 529 
Q 447 1150 447 2328 
Q 447 3434 972 4092 
Q 1497 4750 2381 4750 
Q 2619 4750 2861 4703 
Q 3103 4656 3366 4563 
z
" transform="scale(0.015625)"/>
       </defs>
       <use xlink:href="#DejaVuSans-30"/>
       <use xlink:href="#DejaVuSans-2e" x="63.623047"/>
       <use xlink:href="#DejaVuSans-36" x="95.410156"/>
      </g>
     </g>
    </g>
    <g id="xtick_5">
     <g id="line2d_5">
      <g>
       <use xlink:href="#meea3e8d950" x="343.296" y="307.584" style="stroke: #000000; stroke-width: 0.8"/>
      </g>
     </g>
     <g id="text_5">
      <!-- 0.8 -->
      <g transform="translate(335.344438 322.182437)scale(0.1 -0.1)">
       <defs>
        <path id="DejaVuSans-38" d="M 2034 2216 
Q 1584 2216 1326 1975 
Q 1069 1734 1069 1313 
Q 1069 891 1326 650 
Q 1584 409 2034 409 
Q 2484 409 2743 651 
Q 3003 894 3003 1313 
Q 3003 1734 2745 1975 
Q 2488 2216 2034 2216 
z
M 1403 2484 
Q 997 2584 770 2862 
Q 544 3141 544 3541 
Q 544 4100 942 4425 
Q 1341 4750 2034 4750 
Q 2731 4750 3128 4425 
Q 3525 4100 3525 3541 
Q 3525 3141 3298 2862 
Q 3072 2584 2669 2484 
Q 3125 2378 3379 2068 
Q 3634 1759 3634 1313 
Q 3634 634 3220 271 
Q 2806 -91 2034 -91 
Q 1263 -91 848 271 
Q 434 634 434 1313 
Q 434 1759 690 2068 
Q 947 2378 1403 2484 
z
M 1172 3481 
Q 1172 3119 1398 2916 
Q 1625 2713 2034 2713 
Q 2441 2713 2670 2916 
Q 2900 3119 2900 3481 
Q 2900 3844 2670 4047 
Q 2441 4250 2034 4250 
Q 1625 4250 1398 4047 
Q 1172 3844 1172 3481 
z
" transform="scale(0.015625)"/>
       </defs>
       <use xlink:href="#DejaVuSans-30"/>
       <use xlink:href="#DejaVuSans-2e" x="63.623047"/>
       <use xlink:href="#DejaVuSans-38" x="95.410156"/>
      </g>
     </g>
    </g>
    <g id="xtick_6">
     <g id="line2d_6">
      <g>
       <use xlink:href="#meea3e8d950" x="414.72" y="307.584" style="stroke: #000000; stroke-width: 0.8"/>
      </g>
     </g>
     <g id="text_6">
      <!-- 1.0 -->
      <g transform="translate(406.768438 322.182437)scale(0.1 -0.1)">
       <defs>
        <path id="DejaVuSans-31" d="M 794 531 
L 1825 531 
L 1825 4091 
L 703 3866 
L 703 4441 
L 1819 4666 
L 2450 4666 
L 2450 531 
L 3481 531 
L 3481 0 
L 794 0 
L 794 531 
z
" transform="scale(0.015625)"/>
       </defs>
       <use xlink:href="#DejaVuSans-31"/>
       <use xlink:href="#DejaVuSans-2e" x="63.623047"/>
       <use xlink:href="#DejaVuSans-30" x="95.410156"/>
      </g>
     </g>
    </g>
   </g>
   <g id="matplotlib.axis_2">
    <g id="ytick_1">
     <g id="line2d_7">
      <defs>
       <path id="md6ef8272f8" d="M 0 0 
L -3.5 0 
" style="stroke: #000000; stroke-width: 0.8"/>
      </defs>
      <g>
       <use xlink:href="#md6ef8272f8" x="57.6" y="307.584" style="stroke: #000000; stroke-width: 0.8"/>
      </g>
     </g>
     <g id="text_7">
      <!-- 0.0 -->
      <g transform="translate(34.696875 311.383219)scale(0.1 -0.1)">
       <use xlink:href="#DejaVuSans-30"/>
       <use xlink:href="#DejaVuSans-2e" x="63.623047"/>
       <use xlink:href="#DejaVuSans-30" x="95.410156"/>
      </g>
     </g>
    </g>
    <g id="ytick_2">
     <g id="line2d_8">
      <g>
       <use xlink:href="#md6ef8272f8" x="57.6" y="254.3616" style="stroke: #000000; stroke-width: 0.8"/>
      </g>
     </g>
     <g id="text_8">
      <!-- 0.2 -->
      <g transform="translate(34.696875 258.160819)scale(0.1 -0.1)">
       <use xlink:href="#DejaVuSans-30"/>
       <use xlink:href="#DejaVuSans-2e" x="63.623047"/>
       <use xlink:href="#DejaVuSans-32" x="95.410156"/>
      </g>
     </g>
    </g>
    <g id="ytick_3">
     <g id="line2d_9">
      <g>
       <use xlink:href="#md6ef8272f8" x="57.6" y="201.1392" style="stroke: #000000; stroke-width: 0.8"/>
      </g>
     </g>
     <g id="text_9">
      <!-- 0.4 -->
      <g transform="translate(34.696875 204.938419)scale(0.1 -0.1)">
       <use xlink:href="#DejaVuSans-30"/>
       <use xlink:href="#DejaVuSans-2e" x="63.623047"/>
       <use xlink:href="#DejaVuSans-34" x="95.410156"/>
      </g>
     </g>
    </g>
    <g id="ytick_4">
     <g id="line2d_10">
      <g>
       <use xlink:href="#md6ef8272f8" x="57.6" y="147.9168" style="stroke: #000000; stroke-width: 0.8"/>
      </g>
     </g>
     <g id="text_10">
      <!-- 0.6 -->
      <g transform="translate(34.696875 151.716019)scale(0.1 -0.1)">
       <use xlink:href="#DejaVuSans-30"/>
       <use xlink:href="#DejaVuSans-2e" x="63.623047"/>
       <use xlink:href="#DejaVuSans-36" x="95.410156"/>
      </g>
     </g>
    </g>
    <g id="ytick_5">
     <g id="line2d_11">
      <g>
       <use xlink:href="#md6ef8272f8" x="57.6" y="94.6944" style="stroke: #000000; stroke-width: 0.8"/>
      </g>
     </g>
     <g id="text_11">
      <!-- 0.8 -->
      <g transform="translate(34.696875 98.493619)scale(0.1 -0.1)">
       <use xlink:href="#DejaVuSans-30"/>
       <use xlink:href="#DejaVuSans-2e" x="63.623047"/>
       <use xlink:href="#DejaVuSans-38" x="95.410156"/>
      </g>
     </g>
    </g>
    <g id="ytick_6">
     <g id="line2d_12">
      <g>
       <use xlink:href="#md6ef8272f8" x="57.6" y="41.472" style="stroke: #000000; stroke-width: 0.8"/>
      </g>
     </g>
     <g id="text_12">
      <!-- 1.0 -->
      <g transform="translate(34.696875 45.271219)scale(0.1 -0.1)">
       <use xlink:href="#DejaVuSans-31"/>
       <use xlink:href="#DejaVuSans-2e" x="63.623047"/>
       <use xlink:href="#DejaVuSans-30" x="95.410156"/>
      </g>
     </g>
    </g>
   </g>
   <g id="PathCollection_1">
    <path d="M 399.11075 304.92288 
L 401.834895 302.098479 
" clip-path="url(#p591de02675)" style="fill: none; stroke: #000000"/>
    <path d="M 90.125039 44.13312 
L 88.092554 44.583179 
L 81.972859 45.931648 
" clip-path="url(#p591de02675)" style="fill: none; stroke: #000000"/>
   </g>
   <g id="PathCollection_2">
    <path d="M 311.377042 304.92288 
L 312.437169 304.684749 
L 321.410954 302.545095 
L 330.384738 299.964255 
L 335.594403 298.235963 
L 339.358523 296.469755 
L 348.332308 291.630999 
L 348.47254 291.549046 
L 357.306092 285.487408 
L 358.130566 284.862129 
L 364.037784 279.865845 
" clip-path="url(#p591de02675)" style="fill: none; stroke: #000000"/>
    <path d="M 380.963641 262.30061 
L 384.227446 258.207905 
L 384.298415 258.114462 
L 389.260511 251.427545 
L 393.201231 245.418589 
L 393.628585 244.740628 
L 397.728254 238.053711 
L 401.345164 231.366794 
L 402.175015 229.761687 
L 404.719016 224.679877 
L 407.753442 217.99296 
L 410.429815 211.306043 
L 411.1488 209.403472 
" clip-path="url(#p591de02675)" style="fill: none; stroke: #000000"/>
    <path d="M 189.357418 44.13312 
L 186.804185 44.66888 
L 177.8304 46.663209 
L 168.856615 48.924346 
L 162.03687 50.820037 
L 159.882831 51.43841 
L 150.909046 54.133592 
L 141.935262 57.188506 
L 141.025444 57.506954 
L 132.961477 60.443425 
L 126.209051 63.225698 
" clip-path="url(#p591de02675)" style="fill: none; stroke: #000000"/>
    <path d="M 104.152432 73.695555 
L 97.364308 77.567705 
L 97.066338 77.748944 
L 88.092554 83.640255 
L 87.253436 84.254622 
L 79.118769 90.837043 
L 79.008789 90.941538 
L 72.515221 97.628455 
L 70.144985 100.433332 
L 67.825632 104.315372 
L 64.362167 111.002289 
L 61.49077 117.689206 
L 61.1712 118.479172 
" clip-path="url(#p591de02675)" style="fill: none; stroke: #000000"/>
   </g>
   <g id="PathCollection_3">
    <path d="M 205.312382 304.92288 
L 213.725538 303.081226 
L 222.699323 300.998488 
L 231.673108 298.751984 
L 233.708297 298.235963 
L 240.646892 295.724888 
L 249.620677 292.263045 
L 251.43657 291.549046 
L 258.594462 288.309437 
L 265.777213 284.862129 
L 267.568246 283.928599 
L 276.542031 279.120655 
L 278.252697 278.175212 
L 285.515815 273.922527 
L 289.506408 271.488295 
L 294.4896 268.30393 
L 299.777866 264.801378 
L 303.463385 262.259343 
L 309.278441 258.114462 
L 312.437169 255.777358 
L 318.134056 251.427545 
L 321.410954 248.834267 
L 326.42469 244.740628 
L 330.384738 241.389604 
L 334.203313 238.053711 
L 339.358523 233.379249 
L 341.505667 231.366794 
L 348.332308 224.703133 
L 348.355318 224.679877 
L 354.88553 217.99296 
L 357.306092 215.408174 
L 361.002324 211.306043 
L 366.279877 205.138168 
L 366.706094 204.619126 
L 369.681773 200.950909 
" clip-path="url(#p591de02675)" style="fill: none; stroke: #000000"/>
    <path d="M 384.15783 181.173857 
L 384.227446 181.070317 
L 386.262151 177.871458 
L 390.32044 171.184542 
L 393.201231 166.064593 
L 394.028479 164.497625 
L 397.463512 157.810708 
L 400.528688 151.123791 
L 402.175015 147.273707 
L 403.29374 144.436874 
L 405.770488 137.749957 
L 407.904904 131.06304 
L 409.716689 124.376123 
L 411.1488 118.086973 
" clip-path="url(#p591de02675)" style="fill: none; stroke: #000000"/>
    <path d="M 311.903369 44.13312 
L 303.463385 45.200274 
L 294.4896 46.550346 
L 285.515815 48.14083 
L 276.542031 49.986407 
L 272.735026 50.820037 
L 267.568246 52.046816 
L 258.594462 54.330867 
L 249.620677 56.89052 
L 247.517818 57.506954 
L 240.646892 59.653608 
L 231.673108 62.677687 
L 227.380268 64.193871 
L 222.699323 65.94144 
L 213.725538 69.454023 
L 210.213628 70.880788 
L 204.751754 73.208002 
L 195.777969 77.250104 
L 195.08142 77.567705 
L 186.804185 81.500333 
L 181.299161 84.254622 
L 177.8304 86.058331 
L 168.856615 90.924392 
L 168.825406 90.941538 
L 159.882831 96.028487 
L 157.182134 97.628455 
L 150.909046 101.469918 
L 146.432306 104.315372 
L 141.935262 107.266247 
L 136.441632 111.002289 
L 132.961477 113.444106 
L 127.124065 117.689206 
L 123.987692 120.042968 
L 118.425298 124.376123 
L 115.375973 126.830952 
" clip-path="url(#p591de02675)" style="fill: none; stroke: #000000"/>
    <path d="M 97.082976 143.146373 
L 97.066338 143.162151 
L 95.797563 144.436874 
L 89.345343 151.123791 
L 88.092554 152.458399 
L 83.466297 157.810708 
L 79.118769 163.144491 
L 78.160589 164.497625 
L 73.514825 171.184542 
L 70.144985 176.354914 
L 69.452489 177.871458 
L 66.4377 184.558375 
L 63.642683 191.245292 
L 61.1712 197.514451 
" clip-path="url(#p591de02675)" style="fill: none; stroke: #000000"/>
   </g>
   <g id="PathCollection_4">
    <path d="M 153.099735 304.92288 
L 159.882831 302.846575 
L 168.856615 300.144006 
L 175.206407 298.235963 
L 177.8304 297.066011 
L 186.804185 293.166509 
L 190.551182 291.549046 
L 195.777969 288.887538 
L 203.680344 284.862129 
L 204.751754 284.25214 
L 213.725538 279.257322 
L 215.684051 278.175212 
L 222.699323 273.968109 
L 226.856756 271.488295 
L 231.673108 268.410361 
L 237.369602 264.801378 
L 240.646892 262.599296 
L 247.385606 258.114462 
L 249.620677 256.551358 
L 257.009627 251.427545 
L 258.594462 250.282892 
L 266.312961 244.740628 
L 267.568246 243.809794 
L 275.345513 238.053711 
L 276.542031 237.146574 
L 284.142282 231.366794 
L 285.515815 230.304876 
L 292.727021 224.679877 
L 294.4896 223.291725 
L 301.114435 217.99296 
L 303.463385 216.107579 
L 309.311635 211.306043 
L 312.437169 208.744113 
L 317.319227 204.619126 
L 321.126524 201.420369 
" clip-path="url(#p591de02675)" style="fill: none; stroke: #000000"/>
    <path d="M 339.487043 185.171093 
L 340.131341 184.558375 
L 347.271852 177.871458 
L 348.332308 176.901966 
L 354.141847 171.184542 
L 357.306092 168.114434 
L 360.734102 164.497625 
L 366.279877 158.674186 
L 367.028827 157.810708 
L 372.95229 151.123791 
L 375.253662 148.555387 
L 378.533866 144.436874 
L 383.753108 137.749957 
L 384.227446 137.168814 
L 388.531478 131.06304 
L 392.947107 124.376123 
L 393.201231 124.011795 
L 396.888161 117.689206 
L 400.420332 111.002289 
L 402.175015 107.598521 
L 403.546076 104.315372 
L 406.200802 97.628455 
L 408.441512 90.941538 
L 410.306642 84.254622 
L 411.1488 81.116924 
" clip-path="url(#p591de02675)" style="fill: none; stroke: #000000"/>
    <path d="M 361.516855 44.13312 
L 357.306092 44.760664 
L 348.332308 46.150486 
L 339.358523 47.820176 
L 330.384738 49.798375 
L 325.978782 50.820037 
L 321.410954 52.127559 
L 312.437169 54.759596 
L 303.95231 57.506954 
L 303.463385 57.696317 
L 294.4896 60.986673 
L 286.295704 64.193871 
L 285.515815 64.547329 
L 276.542031 68.436506 
L 271.015021 70.880788 
L 267.568246 72.59568 
L 258.594462 77.009616 
L 257.435681 77.567705 
L 249.620677 81.700201 
L 244.76695 84.254622 
L 240.646892 86.612495 
L 232.974158 90.941538 
L 231.673108 91.731749 
L 222.699323 97.052582 
L 221.713042 97.628455 
L 213.725538 102.559653 
L 210.855672 104.315372 
L 204.751754 108.229337 
L 200.391367 111.002289 
L 195.777969 114.051286 
L 190.242272 117.689206 
L 186.804185 120.018233 
L 180.360565 124.376123 
L 177.8304 126.126469 
L 171.306456 130.655562 
" clip-path="url(#p591de02675)" style="fill: none; stroke: #000000"/>
    <path d="M 151.399289 144.96942 
L 150.909046 145.328472 
L 143.184432 151.123791 
L 141.935262 152.059181 
L 134.497591 157.810708 
L 132.961477 158.991665 
L 126.085364 164.497625 
L 123.987692 166.163113 
L 117.969083 171.184542 
L 115.013908 173.626651 
L 110.170685 177.871458 
L 106.040123 181.460418 
L 102.712234 184.558375 
L 97.066338 189.785884 
L 95.614156 191.245292 
L 88.911154 197.932209 
L 88.092554 198.730583 
L 82.69049 204.619126 
L 79.118769 208.513925 
L 76.948148 211.306043 
L 71.715051 217.99296 
L 70.144985 219.948258 
L 67.584407 224.679877 
L 63.957583 231.366794 
L 61.1712 236.421294 
" clip-path="url(#p591de02675)" style="fill: none; stroke: #000000"/>
   </g>
   <g id="PathCollection_5">
    <path d="M 121.828994 304.92288 
L 123.987692 303.876871 
L 132.961477 300.003738 
L 137.378217 298.235963 
L 141.935262 295.544465 
L 149.087061 291.549046 
L 150.909046 290.293712 
L 159.384181 284.862129 
L 159.882831 284.477114 
L 168.783925 278.175212 
L 168.856615 278.114125 
L 177.512964 271.488295 
L 177.8304 271.205166 
L 185.717423 264.801378 
L 186.804185 263.794855 
L 193.517788 258.114462 
L 195.777969 255.981251 
L 201.027369 251.427545 
L 204.751754 247.902006 
L 208.357909 244.740628 
L 213.725538 239.711631 
L 215.620049 238.053711 
L 222.699323 231.558971 
L 222.921543 231.366794 
L 230.31922 224.679877 
L 231.673108 223.434944 
L 237.914114 217.99296 
L 240.646892 215.613012 
L 245.80576 211.306043 
L 249.620677 208.169109 
L 254.07383 204.619126 
L 258.594462 201.113641 
L 262.776811 197.932209 
L 267.568246 194.426614 
L 271.550123 191.53291 
" clip-path="url(#p591de02675)" style="fill: none; stroke: #000000"/>
    <path d="M 291.752855 177.797516 
L 294.4896 176.083553 
L 302.030212 171.184542 
L 303.463385 170.322417 
L 312.437169 164.61696 
L 312.611218 164.497625 
L 321.410954 158.919182 
L 323.020099 157.810708 
L 330.384738 153.15301 
L 333.280881 151.123791 
L 339.358523 147.238485 
L 343.232769 144.436874 
L 348.332308 141.088891 
L 352.729433 137.749957 
L 357.306092 134.603392 
L 361.655087 131.06304 
L 366.279877 127.649839 
L 369.936617 124.376123 
L 375.253662 120.022202 
L 377.546733 117.689206 
L 384.227446 111.321358 
L 384.49107 111.002289 
L 390.442189 104.315372 
L 393.201231 101.389621 
L 395.809208 97.628455 
L 400.417715 90.941538 
L 402.175015 88.565435 
L 404.333429 84.254622 
L 407.452052 77.567705 
L 410.058518 70.880788 
L 411.1488 68.334816 
" clip-path="url(#p591de02675)" style="fill: none; stroke: #000000"/>
    <path d="M 378.670334 44.13312 
L 375.253662 44.945556 
L 366.279877 46.887794 
L 357.306092 49.211671 
L 351.521018 50.820037 
L 348.332308 52.129509 
L 339.358523 55.56359 
L 334.311072 57.506954 
L 330.384738 59.562885 
L 321.410954 63.997428 
L 320.982766 64.193871 
L 312.437169 69.17208 
L 309.306309 70.880788 
L 303.463385 74.842844 
L 299.070086 77.567705 
L 294.4896 81.013919 
L 289.738478 84.254622 
L 285.515815 87.664971 
L 281.034995 90.941538 
L 276.542031 94.741517 
L 272.782293 97.628455 
L 267.568246 102.157279 
L 264.845051 104.315372 
L 258.594462 109.803217 
L 257.106899 111.002289 
L 249.620677 117.559512 
L 249.46053 117.689206 
L 241.803856 124.376123 
L 240.646892 125.444068 
L 234.072461 131.06304 
L 231.673108 133.190334 
L 226.167773 137.749957 
L 222.699323 140.683601 
L 217.992369 144.436874 
L 213.725538 147.861733 
L 209.456232 151.123791 
L 204.751754 154.694183 
L 200.4823 157.810708 
L 195.777969 161.179307 
L 191.013923 164.497625 
L 186.804185 167.340353 
L 181.024269 171.184542 
L 177.8304 173.220902 
L 170.527304 177.871458 
L 168.856615 178.880323 
L 159.882831 184.392786 
L 159.624931 184.558375 
L 150.909046 189.833576 
L 148.684131 191.245292 
L 141.935262 195.245042 
L 137.692719 197.932209 
L 132.961477 200.707477 
L 126.850442 204.619126 
L 123.987692 206.303325 
L 116.364654 211.306043 
L 115.013908 212.115856 
L 106.42008 217.99296 
L 106.040123 218.229501 
L 98.256943 223.875648 
" clip-path="url(#p591de02675)" style="fill: none; stroke: #000000"/>
    <path d="M 79.296909 239.26782 
L 79.118769 239.411384 
L 73.756952 244.740628 
L 70.144985 248.136361 
L 67.772645 251.427545 
L 62.574935 258.114462 
L 61.1712 259.72304 
" clip-path="url(#p591de02675)" style="fill: none; stroke: #000000"/>
   </g>
   <g id="PathCollection_6">
    <path d="M 110.354068 304.92288 
L 115.013908 302.292752 
L 123.005766 298.235963 
L 123.987692 297.520543 
L 132.961477 291.600684 
L 133.046942 291.549046 
L 141.812357 284.862129 
L 141.935262 284.739127 
L 149.546439 278.175212 
L 150.909046 276.664584 
L 153.983576 273.733636 
" clip-path="url(#p591de02675)" style="fill: none; stroke: #000000"/>
    <path d="M 169.63892 255.051378 
L 172.300333 251.427545 
L 176.395643 244.740628 
L 177.8304 241.722777 
L 179.841504 238.053711 
L 182.432773 231.366794 
L 183.838146 224.679877 
L 182.45422 217.99296 
L 177.8304 214.547468 
L 168.856615 213.51622 
L 159.882831 214.56345 
L 150.909046 216.494363 
L 145.985191 217.99296 
L 141.935262 219.062085 
L 132.961477 222.113752 
L 126.668832 224.679877 
L 123.987692 225.622216 
L 115.013908 229.568009 
L 111.687286 231.366794 
L 106.040123 234.007585 
L 99.093588 238.053711 
L 97.066338 239.069073 
L 88.257622 244.740628 
L 88.092554 244.832211 
L 79.118769 251.363859 
L 79.049472 251.427545 
L 71.105072 258.114462 
L 70.144985 258.846155 
L 64.70081 264.801378 
L 61.1712 268.273711 
" clip-path="url(#p591de02675)" style="fill: none; stroke: #000000"/>
    <path d="M 384.346219 44.13312 
L 384.227446 44.178083 
L 375.253662 46.333403 
L 366.279877 48.854201 
L 359.860253 50.820037 
L 357.306092 52.109698 
L 348.332308 56.074216 
L 344.925308 57.506954 
L 339.358523 60.919803 
L 333.396881 64.193871 
L 331.239567 65.863646 
" clip-path="url(#p591de02675)" style="fill: none; stroke: #000000"/>
    <path d="M 312.121605 80.97176 
L 308.284383 84.254622 
L 303.463385 89.427715 
L 301.824765 90.941538 
L 295.987541 97.628455 
L 294.4896 99.745593 
L 290.727011 104.315372 
L 286.041494 111.002289 
L 285.515815 111.984378 
L 281.980666 117.689206 
L 278.581721 124.376123 
L 276.542031 129.900215 
L 276.046308 131.06304 
L 275.343191 137.749957 
L 276.542031 140.812936 
L 281.405324 144.436874 
L 285.515815 145.330203 
L 294.4896 144.806267 
L 296.050101 144.436874 
L 303.463385 142.916976 
L 312.437169 140.384213 
L 320.092999 137.749957 
L 321.410954 137.358242 
L 330.384738 133.866776 
L 336.517343 131.06304 
L 339.358523 129.946833 
L 348.332308 125.597159 
L 350.363846 124.376123 
L 357.306092 120.783702 
L 362.073969 117.689206 
L 366.279877 115.356689 
L 372.308779 111.002289 
L 375.253662 109.189701 
L 381.098704 104.315372 
L 384.227446 102.07084 
L 388.621216 97.628455 
L 393.201231 93.480303 
L 395.123953 90.941538 
L 400.444301 84.254622 
L 402.175015 82.35136 
L 404.81315 77.567705 
L 408.196039 70.880788 
L 411.08846 64.193871 
L 411.1488 64.105366 
" clip-path="url(#p591de02675)" style="fill: none; stroke: #000000"/>
   </g>
   <g id="patch_3">
    <path d="M 57.6 307.584 
L 57.6 41.472 
" style="fill: none; stroke: #000000; stroke-width: 0.8; stroke-linejoin: miter; stroke-linecap: square"/>
   </g>
   <g id="patch_4">
    <path d="M 414.72 307.584 
L 414.72 41.472 
" style="fill: none; stroke: #000000; stroke-width: 0.8; stroke-linejoin: miter; stroke-linecap: square"/>
   </g>
   <g id="patch_5">
    <path d="M 57.6 307.584 
L 414.72 307.584 
" style="fill: none; stroke: #000000; stroke-width: 0.8; stroke-linejoin: miter; stroke-linecap: square"/>
   </g>
   <g id="patch_6">
    <path d="M 57.6 41.472 
L 414.72 41.472 
" style="fill: none; stroke: #000000; stroke-width: 0.8; stroke-linejoin: miter; stroke-linecap: square"/>
   </g>
   <g id="text_13">
    <!-- Clayton-gumbel mixture Copula PDF -->
    <g transform="translate(126.994687 35.472)scale(0.12 -0.12)">
     <defs>
      <path id="DejaVuSans-43" d="M 4122 4306 
L 4122 3641 
Q 3803 3938 3442 4084 
Q 3081 4231 2675 4231 
Q 1875 4231 1450 3742 
Q 1025 3253 1025 2328 
Q 1025 1406 1450 917 
Q 1875 428 2675 428 
Q 3081 428 3442 575 
Q 3803 722 4122 1019 
L 4122 359 
Q 3791 134 3420 21 
Q 3050 -91 2638 -91 
Q 1578 -91 968 557 
Q 359 1206 359 2328 
Q 359 3453 968 4101 
Q 1578 4750 2638 4750 
Q 3056 4750 3426 4639 
Q 3797 4528 4122 4306 
z
" transform="scale(0.015625)"/>
      <path id="DejaVuSans-6c" d="M 603 4863 
L 1178 4863 
L 1178 0 
L 603 0 
L 603 4863 
z
" transform="scale(0.015625)"/>
      <path id="DejaVuSans-61" d="M 2194 1759 
Q 1497 1759 1228 1600 
Q 959 1441 959 1056 
Q 959 750 1161 570 
Q 1363 391 1709 391 
Q 2188 391 2477 730 
Q 2766 1069 2766 1631 
L 2766 1759 
L 2194 1759 
z
M 3341 1997 
L 3341 0 
L 2766 0 
L 2766 531 
Q 2569 213 2275 61 
Q 1981 -91 1556 -91 
Q 1019 -91 701 211 
Q 384 513 384 1019 
Q 384 1609 779 1909 
Q 1175 2209 1959 2209 
L 2766 2209 
L 2766 2266 
Q 2766 2663 2505 2880 
Q 2244 3097 1772 3097 
Q 1472 3097 1187 3025 
Q 903 2953 641 2809 
L 641 3341 
Q 956 3463 1253 3523 
Q 1550 3584 1831 3584 
Q 2591 3584 2966 3190 
Q 3341 2797 3341 1997 
z
" transform="scale(0.015625)"/>
      <path id="DejaVuSans-79" d="M 2059 -325 
Q 1816 -950 1584 -1140 
Q 1353 -1331 966 -1331 
L 506 -1331 
L 506 -850 
L 844 -850 
Q 1081 -850 1212 -737 
Q 1344 -625 1503 -206 
L 1606 56 
L 191 3500 
L 800 3500 
L 1894 763 
L 2988 3500 
L 3597 3500 
L 2059 -325 
z
" transform="scale(0.015625)"/>
      <path id="DejaVuSans-74" d="M 1172 4494 
L 1172 3500 
L 2356 3500 
L 2356 3053 
L 1172 3053 
L 1172 1153 
Q 1172 725 1289 603 
Q 1406 481 1766 481 
L 2356 481 
L 2356 0 
L 1766 0 
Q 1100 0 847 248 
Q 594 497 594 1153 
L 594 3053 
L 172 3053 
L 172 3500 
L 594 3500 
L 594 4494 
L 1172 4494 
z
" transform="scale(0.015625)"/>
      <path id="DejaVuSans-6f" d="M 1959 3097 
Q 1497 3097 1228 2736 
Q 959 2375 959 1747 
Q 959 1119 1226 758 
Q 1494 397 1959 397 
Q 2419 397 2687 759 
Q 2956 1122 2956 1747 
Q 2956 2369 2687 2733 
Q 2419 3097 1959 3097 
z
M 1959 3584 
Q 2709 3584 3137 3096 
Q 3566 2609 3566 1747 
Q 3566 888 3137 398 
Q 2709 -91 1959 -91 
Q 1206 -91 779 398 
Q 353 888 353 1747 
Q 353 2609 779 3096 
Q 1206 3584 1959 3584 
z
" transform="scale(0.015625)"/>
      <path id="DejaVuSans-6e" d="M 3513 2113 
L 3513 0 
L 2938 0 
L 2938 2094 
Q 2938 2591 2744 2837 
Q 2550 3084 2163 3084 
Q 1697 3084 1428 2787 
Q 1159 2491 1159 1978 
L 1159 0 
L 581 0 
L 581 3500 
L 1159 3500 
L 1159 2956 
Q 1366 3272 1645 3428 
Q 1925 3584 2291 3584 
Q 2894 3584 3203 3211 
Q 3513 2838 3513 2113 
z
" transform="scale(0.015625)"/>
      <path id="DejaVuSans-2d" d="M 313 2009 
L 1997 2009 
L 1997 1497 
L 313 1497 
L 313 2009 
z
" transform="scale(0.015625)"/>
      <path id="DejaVuSans-67" d="M 2906 1791 
Q 2906 2416 2648 2759 
Q 2391 3103 1925 3103 
Q 1463 3103 1205 2759 
Q 947 2416 947 1791 
Q 947 1169 1205 825 
Q 1463 481 1925 481 
Q 2391 481 2648 825 
Q 2906 1169 2906 1791 
z
M 3481 434 
Q 3481 -459 3084 -895 
Q 2688 -1331 1869 -1331 
Q 1566 -1331 1297 -1286 
Q 1028 -1241 775 -1147 
L 775 -588 
Q 1028 -725 1275 -790 
Q 1522 -856 1778 -856 
Q 2344 -856 2625 -561 
Q 2906 -266 2906 331 
L 2906 616 
Q 2728 306 2450 153 
Q 2172 0 1784 0 
Q 1141 0 747 490 
Q 353 981 353 1791 
Q 353 2603 747 3093 
Q 1141 3584 1784 3584 
Q 2172 3584 2450 3431 
Q 2728 3278 2906 2969 
L 2906 3500 
L 3481 3500 
L 3481 434 
z
" transform="scale(0.015625)"/>
      <path id="DejaVuSans-75" d="M 544 1381 
L 544 3500 
L 1119 3500 
L 1119 1403 
Q 1119 906 1312 657 
Q 1506 409 1894 409 
Q 2359 409 2629 706 
Q 2900 1003 2900 1516 
L 2900 3500 
L 3475 3500 
L 3475 0 
L 2900 0 
L 2900 538 
Q 2691 219 2414 64 
Q 2138 -91 1772 -91 
Q 1169 -91 856 284 
Q 544 659 544 1381 
z
M 1991 3584 
L 1991 3584 
z
" transform="scale(0.015625)"/>
      <path id="DejaVuSans-6d" d="M 3328 2828 
Q 3544 3216 3844 3400 
Q 4144 3584 4550 3584 
Q 5097 3584 5394 3201 
Q 5691 2819 5691 2113 
L 5691 0 
L 5113 0 
L 5113 2094 
Q 5113 2597 4934 2840 
Q 4756 3084 4391 3084 
Q 3944 3084 3684 2787 
Q 3425 2491 3425 1978 
L 3425 0 
L 2847 0 
L 2847 2094 
Q 2847 2600 2669 2842 
Q 2491 3084 2119 3084 
Q 1678 3084 1418 2786 
Q 1159 2488 1159 1978 
L 1159 0 
L 581 0 
L 581 3500 
L 1159 3500 
L 1159 2956 
Q 1356 3278 1631 3431 
Q 1906 3584 2284 3584 
Q 2666 3584 2933 3390 
Q 3200 3197 3328 2828 
z
" transform="scale(0.015625)"/>
      <path id="DejaVuSans-62" d="M 3116 1747 
Q 3116 2381 2855 2742 
Q 2594 3103 2138 3103 
Q 1681 3103 1420 2742 
Q 1159 2381 1159 1747 
Q 1159 1113 1420 752 
Q 1681 391 2138 391 
Q 2594 391 2855 752 
Q 3116 1113 3116 1747 
z
M 1159 2969 
Q 1341 3281 1617 3432 
Q 1894 3584 2278 3584 
Q 2916 3584 3314 3078 
Q 3713 2572 3713 1747 
Q 3713 922 3314 415 
Q 2916 -91 2278 -91 
Q 1894 -91 1617 61 
Q 1341 213 1159 525 
L 1159 0 
L 581 0 
L 581 4863 
L 1159 4863 
L 1159 2969 
z
" transform="scale(0.015625)"/>
      <path id="DejaVuSans-65" d="M 3597 1894 
L 3597 1613 
L 953 1613 
Q 991 1019 1311 708 
Q 1631 397 2203 397 
Q 2534 397 2845 478 
Q 3156 559 3463 722 
L 3463 178 
Q 3153 47 2828 -22 
Q 2503 -91 2169 -91 
Q 1331 -91 842 396 
Q 353 884 353 1716 
Q 353 2575 817 3079 
Q 1281 3584 2069 3584 
Q 2775 3584 3186 3129 
Q 3597 2675 3597 1894 
z
M 3022 2063 
Q 3016 2534 2758 2815 
Q 2500 3097 2075 3097 
Q 1594 3097 1305 2825 
Q 1016 2553 972 2059 
L 3022 2063 
z
" transform="scale(0.015625)"/>
      <path id="DejaVuSans-20" transform="scale(0.015625)"/>
      <path id="DejaVuSans-69" d="M 603 3500 
L 1178 3500 
L 1178 0 
L 603 0 
L 603 3500 
z
M 603 4863 
L 1178 4863 
L 1178 4134 
L 603 4134 
L 603 4863 
z
" transform="scale(0.015625)"/>
      <path id="DejaVuSans-78" d="M 3513 3500 
L 2247 1797 
L 3578 0 
L 2900 0 
L 1881 1375 
L 863 0 
L 184 0 
L 1544 1831 
L 300 3500 
L 978 3500 
L 1906 2253 
L 2834 3500 
L 3513 3500 
z
" transform="scale(0.015625)"/>
      <path id="DejaVuSans-72" d="M 2631 2963 
Q 2534 3019 2420 3045 
Q 2306 3072 2169 3072 
Q 1681 3072 1420 2755 
Q 1159 2438 1159 1844 
L 1159 0 
L 581 0 
L 581 3500 
L 1159 3500 
L 1159 2956 
Q 1341 3275 1631 3429 
Q 1922 3584 2338 3584 
Q 2397 3584 2469 3576 
Q 2541 3569 2628 3553 
L 2631 2963 
z
" transform="scale(0.015625)"/>
      <path id="DejaVuSans-70" d="M 1159 525 
L 1159 -1331 
L 581 -1331 
L 581 3500 
L 1159 3500 
L 1159 2969 
Q 1341 3281 1617 3432 
Q 1894 3584 2278 3584 
Q 2916 3584 3314 3078 
Q 3713 2572 3713 1747 
Q 3713 922 3314 415 
Q 2916 -91 2278 -91 
Q 1894 -91 1617 61 
Q 1341 213 1159 525 
z
M 3116 1747 
Q 3116 2381 2855 2742 
Q 2594 3103 2138 3103 
Q 1681 3103 1420 2742 
Q 1159 2381 1159 1747 
Q 1159 1113 1420 752 
Q 1681 391 2138 391 
Q 2594 391 2855 752 
Q 3116 1113 3116 1747 
z
" transform="scale(0.015625)"/>
      <path id="DejaVuSans-50" d="M 1259 4147 
L 1259 2394 
L 2053 2394 
Q 2494 2394 2734 2622 
Q 2975 2850 2975 3272 
Q 2975 3691 2734 3919 
Q 2494 4147 2053 4147 
L 1259 4147 
z
M 628 4666 
L 2053 4666 
Q 2838 4666 3239 4311 
Q 3641 3956 3641 3272 
Q 3641 2581 3239 2228 
Q 2838 1875 2053 1875 
L 1259 1875 
L 1259 0 
L 628 0 
L 628 4666 
z
" transform="scale(0.015625)"/>
      <path id="DejaVuSans-44" d="M 1259 4147 
L 1259 519 
L 2022 519 
Q 2988 519 3436 956 
Q 3884 1394 3884 2338 
Q 3884 3275 3436 3711 
Q 2988 4147 2022 4147 
L 1259 4147 
z
M 628 4666 
L 1925 4666 
Q 3281 4666 3915 4102 
Q 4550 3538 4550 2338 
Q 4550 1131 3912 565 
Q 3275 0 1925 0 
L 628 0 
L 628 4666 
z
" transform="scale(0.015625)"/>
      <path id="DejaVuSans-46" d="M 628 4666 
L 3309 4666 
L 3309 4134 
L 1259 4134 
L 1259 2759 
L 3109 2759 
L 3109 2228 
L 1259 2228 
L 1259 0 
L 628 0 
L 628 4666 
z
" transform="scale(0.015625)"/>
     </defs>
     <use xlink:href="#DejaVuSans-43"/>
     <use xlink:href="#DejaVuSans-6c" x="69.824219"/>
     <use xlink:href="#DejaVuSans-61" x="97.607422"/>
     <use xlink:href="#DejaVuSans-79" x="158.886719"/>
     <use xlink:href="#DejaVuSans-74" x="218.066406"/>
     <use xlink:href="#DejaVuSans-6f" x="257.275391"/>
     <use xlink:href="#DejaVuSans-6e" x="318.457031"/>
     <use xlink:href="#DejaVuSans-2d" x="381.835938"/>
     <use xlink:href="#DejaVuSans-67" x="417.919922"/>
     <use xlink:href="#DejaVuSans-75" x="481.396484"/>
     <use xlink:href="#DejaVuSans-6d" x="544.775391"/>
     <use xlink:href="#DejaVuSans-62" x="642.1875"/>
     <use xlink:href="#DejaVuSans-65" x="705.664062"/>
     <use xlink:href="#DejaVuSans-6c" x="767.1875"/>
     <use xlink:href="#DejaVuSans-20" x="794.970703"/>
     <use xlink:href="#DejaVuSans-6d" x="826.757812"/>
     <use xlink:href="#DejaVuSans-69" x="924.169922"/>
     <use xlink:href="#DejaVuSans-78" x="951.953125"/>
     <use xlink:href="#DejaVuSans-74" x="1011.132812"/>
     <use xlink:href="#DejaVuSans-75" x="1050.341797"/>
     <use xlink:href="#DejaVuSans-72" x="1113.720703"/>
     <use xlink:href="#DejaVuSans-65" x="1152.583984"/>
     <use xlink:href="#DejaVuSans-20" x="1214.107422"/>
     <use xlink:href="#DejaVuSans-43" x="1245.894531"/>
     <use xlink:href="#DejaVuSans-6f" x="1315.71875"/>
     <use xlink:href="#DejaVuSans-70" x="1376.900391"/>
     <use xlink:href="#DejaVuSans-75" x="1440.376953"/>
     <use xlink:href="#DejaVuSans-6c" x="1503.755859"/>
     <use xlink:href="#DejaVuSans-61" x="1531.539062"/>
     <use xlink:href="#DejaVuSans-20" x="1592.818359"/>
     <use xlink:href="#DejaVuSans-50" x="1624.605469"/>
     <use xlink:href="#DejaVuSans-44" x="1684.908203"/>
     <use xlink:href="#DejaVuSans-46" x="1761.910156"/>
    </g>
   </g>
   <g id="text_14">
    <g clip-path="url(#p591de02675)">
     <!-- 0.01 -->
     <g transform="translate(406.217364 300.570829)rotate(-65.568392)scale(0.08 -0.08)">
      <use xlink:href="#DejaVuSans-30"/>
      <use xlink:href="#DejaVuSans-2e" x="63.623047"/>
      <use xlink:href="#DejaVuSans-30" x="95.410156"/>
      <use xlink:href="#DejaVuSans-31" x="159.033203"/>
     </g>
    </g>
   </g>
   <g id="text_15">
    <g clip-path="url(#p591de02675)">
     <!-- 0.01 -->
     <g transform="translate(62.498567 54.047994)rotate(-19.636984)scale(0.08 -0.08)">
      <use xlink:href="#DejaVuSans-30"/>
      <use xlink:href="#DejaVuSans-2e" x="63.623047"/>
      <use xlink:href="#DejaVuSans-30" x="95.410156"/>
      <use xlink:href="#DejaVuSans-31" x="159.033203"/>
     </g>
    </g>
   </g>
   <g id="text_16">
    <g clip-path="url(#p591de02675)">
     <!-- 0.10 -->
     <g transform="translate(368.327819 279.431476)rotate(-46.038665)scale(0.08 -0.08)">
      <use xlink:href="#DejaVuSans-30"/>
      <use xlink:href="#DejaVuSans-2e" x="63.623047"/>
      <use xlink:href="#DejaVuSans-31" x="95.410156"/>
      <use xlink:href="#DejaVuSans-30" x="159.033203"/>
     </g>
    </g>
   </g>
   <g id="text_17">
    <g clip-path="url(#p591de02675)">
     <!-- 0.10 -->
     <g transform="translate(107.896512 73.903112)rotate(-25.212983)scale(0.08 -0.08)">
      <use xlink:href="#DejaVuSans-30"/>
      <use xlink:href="#DejaVuSans-2e" x="63.623047"/>
      <use xlink:href="#DejaVuSans-31" x="95.410156"/>
      <use xlink:href="#DejaVuSans-30" x="159.033203"/>
     </g>
    </g>
   </g>
   <g id="text_18">
    <g clip-path="url(#p591de02675)">
     <!-- 0.40 -->
     <g transform="translate(373.705973 199.742714)rotate(-53.910101)scale(0.08 -0.08)">
      <use xlink:href="#DejaVuSans-30"/>
      <use xlink:href="#DejaVuSans-2e" x="63.623047"/>
      <use xlink:href="#DejaVuSans-34" x="95.410156"/>
      <use xlink:href="#DejaVuSans-30" x="159.033203"/>
     </g>
    </g>
   </g>
   <g id="text_19">
    <g clip-path="url(#p591de02675)">
     <!-- 0.40 -->
     <g transform="translate(100.866879 142.354705)rotate(-41.760556)scale(0.08 -0.08)">
      <use xlink:href="#DejaVuSans-30"/>
      <use xlink:href="#DejaVuSans-2e" x="63.623047"/>
      <use xlink:href="#DejaVuSans-34" x="95.410156"/>
      <use xlink:href="#DejaVuSans-30" x="159.033203"/>
     </g>
    </g>
   </g>
   <g id="text_20">
    <g clip-path="url(#p591de02675)">
     <!-- 0.80 -->
     <g transform="translate(325.177208 200.93867)rotate(-41.500928)scale(0.08 -0.08)">
      <use xlink:href="#DejaVuSans-30"/>
      <use xlink:href="#DejaVuSans-2e" x="63.623047"/>
      <use xlink:href="#DejaVuSans-38" x="95.410156"/>
      <use xlink:href="#DejaVuSans-30" x="159.033203"/>
     </g>
    </g>
   </g>
   <g id="text_21">
    <g clip-path="url(#p591de02675)">
     <!-- 0.80 -->
     <g transform="translate(155.368962 144.744467)rotate(-35.745053)scale(0.08 -0.08)">
      <use xlink:href="#DejaVuSans-30"/>
      <use xlink:href="#DejaVuSans-2e" x="63.623047"/>
      <use xlink:href="#DejaVuSans-38" x="95.410156"/>
      <use xlink:href="#DejaVuSans-30" x="159.033203"/>
     </g>
    </g>
   </g>
   <g id="text_22">
    <g clip-path="url(#p591de02675)">
     <!-- 1.30 -->
     <g transform="translate(275.449814 191.386902)rotate(-34.16906)scale(0.08 -0.08)">
      <defs>
       <path id="DejaVuSans-33" d="M 2597 2516 
Q 3050 2419 3304 2112 
Q 3559 1806 3559 1356 
Q 3559 666 3084 287 
Q 2609 -91 1734 -91 
Q 1441 -91 1130 -33 
Q 819 25 488 141 
L 488 750 
Q 750 597 1062 519 
Q 1375 441 1716 441 
Q 2309 441 2620 675 
Q 2931 909 2931 1356 
Q 2931 1769 2642 2001 
Q 2353 2234 1838 2234 
L 1294 2234 
L 1294 2753 
L 1863 2753 
Q 2328 2753 2575 2939 
Q 2822 3125 2822 3475 
Q 2822 3834 2567 4026 
Q 2313 4219 1838 4219 
Q 1578 4219 1281 4162 
Q 984 4106 628 3988 
L 628 4550 
Q 988 4650 1302 4700 
Q 1616 4750 1894 4750 
Q 2613 4750 3031 4423 
Q 3450 4097 3450 3541 
Q 3450 3153 3228 2886 
Q 3006 2619 2597 2516 
z
" transform="scale(0.015625)"/>
      </defs>
      <use xlink:href="#DejaVuSans-31"/>
      <use xlink:href="#DejaVuSans-2e" x="63.623047"/>
      <use xlink:href="#DejaVuSans-33" x="95.410156"/>
      <use xlink:href="#DejaVuSans-30" x="159.033203"/>
     </g>
    </g>
   </g>
   <g id="text_23">
    <g clip-path="url(#p591de02675)">
     <!-- 1.30 -->
     <g transform="translate(83.117505 238.717656)rotate(-39.316288)scale(0.08 -0.08)">
      <use xlink:href="#DejaVuSans-31"/>
      <use xlink:href="#DejaVuSans-2e" x="63.623047"/>
      <use xlink:href="#DejaVuSans-33" x="95.410156"/>
      <use xlink:href="#DejaVuSans-30" x="159.033203"/>
     </g>
    </g>
   </g>
   <g id="text_24">
    <g clip-path="url(#p591de02675)">
     <!-- 1.60 -->
     <g transform="translate(158.261933 273.042393)rotate(-49.992581)scale(0.08 -0.08)">
      <use xlink:href="#DejaVuSans-31"/>
      <use xlink:href="#DejaVuSans-2e" x="63.623047"/>
      <use xlink:href="#DejaVuSans-36" x="95.410156"/>
      <use xlink:href="#DejaVuSans-30" x="159.033203"/>
     </g>
    </g>
   </g>
   <g id="text_25">
    <g clip-path="url(#p591de02675)">
     <!-- 1.60 -->
     <g transform="translate(315.720888 80.273638)rotate(-37.754327)scale(0.08 -0.08)">
      <use xlink:href="#DejaVuSans-31"/>
      <use xlink:href="#DejaVuSans-2e" x="63.623047"/>
      <use xlink:href="#DejaVuSans-36" x="95.410156"/>
      <use xlink:href="#DejaVuSans-30" x="159.033203"/>
     </g>
    </g>
   </g>
  </g>
 </g>
 <defs>
  <clipPath id="p591de02675">
   <rect x="57.6" y="41.472" width="357.12" height="266.112"/>
  </clipPath>
 </defs>
</svg>
