<?xml version="1.0" encoding="utf-8" standalone="no"?>
<!DOCTYPE svg PUBLIC "-//W3C//DTD SVG 1.1//EN"
  "http://www.w3.org/Graphics/SVG/1.1/DTD/svg11.dtd">
<svg xmlns:xlink="http://www.w3.org/1999/xlink" width="460.8pt" height="345.6pt" viewBox="0 0 460.8 345.6" xmlns="http://www.w3.org/2000/svg" version="1.1">
 <metadata>
  <rdf:RDF xmlns:dc="http://purl.org/dc/elements/1.1/" xmlns:cc="http://creativecommons.org/ns#" xmlns:rdf="http://www.w3.org/1999/02/22-rdf-syntax-ns#">
   <cc:Work>
    <dc:type rdf:resource="http://purl.org/dc/dcmitype/StillImage"/>
    <dc:date>2022-04-25T16:15:15.709335</dc:date>
    <dc:format>image/svg+xml</dc:format>
    <dc:creator>
     <cc:Agent>
      <dc:title>Matplotlib v3.5.1, https://matplotlib.org/</dc:title>
     </cc:Agent>
    </dc:creator>
   </cc:Work>
  </rdf:RDF>
 </metadata>
 <defs>
  <style type="text/css">*{stroke-linejoin: round; stroke-linecap: butt}</style>
 </defs>
 <g id="figure_1">
  <g id="patch_1">
   <path d="M 0 345.6 
L 460.8 345.6 
L 460.8 0 
L 0 0 
z
" style="fill: #ffffff"/>
  </g>
  <g id="axes_1">
   <g id="patch_2">
    <path d="M 57.6 307.584 
L 414.72 307.584 
L 414.72 41.472 
L 57.6 41.472 
z
" style="fill: #ffffff"/>
   </g>
   <g id="matplotlib.axis_1">
    <g id="xtick_1">
     <g id="line2d_1">
      <defs>
       <path id="mb4fe822338" d="M 0 0 
L 0 3.5 
" style="stroke: #000000; stroke-width: 0.8"/>
      </defs>
      <g>
       <use xlink:href="#mb4fe822338" x="57.6" y="307.584" style="stroke: #000000; stroke-width: 0.8"/>
      </g>
     </g>
     <g id="text_1">
      <!-- −3 -->
      <g transform="translate(50.228906 322.182437)scale(0.1 -0.1)">
       <defs>
        <path id="DejaVuSans-2212" d="M 678 2272 
L 4684 2272 
L 4684 1741 
L 678 1741 
L 678 2272 
z
" transform="scale(0.015625)"/>
        <path id="DejaVuSans-33" d="M 2597 2516 
Q 3050 2419 3304 2112 
Q 3559 1806 3559 1356 
Q 3559 666 3084 287 
Q 2609 -91 1734 -91 
Q 1441 -91 1130 -33 
Q 819 25 488 141 
L 488 750 
Q 750 597 1062 519 
Q 1375 441 1716 441 
Q 2309 441 2620 675 
Q 2931 909 2931 1356 
Q 2931 1769 2642 2001 
Q 2353 2234 1838 2234 
L 1294 2234 
L 1294 2753 
L 1863 2753 
Q 2328 2753 2575 2939 
Q 2822 3125 2822 3475 
Q 2822 3834 2567 4026 
Q 2313 4219 1838 4219 
Q 1578 4219 1281 4162 
Q 984 4106 628 3988 
L 628 4550 
Q 988 4650 1302 4700 
Q 1616 4750 1894 4750 
Q 2613 4750 3031 4423 
Q 3450 4097 3450 3541 
Q 3450 3153 3228 2886 
Q 3006 2619 2597 2516 
z
" transform="scale(0.015625)"/>
       </defs>
       <use xlink:href="#DejaVuSans-2212"/>
       <use xlink:href="#DejaVuSans-33" x="83.789062"/>
      </g>
     </g>
    </g>
    <g id="xtick_2">
     <g id="line2d_2">
      <g>
       <use xlink:href="#mb4fe822338" x="117.12" y="307.584" style="stroke: #000000; stroke-width: 0.8"/>
      </g>
     </g>
     <g id="text_2">
      <!-- −2 -->
      <g transform="translate(109.748906 322.182437)scale(0.1 -0.1)">
       <defs>
        <path id="DejaVuSans-32" d="M 1228 531 
L 3431 531 
L 3431 0 
L 469 0 
L 469 531 
Q 828 903 1448 1529 
Q 2069 2156 2228 2338 
Q 2531 2678 2651 2914 
Q 2772 3150 2772 3378 
Q 2772 3750 2511 3984 
Q 2250 4219 1831 4219 
Q 1534 4219 1204 4116 
Q 875 4013 500 3803 
L 500 4441 
Q 881 4594 1212 4672 
Q 1544 4750 1819 4750 
Q 2544 4750 2975 4387 
Q 3406 4025 3406 3419 
Q 3406 3131 3298 2873 
Q 3191 2616 2906 2266 
Q 2828 2175 2409 1742 
Q 1991 1309 1228 531 
z
" transform="scale(0.015625)"/>
       </defs>
       <use xlink:href="#DejaVuSans-2212"/>
       <use xlink:href="#DejaVuSans-32" x="83.789062"/>
      </g>
     </g>
    </g>
    <g id="xtick_3">
     <g id="line2d_3">
      <g>
       <use xlink:href="#mb4fe822338" x="176.64" y="307.584" style="stroke: #000000; stroke-width: 0.8"/>
      </g>
     </g>
     <g id="text_3">
      <!-- −1 -->
      <g transform="translate(169.268906 322.182437)scale(0.1 -0.1)">
       <defs>
        <path id="DejaVuSans-31" d="M 794 531 
L 1825 531 
L 1825 4091 
L 703 3866 
L 703 4441 
L 1819 4666 
L 2450 4666 
L 2450 531 
L 3481 531 
L 3481 0 
L 794 0 
L 794 531 
z
" transform="scale(0.015625)"/>
       </defs>
       <use xlink:href="#DejaVuSans-2212"/>
       <use xlink:href="#DejaVuSans-31" x="83.789062"/>
      </g>
     </g>
    </g>
    <g id="xtick_4">
     <g id="line2d_4">
      <g>
       <use xlink:href="#mb4fe822338" x="236.16" y="307.584" style="stroke: #000000; stroke-width: 0.8"/>
      </g>
     </g>
     <g id="text_4">
      <!-- 0 -->
      <g transform="translate(232.97875 322.182437)scale(0.1 -0.1)">
       <defs>
        <path id="DejaVuSans-30" d="M 2034 4250 
Q 1547 4250 1301 3770 
Q 1056 3291 1056 2328 
Q 1056 1369 1301 889 
Q 1547 409 2034 409 
Q 2525 409 2770 889 
Q 3016 1369 3016 2328 
Q 3016 3291 2770 3770 
Q 2525 4250 2034 4250 
z
M 2034 4750 
Q 2819 4750 3233 4129 
Q 3647 3509 3647 2328 
Q 3647 1150 3233 529 
Q 2819 -91 2034 -91 
Q 1250 -91 836 529 
Q 422 1150 422 2328 
Q 422 3509 836 4129 
Q 1250 4750 2034 4750 
z
" transform="scale(0.015625)"/>
       </defs>
       <use xlink:href="#DejaVuSans-30"/>
      </g>
     </g>
    </g>
    <g id="xtick_5">
     <g id="line2d_5">
      <g>
       <use xlink:href="#mb4fe822338" x="295.68" y="307.584" style="stroke: #000000; stroke-width: 0.8"/>
      </g>
     </g>
     <g id="text_5">
      <!-- 1 -->
      <g transform="translate(292.49875 322.182437)scale(0.1 -0.1)">
       <use xlink:href="#DejaVuSans-31"/>
      </g>
     </g>
    </g>
    <g id="xtick_6">
     <g id="line2d_6">
      <g>
       <use xlink:href="#mb4fe822338" x="355.2" y="307.584" style="stroke: #000000; stroke-width: 0.8"/>
      </g>
     </g>
     <g id="text_6">
      <!-- 2 -->
      <g transform="translate(352.01875 322.182437)scale(0.1 -0.1)">
       <use xlink:href="#DejaVuSans-32"/>
      </g>
     </g>
    </g>
    <g id="xtick_7">
     <g id="line2d_7">
      <g>
       <use xlink:href="#mb4fe822338" x="414.72" y="307.584" style="stroke: #000000; stroke-width: 0.8"/>
      </g>
     </g>
     <g id="text_7">
      <!-- 3 -->
      <g transform="translate(411.53875 322.182437)scale(0.1 -0.1)">
       <use xlink:href="#DejaVuSans-33"/>
      </g>
     </g>
    </g>
   </g>
   <g id="matplotlib.axis_2">
    <g id="ytick_1">
     <g id="line2d_8">
      <defs>
       <path id="m2f0951bdb6" d="M 0 0 
L -3.5 0 
" style="stroke: #000000; stroke-width: 0.8"/>
      </defs>
      <g>
       <use xlink:href="#m2f0951bdb6" x="57.6" y="307.584" style="stroke: #000000; stroke-width: 0.8"/>
      </g>
     </g>
     <g id="text_8">
      <!-- −3 -->
      <g transform="translate(35.857813 311.383219)scale(0.1 -0.1)">
       <use xlink:href="#DejaVuSans-2212"/>
       <use xlink:href="#DejaVuSans-33" x="83.789062"/>
      </g>
     </g>
    </g>
    <g id="ytick_2">
     <g id="line2d_9">
      <g>
       <use xlink:href="#m2f0951bdb6" x="57.6" y="263.232" style="stroke: #000000; stroke-width: 0.8"/>
      </g>
     </g>
     <g id="text_9">
      <!-- −2 -->
      <g transform="translate(35.857813 267.031219)scale(0.1 -0.1)">
       <use xlink:href="#DejaVuSans-2212"/>
       <use xlink:href="#DejaVuSans-32" x="83.789062"/>
      </g>
     </g>
    </g>
    <g id="ytick_3">
     <g id="line2d_10">
      <g>
       <use xlink:href="#m2f0951bdb6" x="57.6" y="218.88" style="stroke: #000000; stroke-width: 0.8"/>
      </g>
     </g>
     <g id="text_10">
      <!-- −1 -->
      <g transform="translate(35.857813 222.679219)scale(0.1 -0.1)">
       <use xlink:href="#DejaVuSans-2212"/>
       <use xlink:href="#DejaVuSans-31" x="83.789062"/>
      </g>
     </g>
    </g>
    <g id="ytick_4">
     <g id="line2d_11">
      <g>
       <use xlink:href="#m2f0951bdb6" x="57.6" y="174.528" style="stroke: #000000; stroke-width: 0.8"/>
      </g>
     </g>
     <g id="text_11">
      <!-- 0 -->
      <g transform="translate(44.2375 178.327219)scale(0.1 -0.1)">
       <use xlink:href="#DejaVuSans-30"/>
      </g>
     </g>
    </g>
    <g id="ytick_5">
     <g id="line2d_12">
      <g>
       <use xlink:href="#m2f0951bdb6" x="57.6" y="130.176" style="stroke: #000000; stroke-width: 0.8"/>
      </g>
     </g>
     <g id="text_12">
      <!-- 1 -->
      <g transform="translate(44.2375 133.975219)scale(0.1 -0.1)">
       <use xlink:href="#DejaVuSans-31"/>
      </g>
     </g>
    </g>
    <g id="ytick_6">
     <g id="line2d_13">
      <g>
       <use xlink:href="#m2f0951bdb6" x="57.6" y="85.824" style="stroke: #000000; stroke-width: 0.8"/>
      </g>
     </g>
     <g id="text_13">
      <!-- 2 -->
      <g transform="translate(44.2375 89.623219)scale(0.1 -0.1)">
       <use xlink:href="#DejaVuSans-32"/>
      </g>
     </g>
    </g>
    <g id="ytick_7">
     <g id="line2d_14">
      <g>
       <use xlink:href="#m2f0951bdb6" x="57.6" y="41.472" style="stroke: #000000; stroke-width: 0.8"/>
      </g>
     </g>
     <g id="text_14">
      <!-- 3 -->
      <g transform="translate(44.2375 45.271219)scale(0.1 -0.1)">
       <use xlink:href="#DejaVuSans-33"/>
      </g>
     </g>
    </g>
   </g>
   <g id="PathCollection_1"/>
   <g id="PathCollection_2">
    <path d="M 221.407438 127.454185 
L 219.771277 128.365714 
L 217.939592 129.337654 
L 210.651429 133.635836 
L 210.390864 133.796571 
L 203.363265 138.044406 
L 201.547024 139.227429 
L 196.075102 142.802413 
L 193.377906 144.658286 
L 188.786939 147.903713 
L 185.786879 150.089143 
L 181.498776 153.378189 
L 178.731696 155.52 
L 174.210612 159.298292 
L 172.210928 160.950857 
L 166.922449 165.791857 
L 166.257743 166.381714 
L 160.661214 171.812571 
L 159.634286 172.947541 
L 155.488081 177.243429 
L 152.346122 181.133596 
L 150.991655 182.674286 
L 146.843879 188.105143 
L 145.057959 190.93649 
L 143.211211 193.536 
L 140.004987 198.966857 
L 137.769796 203.778026 
L 137.434496 204.397714 
L 134.975347 209.828571 
L 133.084475 215.259429 
L 131.62578 220.690286 
L 130.481633 226.037383 
L 130.459894 226.121143 
L 129.202083 231.552 
L 128.103701 236.982857 
L 127.223457 242.413714 
L 126.907149 247.844571 
L 128.70405 253.275429 
L 130.481633 254.600015 
L 137.769796 255.938996 
L 145.057959 255.703295 
L 152.346122 255.047371 
L 159.634286 254.228899 
L 166.922449 253.291627 
L 167.034854 253.275429 
L 174.210612 252.422855 
L 181.498776 251.335891 
L 188.786939 249.926887 
L 196.075102 248.094424 
L 196.906718 247.844571 
L 203.363265 246.178994 
L 210.651429 243.78984 
L 214.139949 242.413714 
L 217.939592 241.082916 
L 225.227755 237.992154 
L 227.295348 236.982857 
L 232.515918 234.641592 
L 238.280962 231.552 
L 239.804082 230.786773 
L 247.092245 226.616456 
L 247.883828 226.121143 
L 254.380408 222.180373 
L 256.598136 220.690286 
L 261.668571 217.321349 
L 264.542863 215.259429 
L 268.956735 212.0641 
L 271.889563 209.828571 
L 276.244898 206.40756 
L 278.735463 204.397714 
L 283.533061 200.32025 
L 285.120668 198.966857 
L 290.821224 193.730162 
L 291.036931 193.536 
L 296.805053 188.105143 
L 298.109388 186.740242 
L 302.188884 182.674286 
L 305.397551 178.998387 
L 307.042127 177.243429 
L 311.570623 171.812571 
L 312.685714 170.308548 
L 315.893048 166.381714 
L 319.577865 160.950857 
L 319.973878 160.319563 
L 323.36846 155.52 
L 326.542052 150.089143 
L 327.262041 148.765489 
L 329.831966 144.658286 
L 332.801882 139.227429 
L 334.550204 135.713434 
L 335.665229 133.796571 
L 338.687895 128.365714 
L 341.373937 122.934857 
L 341.838367 121.995783 
L 344.429445 117.504 
L 347.240576 112.073143 
L 349.126531 108.17297 
L 349.992779 106.642286 
L 352.650541 101.211429 
L 354.755529 95.780571 
L 355.951805 90.349714 
L 349.126531 85.263784 
L 341.838367 86.155202 
L 334.550204 87.723758 
L 327.262041 89.70422 
L 325.207876 90.349714 
L 319.973878 91.755054 
L 312.685714 93.849801 
L 306.657781 95.780571 
L 305.397551 96.126647 
L 298.109388 98.128181 
L 290.821224 100.380555 
L 288.248811 101.211429 
L 283.533061 102.514211 
L 276.244898 104.727277 
L 270.733067 106.642286 
L 268.956735 107.178794 
L 261.668571 109.543631 
L 255.2276 112.073143 
L 254.380408 112.368236 
L 247.092245 115.114019 
L 243.9133 116.555753 
" clip-path="url(#p9f08c704f2)" style="fill: none; stroke: #000000"/>
   </g>
   <g id="PathCollection_3">
    <path d="M 314.045399 145.056995 
L 314.31085 144.658286 
L 317.599482 139.227429 
L 319.973878 134.910201 
L 320.646587 133.796571 
L 323.635484 128.365714 
L 326.275182 122.934857 
L 327.262041 120.544812 
L 328.634824 117.504 
L 330.095022 112.073143 
L 329.238165 106.642286 
L 327.262041 105.169754 
L 319.973878 104.531258 
L 312.685714 105.619341 
L 308.604971 106.642286 
L 305.397551 107.377655 
L 298.109388 109.344656 
L 290.821224 111.571866 
L 289.326744 112.073143 
L 283.533061 113.842451 
L 276.244898 116.293012 
L 272.969146 117.504 
L 268.956735 118.867789 
L 261.668571 121.597633 
L 258.450878 122.934857 
L 254.380408 124.510573 
L 247.092245 127.693594 
L 245.674323 128.365714 
L 239.804082 131.001596 
L 234.350497 133.796571 
L 232.515918 134.706146 
L 225.227755 138.666815 
L 224.264894 139.227429 
L 217.939592 142.870613 
L 215.08804 144.658286 
L 210.651429 147.473025 
L 206.778419 150.089143 
L 203.363265 152.478979 
L 199.191657 155.52 
L 196.075102 157.931222 
L 192.246498 160.950857 
L 188.786939 163.920066 
L 185.911902 166.381714 
L 181.498776 170.601514 
L 180.201463 171.812571 
L 175.017601 177.243429 
L 174.210612 178.202672 
L 170.241256 182.674286 
L 166.922449 187.173801 
L 166.181686 188.105143 
L 162.440346 193.536 
L 159.634286 198.593657 
L 159.404948 198.966857 
L 156.583245 204.397714 
L 154.360708 209.828571 
L 152.583733 215.259429 
L 152.346122 216.198159 
L 151.079692 220.690286 
L 150.159933 226.121143 
L 150.263516 231.552 
L 152.346122 235.767901 
L 153.976583 236.982857 
L 159.634286 238.534735 
L 166.922449 238.611921 
L 174.210612 237.926552 
L 180.239008 236.982857 
L 181.498776 236.805799 
L 188.786939 235.481666 
L 196.075102 233.825518 
L 203.363265 231.722894 
L 203.864097 231.552 
L 210.651429 229.461032 
L 217.939592 226.673131 
L 219.189444 226.121143 
L 225.227755 223.648096 
L 231.228622 220.690286 
L 232.515918 220.088949 
L 239.804082 216.226136 
L 241.429311 215.259429 
L 247.092245 211.970938 
L 250.395756 209.828571 
L 254.380408 207.250642 
L 258.432732 204.397714 
L 261.668571 202.075378 
L 265.749596 198.966857 
L 268.956735 196.422017 
L 272.467543 193.536 
L 276.244898 190.230009 
L 278.643939 188.105143 
L 283.533061 183.391772 
L 284.285399 182.674286 
L 289.600583 177.243429 
L 290.821224 175.876372 
L 294.572058 171.812571 
L 298.109388 167.438295 
L 299.011367 166.381714 
L 299.686378 165.523512 
" clip-path="url(#p9f08c704f2)" style="fill: none; stroke: #000000"/>
   </g>
   <g id="PathCollection_4">
    <path d="M 193.936574 171.39212 
L 193.47389 171.812571 
L 188.786939 176.62341 
L 188.172501 177.243429 
L 183.401254 182.674286 
L 181.498776 185.203039 
L 179.228286 188.105143 
L 175.67768 193.536 
L 174.210612 196.2402 
L 172.646474 198.966857 
L 170.226994 204.397714 
L 168.460645 209.828571 
L 167.496732 215.259429 
L 168.349338 220.690286 
L 174.210612 225.05788 
L 181.498776 225.693209 
L 188.786939 224.974939 
L 196.075102 223.658724 
L 203.363265 221.855821 
L 207.022415 220.690286 
L 210.651429 219.597084 
L 217.939592 216.951309 
L 221.83419 215.259429 
L 225.227755 213.841775 
L 232.515918 210.286427 
L 233.347978 209.828571 
L 239.804082 206.336037 
L 242.976254 204.397714 
L 247.092245 201.875808 
L 251.397796 198.966857 
L 254.380408 196.907246 
L 258.910945 193.536 
L 261.668571 191.399581 
L 265.703222 188.105143 
L 268.956735 185.288996 
L 271.885034 182.674286 
L 276.244898 178.473949 
L 277.509184 177.243429 
L 282.668893 171.812571 
L 283.533061 170.834826 
L 287.492157 166.381714 
L 290.821224 162.216855 
L 291.858936 160.950857 
L 295.928941 155.52 
L 298.109388 152.318909 
L 299.684069 150.089143 
L 303.104792 144.658286 
L 305.397551 140.634671 
L 306.2362 139.227429 
L 308.881218 133.796571 
L 310.89784 128.365714 
L 311.566759 122.934857 
L 305.397551 118.337802 
L 298.109388 118.836255 
L 290.821224 120.338963 
L 283.533061 122.309928 
L 281.644554 122.934857 
L 276.244898 124.643332 
L 268.956735 127.192323 
L 265.964408 128.365714 
L 261.668571 129.990499 
L 254.380408 133.023309 
L 252.68145 133.796571 
L 247.092245 136.277264 
L 241.116208 139.227429 
L 239.804082 139.871374 
L 232.515918 143.716189 
L 230.86457 144.658286 
L 225.227755 147.907088 
L 221.718837 150.089143 
L 217.939592 152.513535 
L 213.518485 155.52 
L 213.348556 155.641791 
" clip-path="url(#p9f08c704f2)" style="fill: none; stroke: #000000"/>
   </g>
   <g id="PathCollection_5">
    <path d="M 257.091244 185.702288 
L 260.834714 182.674286 
L 261.668571 181.961409 
L 266.881824 177.243429 
L 268.956735 175.235138 
L 272.36083 171.812571 
L 276.244898 167.589034 
L 277.333826 166.381714 
L 281.777041 160.950857 
L 283.533061 158.596035 
L 285.804971 155.52 
L 289.31495 150.089143 
L 290.821224 147.331434 
L 292.279836 144.658286 
L 294.172399 139.227429 
L 293.917789 133.796571 
L 290.821224 131.489131 
L 283.533061 131.299406 
L 276.244898 132.70967 
L 272.657556 133.796571 
L 268.956735 134.918989 
L 261.668571 137.534489 
L 257.540559 139.227429 
L 254.380408 140.535947 
L 247.092245 143.846859 
L 245.472033 144.658286 
L 239.804082 147.552543 
L 235.211027 150.089143 
L 232.515918 151.635286 
L 226.18443 155.52 
L 225.227755 156.141359 
L 218.221578 160.950857 
L 217.939592 161.159746 
L 211.185104 166.381714 
L 210.651429 166.835753 
L 204.969638 171.812571 
L 203.363265 173.392199 
L 199.503059 177.243429 
L 196.075102 181.161752 
L 194.750049 182.674286 
L 190.766478 188.105143 
L 188.786939 191.384448 
L 187.471366 193.536 
L 185.125021 198.966857 
L 183.884542 204.397714 
L 185.003151 209.828571 
L 188.786939 212.648103 
L 196.075102 213.481647 
L 203.363265 212.557291 
L 210.651429 210.808885 
L 213.538792 209.828571 
L 217.939592 208.353495 
L 225.227755 205.385092 
L 227.257562 204.397714 
L 232.515918 201.843333 
L 236.46514 199.645356 
" clip-path="url(#p9f08c704f2)" style="fill: none; stroke: #000000"/>
   </g>
   <g id="PathCollection_6">
    <path d="M 264.633206 168.473053 
L 266.503039 166.381714 
L 268.956735 163.380198 
L 270.831716 160.950857 
L 274.170973 155.52 
L 276.244898 150.717823 
L 276.502656 150.089143 
L 276.244898 148.646099 
L 270.893287 144.658286 
L 268.956735 144.466214 
L 268.113051 144.658286 
L 261.668571 146.203694 
L 254.380408 148.69198 
L 251.120254 150.089143 
L 247.092245 151.917542 
L 239.835866 155.52 
L 239.804082 155.537054 
L 232.515918 159.943805 
L 230.954609 160.950857 
L 225.227755 164.967516 
L 223.318062 166.381714 
L 217.939592 170.797389 
L 216.755585 171.812571 
L 211.233567 177.243429 
L 210.651429 177.944544 
L 206.883675 182.674286 
L 203.363265 188.026804 
L 203.313138 188.105143 
L 201.724339 193.536 
L 203.312671 198.966857 
L 203.363265 199.004558 
L 210.651429 200.188122 
L 217.939592 199.00421 
L 218.044722 198.966857 
L 225.227755 196.343584 
L 231.575027 193.536 
L 232.515918 193.102213 
L 239.804082 188.987419 
L 241.166447 188.105143 
L 245.866649 184.926229 
" clip-path="url(#p9f08c704f2)" style="fill: none; stroke: #000000"/>
   </g>
   <g id="PathCollection_7">
    <path d="M 239.804082 172.303115 
L 240.387321 171.812571 
L 239.804082 171.377964 
L 239.145776 171.812571 
L 239.804082 172.303115 
z
" clip-path="url(#p9f08c704f2)" style="fill: none; stroke: #000000"/>
   </g>
   <g id="PathCollection_8"/>
   <g id="patch_3">
    <path d="M 57.6 307.584 
L 57.6 41.472 
" style="fill: none; stroke: #000000; stroke-width: 0.8; stroke-linejoin: miter; stroke-linecap: square"/>
   </g>
   <g id="patch_4">
    <path d="M 414.72 307.584 
L 414.72 41.472 
" style="fill: none; stroke: #000000; stroke-width: 0.8; stroke-linejoin: miter; stroke-linecap: square"/>
   </g>
   <g id="patch_5">
    <path d="M 57.6 307.584 
L 414.72 307.584 
" style="fill: none; stroke: #000000; stroke-width: 0.8; stroke-linejoin: miter; stroke-linecap: square"/>
   </g>
   <g id="patch_6">
    <path d="M 57.6 41.472 
L 414.72 41.472 
" style="fill: none; stroke: #000000; stroke-width: 0.8; stroke-linejoin: miter; stroke-linecap: square"/>
   </g>
   <g id="text_15">
    <!-- Clayton-gumbel mixture Copula PDF -->
    <g transform="translate(126.994687 35.472)scale(0.12 -0.12)">
     <defs>
      <path id="DejaVuSans-43" d="M 4122 4306 
L 4122 3641 
Q 3803 3938 3442 4084 
Q 3081 4231 2675 4231 
Q 1875 4231 1450 3742 
Q 1025 3253 1025 2328 
Q 1025 1406 1450 917 
Q 1875 428 2675 428 
Q 3081 428 3442 575 
Q 3803 722 4122 1019 
L 4122 359 
Q 3791 134 3420 21 
Q 3050 -91 2638 -91 
Q 1578 -91 968 557 
Q 359 1206 359 2328 
Q 359 3453 968 4101 
Q 1578 4750 2638 4750 
Q 3056 4750 3426 4639 
Q 3797 4528 4122 4306 
z
" transform="scale(0.015625)"/>
      <path id="DejaVuSans-6c" d="M 603 4863 
L 1178 4863 
L 1178 0 
L 603 0 
L 603 4863 
z
" transform="scale(0.015625)"/>
      <path id="DejaVuSans-61" d="M 2194 1759 
Q 1497 1759 1228 1600 
Q 959 1441 959 1056 
Q 959 750 1161 570 
Q 1363 391 1709 391 
Q 2188 391 2477 730 
Q 2766 1069 2766 1631 
L 2766 1759 
L 2194 1759 
z
M 3341 1997 
L 3341 0 
L 2766 0 
L 2766 531 
Q 2569 213 2275 61 
Q 1981 -91 1556 -91 
Q 1019 -91 701 211 
Q 384 513 384 1019 
Q 384 1609 779 1909 
Q 1175 2209 1959 2209 
L 2766 2209 
L 2766 2266 
Q 2766 2663 2505 2880 
Q 2244 3097 1772 3097 
Q 1472 3097 1187 3025 
Q 903 2953 641 2809 
L 641 3341 
Q 956 3463 1253 3523 
Q 1550 3584 1831 3584 
Q 2591 3584 2966 3190 
Q 3341 2797 3341 1997 
z
" transform="scale(0.015625)"/>
      <path id="DejaVuSans-79" d="M 2059 -325 
Q 1816 -950 1584 -1140 
Q 1353 -1331 966 -1331 
L 506 -1331 
L 506 -850 
L 844 -850 
Q 1081 -850 1212 -737 
Q 1344 -625 1503 -206 
L 1606 56 
L 191 3500 
L 800 3500 
L 1894 763 
L 2988 3500 
L 3597 3500 
L 2059 -325 
z
" transform="scale(0.015625)"/>
      <path id="DejaVuSans-74" d="M 1172 4494 
L 1172 3500 
L 2356 3500 
L 2356 3053 
L 1172 3053 
L 1172 1153 
Q 1172 725 1289 603 
Q 1406 481 1766 481 
L 2356 481 
L 2356 0 
L 1766 0 
Q 1100 0 847 248 
Q 594 497 594 1153 
L 594 3053 
L 172 3053 
L 172 3500 
L 594 3500 
L 594 4494 
L 1172 4494 
z
" transform="scale(0.015625)"/>
      <path id="DejaVuSans-6f" d="M 1959 3097 
Q 1497 3097 1228 2736 
Q 959 2375 959 1747 
Q 959 1119 1226 758 
Q 1494 397 1959 397 
Q 2419 397 2687 759 
Q 2956 1122 2956 1747 
Q 2956 2369 2687 2733 
Q 2419 3097 1959 3097 
z
M 1959 3584 
Q 2709 3584 3137 3096 
Q 3566 2609 3566 1747 
Q 3566 888 3137 398 
Q 2709 -91 1959 -91 
Q 1206 -91 779 398 
Q 353 888 353 1747 
Q 353 2609 779 3096 
Q 1206 3584 1959 3584 
z
" transform="scale(0.015625)"/>
      <path id="DejaVuSans-6e" d="M 3513 2113 
L 3513 0 
L 2938 0 
L 2938 2094 
Q 2938 2591 2744 2837 
Q 2550 3084 2163 3084 
Q 1697 3084 1428 2787 
Q 1159 2491 1159 1978 
L 1159 0 
L 581 0 
L 581 3500 
L 1159 3500 
L 1159 2956 
Q 1366 3272 1645 3428 
Q 1925 3584 2291 3584 
Q 2894 3584 3203 3211 
Q 3513 2838 3513 2113 
z
" transform="scale(0.015625)"/>
      <path id="DejaVuSans-2d" d="M 313 2009 
L 1997 2009 
L 1997 1497 
L 313 1497 
L 313 2009 
z
" transform="scale(0.015625)"/>
      <path id="DejaVuSans-67" d="M 2906 1791 
Q 2906 2416 2648 2759 
Q 2391 3103 1925 3103 
Q 1463 3103 1205 2759 
Q 947 2416 947 1791 
Q 947 1169 1205 825 
Q 1463 481 1925 481 
Q 2391 481 2648 825 
Q 2906 1169 2906 1791 
z
M 3481 434 
Q 3481 -459 3084 -895 
Q 2688 -1331 1869 -1331 
Q 1566 -1331 1297 -1286 
Q 1028 -1241 775 -1147 
L 775 -588 
Q 1028 -725 1275 -790 
Q 1522 -856 1778 -856 
Q 2344 -856 2625 -561 
Q 2906 -266 2906 331 
L 2906 616 
Q 2728 306 2450 153 
Q 2172 0 1784 0 
Q 1141 0 747 490 
Q 353 981 353 1791 
Q 353 2603 747 3093 
Q 1141 3584 1784 3584 
Q 2172 3584 2450 3431 
Q 2728 3278 2906 2969 
L 2906 3500 
L 3481 3500 
L 3481 434 
z
" transform="scale(0.015625)"/>
      <path id="DejaVuSans-75" d="M 544 1381 
L 544 3500 
L 1119 3500 
L 1119 1403 
Q 1119 906 1312 657 
Q 1506 409 1894 409 
Q 2359 409 2629 706 
Q 2900 1003 2900 1516 
L 2900 3500 
L 3475 3500 
L 3475 0 
L 2900 0 
L 2900 538 
Q 2691 219 2414 64 
Q 2138 -91 1772 -91 
Q 1169 -91 856 284 
Q 544 659 544 1381 
z
M 1991 3584 
L 1991 3584 
z
" transform="scale(0.015625)"/>
      <path id="DejaVuSans-6d" d="M 3328 2828 
Q 3544 3216 3844 3400 
Q 4144 3584 4550 3584 
Q 5097 3584 5394 3201 
Q 5691 2819 5691 2113 
L 5691 0 
L 5113 0 
L 5113 2094 
Q 5113 2597 4934 2840 
Q 4756 3084 4391 3084 
Q 3944 3084 3684 2787 
Q 3425 2491 3425 1978 
L 3425 0 
L 2847 0 
L 2847 2094 
Q 2847 2600 2669 2842 
Q 2491 3084 2119 3084 
Q 1678 3084 1418 2786 
Q 1159 2488 1159 1978 
L 1159 0 
L 581 0 
L 581 3500 
L 1159 3500 
L 1159 2956 
Q 1356 3278 1631 3431 
Q 1906 3584 2284 3584 
Q 2666 3584 2933 3390 
Q 3200 3197 3328 2828 
z
" transform="scale(0.015625)"/>
      <path id="DejaVuSans-62" d="M 3116 1747 
Q 3116 2381 2855 2742 
Q 2594 3103 2138 3103 
Q 1681 3103 1420 2742 
Q 1159 2381 1159 1747 
Q 1159 1113 1420 752 
Q 1681 391 2138 391 
Q 2594 391 2855 752 
Q 3116 1113 3116 1747 
z
M 1159 2969 
Q 1341 3281 1617 3432 
Q 1894 3584 2278 3584 
Q 2916 3584 3314 3078 
Q 3713 2572 3713 1747 
Q 3713 922 3314 415 
Q 2916 -91 2278 -91 
Q 1894 -91 1617 61 
Q 1341 213 1159 525 
L 1159 0 
L 581 0 
L 581 4863 
L 1159 4863 
L 1159 2969 
z
" transform="scale(0.015625)"/>
      <path id="DejaVuSans-65" d="M 3597 1894 
L 3597 1613 
L 953 1613 
Q 991 1019 1311 708 
Q 1631 397 2203 397 
Q 2534 397 2845 478 
Q 3156 559 3463 722 
L 3463 178 
Q 3153 47 2828 -22 
Q 2503 -91 2169 -91 
Q 1331 -91 842 396 
Q 353 884 353 1716 
Q 353 2575 817 3079 
Q 1281 3584 2069 3584 
Q 2775 3584 3186 3129 
Q 3597 2675 3597 1894 
z
M 3022 2063 
Q 3016 2534 2758 2815 
Q 2500 3097 2075 3097 
Q 1594 3097 1305 2825 
Q 1016 2553 972 2059 
L 3022 2063 
z
" transform="scale(0.015625)"/>
      <path id="DejaVuSans-20" transform="scale(0.015625)"/>
      <path id="DejaVuSans-69" d="M 603 3500 
L 1178 3500 
L 1178 0 
L 603 0 
L 603 3500 
z
M 603 4863 
L 1178 4863 
L 1178 4134 
L 603 4134 
L 603 4863 
z
" transform="scale(0.015625)"/>
      <path id="DejaVuSans-78" d="M 3513 3500 
L 2247 1797 
L 3578 0 
L 2900 0 
L 1881 1375 
L 863 0 
L 184 0 
L 1544 1831 
L 300 3500 
L 978 3500 
L 1906 2253 
L 2834 3500 
L 3513 3500 
z
" transform="scale(0.015625)"/>
      <path id="DejaVuSans-72" d="M 2631 2963 
Q 2534 3019 2420 3045 
Q 2306 3072 2169 3072 
Q 1681 3072 1420 2755 
Q 1159 2438 1159 1844 
L 1159 0 
L 581 0 
L 581 3500 
L 1159 3500 
L 1159 2956 
Q 1341 3275 1631 3429 
Q 1922 3584 2338 3584 
Q 2397 3584 2469 3576 
Q 2541 3569 2628 3553 
L 2631 2963 
z
" transform="scale(0.015625)"/>
      <path id="DejaVuSans-70" d="M 1159 525 
L 1159 -1331 
L 581 -1331 
L 581 3500 
L 1159 3500 
L 1159 2969 
Q 1341 3281 1617 3432 
Q 1894 3584 2278 3584 
Q 2916 3584 3314 3078 
Q 3713 2572 3713 1747 
Q 3713 922 3314 415 
Q 2916 -91 2278 -91 
Q 1894 -91 1617 61 
Q 1341 213 1159 525 
z
M 3116 1747 
Q 3116 2381 2855 2742 
Q 2594 3103 2138 3103 
Q 1681 3103 1420 2742 
Q 1159 2381 1159 1747 
Q 1159 1113 1420 752 
Q 1681 391 2138 391 
Q 2594 391 2855 752 
Q 3116 1113 3116 1747 
z
" transform="scale(0.015625)"/>
      <path id="DejaVuSans-50" d="M 1259 4147 
L 1259 2394 
L 2053 2394 
Q 2494 2394 2734 2622 
Q 2975 2850 2975 3272 
Q 2975 3691 2734 3919 
Q 2494 4147 2053 4147 
L 1259 4147 
z
M 628 4666 
L 2053 4666 
Q 2838 4666 3239 4311 
Q 3641 3956 3641 3272 
Q 3641 2581 3239 2228 
Q 2838 1875 2053 1875 
L 1259 1875 
L 1259 0 
L 628 0 
L 628 4666 
z
" transform="scale(0.015625)"/>
      <path id="DejaVuSans-44" d="M 1259 4147 
L 1259 519 
L 2022 519 
Q 2988 519 3436 956 
Q 3884 1394 3884 2338 
Q 3884 3275 3436 3711 
Q 2988 4147 2022 4147 
L 1259 4147 
z
M 628 4666 
L 1925 4666 
Q 3281 4666 3915 4102 
Q 4550 3538 4550 2338 
Q 4550 1131 3912 565 
Q 3275 0 1925 0 
L 628 0 
L 628 4666 
z
" transform="scale(0.015625)"/>
      <path id="DejaVuSans-46" d="M 628 4666 
L 3309 4666 
L 3309 4134 
L 1259 4134 
L 1259 2759 
L 3109 2759 
L 3109 2228 
L 1259 2228 
L 1259 0 
L 628 0 
L 628 4666 
z
" transform="scale(0.015625)"/>
     </defs>
     <use xlink:href="#DejaVuSans-43"/>
     <use xlink:href="#DejaVuSans-6c" x="69.824219"/>
     <use xlink:href="#DejaVuSans-61" x="97.607422"/>
     <use xlink:href="#DejaVuSans-79" x="158.886719"/>
     <use xlink:href="#DejaVuSans-74" x="218.066406"/>
     <use xlink:href="#DejaVuSans-6f" x="257.275391"/>
     <use xlink:href="#DejaVuSans-6e" x="318.457031"/>
     <use xlink:href="#DejaVuSans-2d" x="381.835938"/>
     <use xlink:href="#DejaVuSans-67" x="417.919922"/>
     <use xlink:href="#DejaVuSans-75" x="481.396484"/>
     <use xlink:href="#DejaVuSans-6d" x="544.775391"/>
     <use xlink:href="#DejaVuSans-62" x="642.1875"/>
     <use xlink:href="#DejaVuSans-65" x="705.664062"/>
     <use xlink:href="#DejaVuSans-6c" x="767.1875"/>
     <use xlink:href="#DejaVuSans-20" x="794.970703"/>
     <use xlink:href="#DejaVuSans-6d" x="826.757812"/>
     <use xlink:href="#DejaVuSans-69" x="924.169922"/>
     <use xlink:href="#DejaVuSans-78" x="951.953125"/>
     <use xlink:href="#DejaVuSans-74" x="1011.132812"/>
     <use xlink:href="#DejaVuSans-75" x="1050.341797"/>
     <use xlink:href="#DejaVuSans-72" x="1113.720703"/>
     <use xlink:href="#DejaVuSans-65" x="1152.583984"/>
     <use xlink:href="#DejaVuSans-20" x="1214.107422"/>
     <use xlink:href="#DejaVuSans-43" x="1245.894531"/>
     <use xlink:href="#DejaVuSans-6f" x="1315.71875"/>
     <use xlink:href="#DejaVuSans-70" x="1376.900391"/>
     <use xlink:href="#DejaVuSans-75" x="1440.376953"/>
     <use xlink:href="#DejaVuSans-6c" x="1503.755859"/>
     <use xlink:href="#DejaVuSans-61" x="1531.539062"/>
     <use xlink:href="#DejaVuSans-20" x="1592.818359"/>
     <use xlink:href="#DejaVuSans-50" x="1624.605469"/>
     <use xlink:href="#DejaVuSans-44" x="1684.908203"/>
     <use xlink:href="#DejaVuSans-46" x="1761.910156"/>
    </g>
   </g>
   <g id="text_16">
    <g clip-path="url(#p9f08c704f2)">
     <!-- 0.04 -->
     <g transform="translate(225.439278 127.55023)rotate(-25.614482)scale(0.08 -0.08)">
      <defs>
       <path id="DejaVuSans-2e" d="M 684 794 
L 1344 794 
L 1344 0 
L 684 0 
L 684 794 
z
" transform="scale(0.015625)"/>
       <path id="DejaVuSans-34" d="M 2419 4116 
L 825 1625 
L 2419 1625 
L 2419 4116 
z
M 2253 4666 
L 3047 4666 
L 3047 1625 
L 3713 1625 
L 3713 1100 
L 3047 1100 
L 3047 0 
L 2419 0 
L 2419 1100 
L 313 1100 
L 313 1709 
L 2253 4666 
z
" transform="scale(0.015625)"/>
      </defs>
      <use xlink:href="#DejaVuSans-30"/>
      <use xlink:href="#DejaVuSans-2e" x="63.623047"/>
      <use xlink:href="#DejaVuSans-30" x="95.410156"/>
      <use xlink:href="#DejaVuSans-34" x="159.033203"/>
     </g>
    </g>
   </g>
   <g id="text_17">
    <g clip-path="url(#p9f08c704f2)">
     <!-- 0.08 -->
     <g transform="translate(303.91545 164.090761)rotate(-55.157135)scale(0.08 -0.08)">
      <defs>
       <path id="DejaVuSans-38" d="M 2034 2216 
Q 1584 2216 1326 1975 
Q 1069 1734 1069 1313 
Q 1069 891 1326 650 
Q 1584 409 2034 409 
Q 2484 409 2743 651 
Q 3003 894 3003 1313 
Q 3003 1734 2745 1975 
Q 2488 2216 2034 2216 
z
M 1403 2484 
Q 997 2584 770 2862 
Q 544 3141 544 3541 
Q 544 4100 942 4425 
Q 1341 4750 2034 4750 
Q 2731 4750 3128 4425 
Q 3525 4100 3525 3541 
Q 3525 3141 3298 2862 
Q 3072 2584 2669 2484 
Q 3125 2378 3379 2068 
Q 3634 1759 3634 1313 
Q 3634 634 3220 271 
Q 2806 -91 2034 -91 
Q 1263 -91 848 271 
Q 434 634 434 1313 
Q 434 1759 690 2068 
Q 947 2378 1403 2484 
z
M 1172 3481 
Q 1172 3119 1398 2916 
Q 1625 2713 2034 2713 
Q 2441 2713 2670 2916 
Q 2900 3119 2900 3481 
Q 2900 3844 2670 4047 
Q 2441 4250 2034 4250 
Q 1625 4250 1398 4047 
Q 1172 3844 1172 3481 
z
" transform="scale(0.015625)"/>
      </defs>
      <use xlink:href="#DejaVuSans-30"/>
      <use xlink:href="#DejaVuSans-2e" x="63.623047"/>
      <use xlink:href="#DejaVuSans-30" x="95.410156"/>
      <use xlink:href="#DejaVuSans-38" x="159.033203"/>
     </g>
    </g>
   </g>
   <g id="text_18">
    <g clip-path="url(#p9f08c704f2)">
     <!-- 0.12 -->
     <g transform="translate(197.841841 170.501973)rotate(-39.08454)scale(0.08 -0.08)">
      <use xlink:href="#DejaVuSans-30"/>
      <use xlink:href="#DejaVuSans-2e" x="63.623047"/>
      <use xlink:href="#DejaVuSans-31" x="95.410156"/>
      <use xlink:href="#DejaVuSans-32" x="159.033203"/>
     </g>
    </g>
   </g>
   <g id="text_19">
    <g clip-path="url(#p9f08c704f2)">
     <!-- 0.16 -->
     <g transform="translate(240.947574 199.952822)rotate(-34.03807)scale(0.08 -0.08)">
      <defs>
       <path id="DejaVuSans-36" d="M 2113 2584 
Q 1688 2584 1439 2293 
Q 1191 2003 1191 1497 
Q 1191 994 1439 701 
Q 1688 409 2113 409 
Q 2538 409 2786 701 
Q 3034 994 3034 1497 
Q 3034 2003 2786 2293 
Q 2538 2584 2113 2584 
z
M 3366 4563 
L 3366 3988 
Q 3128 4100 2886 4159 
Q 2644 4219 2406 4219 
Q 1781 4219 1451 3797 
Q 1122 3375 1075 2522 
Q 1259 2794 1537 2939 
Q 1816 3084 2150 3084 
Q 2853 3084 3261 2657 
Q 3669 2231 3669 1497 
Q 3669 778 3244 343 
Q 2819 -91 2113 -91 
Q 1303 -91 875 529 
Q 447 1150 447 2328 
Q 447 3434 972 4092 
Q 1497 4750 2381 4750 
Q 2619 4750 2861 4703 
Q 3103 4656 3366 4563 
z
" transform="scale(0.015625)"/>
      </defs>
      <use xlink:href="#DejaVuSans-30"/>
      <use xlink:href="#DejaVuSans-2e" x="63.623047"/>
      <use xlink:href="#DejaVuSans-31" x="95.410156"/>
      <use xlink:href="#DejaVuSans-36" x="159.033203"/>
     </g>
    </g>
   </g>
   <g id="text_20">
    <g clip-path="url(#p9f08c704f2)">
     <!-- 0.20 -->
     <g transform="translate(250.452411 184.748209)rotate(-40.953665)scale(0.08 -0.08)">
      <use xlink:href="#DejaVuSans-30"/>
      <use xlink:href="#DejaVuSans-2e" x="63.623047"/>
      <use xlink:href="#DejaVuSans-32" x="95.410156"/>
      <use xlink:href="#DejaVuSans-30" x="159.033203"/>
     </g>
    </g>
   </g>
  </g>
 </g>
 <defs>
  <clipPath id="p9f08c704f2">
   <rect x="57.6" y="41.472" width="357.12" height="266.112"/>
  </clipPath>
 </defs>
</svg>
