<?xml version="1.0" encoding="utf-8" standalone="no"?>
<!DOCTYPE svg PUBLIC "-//W3C//DTD SVG 1.1//EN"
  "http://www.w3.org/Graphics/SVG/1.1/DTD/svg11.dtd">
<svg xmlns:xlink="http://www.w3.org/1999/xlink" width="460.8pt" height="345.6pt" viewBox="0 0 460.8 345.6" xmlns="http://www.w3.org/2000/svg" version="1.1">
 <metadata>
  <rdf:RDF xmlns:dc="http://purl.org/dc/elements/1.1/" xmlns:cc="http://creativecommons.org/ns#" xmlns:rdf="http://www.w3.org/1999/02/22-rdf-syntax-ns#">
   <cc:Work>
    <dc:type rdf:resource="http://purl.org/dc/dcmitype/StillImage"/>
    <dc:date>2022-04-25T16:12:54.173041</dc:date>
    <dc:format>image/svg+xml</dc:format>
    <dc:creator>
     <cc:Agent>
      <dc:title>Matplotlib v3.5.1, https://matplotlib.org/</dc:title>
     </cc:Agent>
    </dc:creator>
   </cc:Work>
  </rdf:RDF>
 </metadata>
 <defs>
  <style type="text/css">*{stroke-linejoin: round; stroke-linecap: butt}</style>
 </defs>
 <g id="figure_1">
  <g id="patch_1">
   <path d="M 0 345.6 
L 460.8 345.6 
L 460.8 0 
L 0 0 
z
" style="fill: #ffffff"/>
  </g>
  <g id="axes_1">
   <g id="patch_2">
    <path d="M 57.6 307.584 
L 414.72 307.584 
L 414.72 41.472 
L 57.6 41.472 
z
" style="fill: #ffffff"/>
   </g>
   <g id="matplotlib.axis_1">
    <g id="xtick_1">
     <g id="line2d_1">
      <defs>
       <path id="m99fea78ccd" d="M 0 0 
L 0 3.5 
" style="stroke: #000000; stroke-width: 0.8"/>
      </defs>
      <g>
       <use xlink:href="#m99fea78ccd" x="57.6" y="307.584" style="stroke: #000000; stroke-width: 0.8"/>
      </g>
     </g>
     <g id="text_1">
      <!-- −3 -->
      <g transform="translate(50.228906 322.182437)scale(0.1 -0.1)">
       <defs>
        <path id="DejaVuSans-2212" d="M 678 2272 
L 4684 2272 
L 4684 1741 
L 678 1741 
L 678 2272 
z
" transform="scale(0.015625)"/>
        <path id="DejaVuSans-33" d="M 2597 2516 
Q 3050 2419 3304 2112 
Q 3559 1806 3559 1356 
Q 3559 666 3084 287 
Q 2609 -91 1734 -91 
Q 1441 -91 1130 -33 
Q 819 25 488 141 
L 488 750 
Q 750 597 1062 519 
Q 1375 441 1716 441 
Q 2309 441 2620 675 
Q 2931 909 2931 1356 
Q 2931 1769 2642 2001 
Q 2353 2234 1838 2234 
L 1294 2234 
L 1294 2753 
L 1863 2753 
Q 2328 2753 2575 2939 
Q 2822 3125 2822 3475 
Q 2822 3834 2567 4026 
Q 2313 4219 1838 4219 
Q 1578 4219 1281 4162 
Q 984 4106 628 3988 
L 628 4550 
Q 988 4650 1302 4700 
Q 1616 4750 1894 4750 
Q 2613 4750 3031 4423 
Q 3450 4097 3450 3541 
Q 3450 3153 3228 2886 
Q 3006 2619 2597 2516 
z
" transform="scale(0.015625)"/>
       </defs>
       <use xlink:href="#DejaVuSans-2212"/>
       <use xlink:href="#DejaVuSans-33" x="83.789062"/>
      </g>
     </g>
    </g>
    <g id="xtick_2">
     <g id="line2d_2">
      <g>
       <use xlink:href="#m99fea78ccd" x="117.12" y="307.584" style="stroke: #000000; stroke-width: 0.8"/>
      </g>
     </g>
     <g id="text_2">
      <!-- −2 -->
      <g transform="translate(109.748906 322.182437)scale(0.1 -0.1)">
       <defs>
        <path id="DejaVuSans-32" d="M 1228 531 
L 3431 531 
L 3431 0 
L 469 0 
L 469 531 
Q 828 903 1448 1529 
Q 2069 2156 2228 2338 
Q 2531 2678 2651 2914 
Q 2772 3150 2772 3378 
Q 2772 3750 2511 3984 
Q 2250 4219 1831 4219 
Q 1534 4219 1204 4116 
Q 875 4013 500 3803 
L 500 4441 
Q 881 4594 1212 4672 
Q 1544 4750 1819 4750 
Q 2544 4750 2975 4387 
Q 3406 4025 3406 3419 
Q 3406 3131 3298 2873 
Q 3191 2616 2906 2266 
Q 2828 2175 2409 1742 
Q 1991 1309 1228 531 
z
" transform="scale(0.015625)"/>
       </defs>
       <use xlink:href="#DejaVuSans-2212"/>
       <use xlink:href="#DejaVuSans-32" x="83.789062"/>
      </g>
     </g>
    </g>
    <g id="xtick_3">
     <g id="line2d_3">
      <g>
       <use xlink:href="#m99fea78ccd" x="176.64" y="307.584" style="stroke: #000000; stroke-width: 0.8"/>
      </g>
     </g>
     <g id="text_3">
      <!-- −1 -->
      <g transform="translate(169.268906 322.182437)scale(0.1 -0.1)">
       <defs>
        <path id="DejaVuSans-31" d="M 794 531 
L 1825 531 
L 1825 4091 
L 703 3866 
L 703 4441 
L 1819 4666 
L 2450 4666 
L 2450 531 
L 3481 531 
L 3481 0 
L 794 0 
L 794 531 
z
" transform="scale(0.015625)"/>
       </defs>
       <use xlink:href="#DejaVuSans-2212"/>
       <use xlink:href="#DejaVuSans-31" x="83.789062"/>
      </g>
     </g>
    </g>
    <g id="xtick_4">
     <g id="line2d_4">
      <g>
       <use xlink:href="#m99fea78ccd" x="236.16" y="307.584" style="stroke: #000000; stroke-width: 0.8"/>
      </g>
     </g>
     <g id="text_4">
      <!-- 0 -->
      <g transform="translate(232.97875 322.182437)scale(0.1 -0.1)">
       <defs>
        <path id="DejaVuSans-30" d="M 2034 4250 
Q 1547 4250 1301 3770 
Q 1056 3291 1056 2328 
Q 1056 1369 1301 889 
Q 1547 409 2034 409 
Q 2525 409 2770 889 
Q 3016 1369 3016 2328 
Q 3016 3291 2770 3770 
Q 2525 4250 2034 4250 
z
M 2034 4750 
Q 2819 4750 3233 4129 
Q 3647 3509 3647 2328 
Q 3647 1150 3233 529 
Q 2819 -91 2034 -91 
Q 1250 -91 836 529 
Q 422 1150 422 2328 
Q 422 3509 836 4129 
Q 1250 4750 2034 4750 
z
" transform="scale(0.015625)"/>
       </defs>
       <use xlink:href="#DejaVuSans-30"/>
      </g>
     </g>
    </g>
    <g id="xtick_5">
     <g id="line2d_5">
      <g>
       <use xlink:href="#m99fea78ccd" x="295.68" y="307.584" style="stroke: #000000; stroke-width: 0.8"/>
      </g>
     </g>
     <g id="text_5">
      <!-- 1 -->
      <g transform="translate(292.49875 322.182437)scale(0.1 -0.1)">
       <use xlink:href="#DejaVuSans-31"/>
      </g>
     </g>
    </g>
    <g id="xtick_6">
     <g id="line2d_6">
      <g>
       <use xlink:href="#m99fea78ccd" x="355.2" y="307.584" style="stroke: #000000; stroke-width: 0.8"/>
      </g>
     </g>
     <g id="text_6">
      <!-- 2 -->
      <g transform="translate(352.01875 322.182437)scale(0.1 -0.1)">
       <use xlink:href="#DejaVuSans-32"/>
      </g>
     </g>
    </g>
    <g id="xtick_7">
     <g id="line2d_7">
      <g>
       <use xlink:href="#m99fea78ccd" x="414.72" y="307.584" style="stroke: #000000; stroke-width: 0.8"/>
      </g>
     </g>
     <g id="text_7">
      <!-- 3 -->
      <g transform="translate(411.53875 322.182437)scale(0.1 -0.1)">
       <use xlink:href="#DejaVuSans-33"/>
      </g>
     </g>
    </g>
   </g>
   <g id="matplotlib.axis_2">
    <g id="ytick_1">
     <g id="line2d_8">
      <defs>
       <path id="m636437170f" d="M 0 0 
L -3.5 0 
" style="stroke: #000000; stroke-width: 0.8"/>
      </defs>
      <g>
       <use xlink:href="#m636437170f" x="57.6" y="307.584" style="stroke: #000000; stroke-width: 0.8"/>
      </g>
     </g>
     <g id="text_8">
      <!-- −3 -->
      <g transform="translate(35.857813 311.383219)scale(0.1 -0.1)">
       <use xlink:href="#DejaVuSans-2212"/>
       <use xlink:href="#DejaVuSans-33" x="83.789062"/>
      </g>
     </g>
    </g>
    <g id="ytick_2">
     <g id="line2d_9">
      <g>
       <use xlink:href="#m636437170f" x="57.6" y="263.232" style="stroke: #000000; stroke-width: 0.8"/>
      </g>
     </g>
     <g id="text_9">
      <!-- −2 -->
      <g transform="translate(35.857813 267.031219)scale(0.1 -0.1)">
       <use xlink:href="#DejaVuSans-2212"/>
       <use xlink:href="#DejaVuSans-32" x="83.789062"/>
      </g>
     </g>
    </g>
    <g id="ytick_3">
     <g id="line2d_10">
      <g>
       <use xlink:href="#m636437170f" x="57.6" y="218.88" style="stroke: #000000; stroke-width: 0.8"/>
      </g>
     </g>
     <g id="text_10">
      <!-- −1 -->
      <g transform="translate(35.857813 222.679219)scale(0.1 -0.1)">
       <use xlink:href="#DejaVuSans-2212"/>
       <use xlink:href="#DejaVuSans-31" x="83.789062"/>
      </g>
     </g>
    </g>
    <g id="ytick_4">
     <g id="line2d_11">
      <g>
       <use xlink:href="#m636437170f" x="57.6" y="174.528" style="stroke: #000000; stroke-width: 0.8"/>
      </g>
     </g>
     <g id="text_11">
      <!-- 0 -->
      <g transform="translate(44.2375 178.327219)scale(0.1 -0.1)">
       <use xlink:href="#DejaVuSans-30"/>
      </g>
     </g>
    </g>
    <g id="ytick_5">
     <g id="line2d_12">
      <g>
       <use xlink:href="#m636437170f" x="57.6" y="130.176" style="stroke: #000000; stroke-width: 0.8"/>
      </g>
     </g>
     <g id="text_12">
      <!-- 1 -->
      <g transform="translate(44.2375 133.975219)scale(0.1 -0.1)">
       <use xlink:href="#DejaVuSans-31"/>
      </g>
     </g>
    </g>
    <g id="ytick_6">
     <g id="line2d_13">
      <g>
       <use xlink:href="#m636437170f" x="57.6" y="85.824" style="stroke: #000000; stroke-width: 0.8"/>
      </g>
     </g>
     <g id="text_13">
      <!-- 2 -->
      <g transform="translate(44.2375 89.623219)scale(0.1 -0.1)">
       <use xlink:href="#DejaVuSans-32"/>
      </g>
     </g>
    </g>
    <g id="ytick_7">
     <g id="line2d_14">
      <g>
       <use xlink:href="#m636437170f" x="57.6" y="41.472" style="stroke: #000000; stroke-width: 0.8"/>
      </g>
     </g>
     <g id="text_14">
      <!-- 3 -->
      <g transform="translate(44.2375 45.271219)scale(0.1 -0.1)">
       <use xlink:href="#DejaVuSans-33"/>
      </g>
     </g>
    </g>
   </g>
   <g id="PathCollection_1"/>
   <g id="PathCollection_2">
    <path d="M 197.719398 250.867198 
L 203.363265 249.478256 
L 217.939592 245.211993 
L 232.515918 239.812353 
L 247.092245 233.261994 
L 250.366625 231.552 
L 254.380408 229.597285 
L 268.956735 221.338144 
L 283.533061 212.177597 
L 290.821224 207.142952 
L 298.109388 201.797084 
L 301.831762 198.966857 
L 308.558761 193.536 
L 314.759127 188.105143 
L 320.343225 182.674286 
L 325.588474 177.243429 
L 327.262041 175.169525 
L 330.181226 171.812571 
L 334.550204 165.426523 
L 337.465356 160.950857 
L 340.173872 155.52 
L 342.268438 150.089143 
L 344.102949 144.658286 
L 345.418491 139.227429 
L 346.362437 133.796571 
L 347.673462 122.934857 
L 349.126531 110.165751 
L 349.630004 106.642286 
L 350.106704 101.211429 
L 349.600405 95.780571 
L 349.126531 94.839895 
L 343.100748 90.349714 
L 341.838367 89.996602 
L 334.550204 89.619327 
L 327.262041 89.974545 
L 319.973878 90.5181 
L 290.821224 92.40941 
L 283.533061 93.112802 
L 276.244898 94.093093 
L 267.631395 95.780571 
L 261.668571 97.020889 
L 254.380408 99.039171 
L 247.092245 101.625972 
L 239.804082 104.467022 
L 232.515918 107.889363 
L 224.76341 112.073143 
L 217.939592 115.958973 
L 207.229266 122.934857 
L 203.363265 125.591945 
L 196.075102 130.959941 
L 188.786939 136.676767 
L 185.634567 139.227429 
L 179.2775 144.658286 
L 173.341192 150.089143 
L 166.922449 156.313276 
L 162.257497 160.950857 
L 159.634286 163.941773 
L 157.339488 166.381714 
L 148.548963 177.243429 
L 141.302693 188.105143 
L 135.577405 198.966857 
L 133.170411 204.397714 
L 131.236109 209.828571 
L 130.481633 212.283651 
L 129.36924 215.259429 
L 127.523163 220.690286 
L 123.193469 234.665633 
L 122.27975 236.982857 
L 120.001569 242.413714 
L 115.740986 253.275429 
L 114.017067 258.706286 
L 114.693655 264.137143 
L 115.905306 265.040019 
L 123.193469 265.544185 
L 130.962425 264.137143 
L 145.057959 261.084766 
L 155.455817 258.706286 
L 166.922449 256.74111 
L 173.255248 255.645282 
L 173.255248 255.645282 
" clip-path="url(#pbfb2bea26d)" style="fill: none; stroke: #000000"/>
   </g>
   <g id="PathCollection_3">
    <path d="M 222.415268 229.718858 
L 225.227755 228.728988 
L 231.362225 226.121143 
L 232.515918 225.667859 
L 239.804082 222.493612 
L 243.406203 220.690286 
L 247.092245 218.937961 
L 253.865547 215.259429 
L 254.380408 214.987651 
L 261.668571 210.855574 
L 263.334793 209.828571 
L 268.956735 206.365702 
L 271.932983 204.397714 
L 276.244898 201.477414 
L 279.77895 198.966857 
L 283.533061 196.163261 
L 286.96288 193.536 
L 290.821224 190.34162 
L 293.512494 188.105143 
L 298.109388 183.851383 
L 299.4037 182.674286 
L 304.696349 177.243429 
L 305.397551 176.417911 
L 309.506452 171.812571 
L 312.685714 167.436338 
L 313.507471 166.381714 
L 317.094511 160.950857 
L 319.872544 155.52 
L 319.973878 155.279683 
L 322.410565 150.089143 
L 324.364226 144.658286 
L 325.865594 139.227429 
L 327.040699 133.796571 
L 327.262041 132.50665 
L 328.071156 128.365714 
L 328.790271 122.934857 
L 328.9829 117.504 
L 328.039039 112.073143 
L 327.262041 110.744093 
L 321.757451 106.642286 
L 319.973878 106.063297 
L 312.685714 105.359968 
L 305.397551 105.503508 
L 298.109388 106.039364 
L 292.552287 106.642286 
L 290.821224 106.807221 
L 283.533061 107.682864 
L 276.244898 108.801625 
L 268.956735 110.257418 
L 261.991075 112.073143 
L 261.668571 112.148653 
L 254.380408 114.218735 
L 247.092245 116.891659 
L 245.676949 117.504 
L 239.804082 119.873063 
L 233.623756 122.934857 
L 232.515918 123.457366 
L 225.227755 127.401243 
L 223.648101 128.365714 
L 217.939592 131.791141 
L 214.938259 133.796571 
L 210.651429 136.671661 
L 207.125666 139.227429 
L 203.363265 142.024847 
L 199.994119 144.658286 
L 196.075102 147.871358 
L 193.434079 150.089143 
L 188.786939 154.278396 
L 187.408711 155.52 
L 181.863498 160.950857 
L 181.498776 161.334512 
L 176.562217 166.381714 
L 174.210612 169.12841 
L 171.790564 171.812571 
L 167.530752 177.243429 
L 166.922449 178.103116 
L 163.422744 182.674286 
L 159.980389 188.105143 
L 159.634286 188.709164 
L 156.56463 193.536 
L 153.693676 198.966857 
L 152.346122 201.870241 
L 151.014892 204.397714 
L 148.444636 209.828571 
L 146.198725 215.259429 
L 145.057959 218.146355 
L 143.913966 220.690286 
L 141.618056 226.121143 
L 139.550503 231.552 
L 137.769796 236.604103 
L 137.6206 236.982857 
L 136.438073 242.413714 
L 137.769796 247.253648 
L 138.56281 247.844571 
L 145.057959 248.836919 
L 152.346122 247.955746 
L 152.854407 247.844571 
L 159.634286 246.517657 
L 166.922449 244.976997 
L 174.210612 243.266174 
L 177.624545 242.413714 
L 181.498776 241.56366 
L 188.786939 239.890094 
L 196.075102 237.974839 
L 198.655238 237.22025 
" clip-path="url(#pbfb2bea26d)" style="fill: none; stroke: #000000"/>
   </g>
   <g id="PathCollection_4">
    <path d="M 214.752992 144.69354 
L 210.651429 147.626752 
L 207.441543 150.089143 
L 203.363265 153.365244 
L 200.795584 155.52 
L 196.075102 159.764158 
L 194.778889 160.950857 
L 189.30576 166.381714 
L 188.786939 166.936407 
L 184.192046 171.812571 
L 181.498776 175.054456 
L 179.621326 177.243429 
L 175.484352 182.674286 
L 174.210612 184.541925 
L 171.646972 188.105143 
L 168.262376 193.536 
L 166.922449 195.932358 
L 165.101888 198.966857 
L 162.228181 204.397714 
L 159.675285 209.828571 
L 159.634286 209.922912 
L 157.159189 215.259429 
L 155.033659 220.690286 
L 153.297898 226.121143 
L 152.497084 231.552 
L 159.634286 236.870366 
L 166.922449 236.273631 
L 174.210612 234.980209 
L 181.498776 233.396346 
L 188.660335 231.552 
L 188.786939 231.521449 
L 196.075102 229.61913 
L 203.363265 227.477755 
L 207.435537 226.121143 
L 210.651429 225.122681 
L 217.939592 222.600611 
L 222.7214 220.690286 
L 225.227755 219.741144 
L 232.515918 216.658431 
L 235.453501 215.259429 
L 239.804082 213.252508 
L 246.347852 209.828571 
L 247.092245 209.441966 
L 254.380408 205.363602 
L 255.972949 204.397714 
L 261.668571 200.880194 
L 264.560235 198.966857 
L 268.956735 195.927882 
L 272.261242 193.536 
L 276.244898 190.44294 
L 279.183949 188.105143 
L 283.533061 184.28999 
L 285.369321 182.674286 
L 290.805176 177.243429 
L 290.821224 177.225394 
L 295.759481 171.812571 
L 298.109388 168.719863 
L 299.966942 166.381714 
L 303.563258 160.950857 
L 305.397551 157.54741 
L 306.566996 155.52 
L 309.095368 150.089143 
L 311.045452 144.658286 
L 312.526934 139.227429 
L 312.685714 138.335556 
L 313.561543 133.796571 
L 313.839705 128.365714 
L 312.742568 122.934857 
L 312.685714 122.840597 
L 305.524048 117.504 
L 305.397551 117.461635 
L 298.109388 116.644091 
L 290.821224 116.851366 
L 284.729946 117.504 
L 283.533061 117.622317 
L 276.244898 118.72626 
L 268.956735 120.179387 
L 261.668571 122.063432 
L 258.947805 122.934857 
L 254.380408 124.301701 
L 247.092245 126.981537 
L 243.95447 128.365714 
L 239.804082 130.116774 
L 236.237612 131.923486 
" clip-path="url(#pbfb2bea26d)" style="fill: none; stroke: #000000"/>
   </g>
   <g id="PathCollection_5">
    <path d="M 243.664576 203.65266 
L 247.092245 201.766941 
L 251.764341 198.966857 
L 254.380408 197.331479 
L 260.06865 193.536 
L 261.668571 192.395542 
L 267.419244 188.105143 
L 268.956735 186.849435 
L 273.934766 182.674286 
L 276.244898 180.498709 
L 279.674166 177.243429 
L 283.533061 173.018061 
L 284.645648 171.812571 
L 288.950737 166.381714 
L 290.821224 163.555827 
L 292.597558 160.950857 
L 295.586779 155.52 
L 297.940918 150.089143 
L 298.109388 149.534587 
L 299.651355 144.658286 
L 300.483386 139.227429 
L 299.945437 133.796571 
L 298.109388 130.639729 
L 295.05768 128.365714 
L 290.821224 126.997561 
L 283.533061 126.596703 
L 276.244898 127.2167 
L 269.700945 128.365714 
L 268.956735 128.491252 
L 261.668571 130.245465 
L 254.380408 132.472916 
L 250.884561 133.796571 
L 247.092245 135.190386 
L 239.804082 138.398372 
L 238.186325 139.227429 
L 232.515918 142.102928 
L 228.14736 144.658286 
L 225.227755 146.379707 
L 219.62474 150.089143 
L 217.939592 151.234821 
L 212.181913 155.52 
L 210.651429 156.7122 
L 205.557929 160.950857 
L 203.363265 162.900249 
L 199.605578 166.381714 
L 196.075102 169.945039 
L 194.258571 171.812571 
L 189.466592 177.243429 
L 188.786939 178.082046 
L 185.064975 182.674286 
L 181.498776 187.670774 
L 181.18151 188.105143 
L 177.608296 193.536 
L 174.46547 198.966857 
L 174.210612 199.463058 
L 171.620731 204.397714 
L 169.233689 209.828571 
L 167.272175 215.259429 
L 166.922449 217.632005 
L 166.463549 220.690286 
L 166.922449 222.100146 
L 172.318592 226.121143 
L 174.210612 226.463097 
L 178.314798 226.121143 
L 181.498776 225.860541 
L 188.786939 224.398896 
L 196.075102 222.620165 
L 202.697367 220.690286 
L 203.363265 220.500375 
L 210.651429 218.158463 
L 217.939592 215.495843 
L 218.522511 215.259429 
L 221.027763 214.266558 
" clip-path="url(#pbfb2bea26d)" style="fill: none; stroke: #000000"/>
   </g>
   <g id="PathCollection_6">
    <path d="M 201.058003 214.297258 
L 203.363265 213.725775 
L 210.651429 211.547939 
L 215.504522 209.828571 
L 217.939592 208.948486 
L 225.227755 205.97982 
L 228.689742 204.397714 
L 232.515918 202.596199 
L 239.538071 198.966857 
L 239.804082 198.822216 
L 247.092245 194.539788 
L 248.680853 193.536 
L 254.380408 189.684566 
L 256.590617 188.105143 
L 261.668571 184.136115 
L 263.467252 182.674286 
L 268.956735 177.680078 
L 269.426153 177.243429 
L 274.521186 171.812571 
L 276.244898 169.657592 
L 278.84728 166.381714 
L 282.379918 160.950857 
L 283.533061 158.660844 
L 285.120758 155.52 
L 286.864916 150.089143 
L 287.293189 144.658286 
L 284.91334 139.227429 
L 283.533061 138.198898 
L 276.244898 136.425527 
L 268.956735 136.744659 
L 261.668571 138.044338 
L 257.453587 139.227429 
L 254.380408 140.086706 
L 247.092245 142.719091 
L 242.696045 144.658286 
L 239.804082 145.942729 
L 232.515918 149.739351 
L 231.929939 150.089143 
L 225.227755 154.179693 
L 223.265993 155.52 
L 217.939592 159.303895 
L 215.820019 160.950857 
L 210.651429 165.197945 
L 209.304354 166.381714 
L 203.557372 171.812571 
L 203.363265 172.010792 
L 198.49272 177.243429 
L 196.075102 180.094547 
L 193.951929 182.674286 
L 189.968005 188.105143 
L 188.786939 189.919663 
L 186.479562 193.536 
L 183.556926 198.966857 
L 181.498776 203.576786 
L 181.136834 204.397714 
L 180.061491 209.828571 
L 180.063041 209.833522 
" clip-path="url(#pbfb2bea26d)" style="fill: none; stroke: #000000"/>
   </g>
   <g id="PathCollection_7">
    <path d="M 196.640039 193.069499 
L 196.364903 193.536 
L 196.075102 194.458642 
L 194.751381 198.966857 
L 196.075102 204.232051 
L 196.297421 204.397714 
L 203.363265 205.3841 
L 209.413251 204.397714 
L 210.651429 204.181766 
L 217.939592 201.794981 
L 225.227755 199.056764 
L 225.42351 198.966857 
L 232.515918 195.507786 
L 236.21332 193.536 
L 239.804082 191.461546 
L 245.167016 188.105143 
L 247.092245 186.773111 
L 252.621109 182.674286 
L 254.380408 181.201878 
L 258.849668 177.243429 
L 261.668571 174.361903 
L 264.057495 171.812571 
L 268.278296 166.381714 
L 268.956735 165.181478 
L 271.254267 160.950857 
L 272.807157 155.52 
L 271.628893 150.089143 
L 268.956735 148.097954 
L 261.668571 147.219957 
L 254.380408 148.377111 
L 248.702952 150.089143 
L 247.092245 150.594689 
L 239.804082 153.739866 
L 236.3829 155.52 
L 232.515918 157.620537 
L 227.203714 160.950857 
L 225.227755 162.261819 
L 219.727168 166.381714 
L 217.939592 167.816321 
L 213.435327 171.812571 
L 211.845198 173.340897 
" clip-path="url(#pbfb2bea26d)" style="fill: none; stroke: #000000"/>
   </g>
   <g id="PathCollection_8">
    <path d="M 235.342948 166.408735 
L 232.515918 167.951845 
L 226.929628 171.812571 
L 225.227755 173.185521 
L 221.05985 177.243429 
L 217.939592 180.875434 
L 216.609997 182.674286 
L 215.375437 188.105143 
L 217.939592 190.015852 
L 225.227755 189.095905 
L 227.641799 188.105143 
L 232.515918 185.780047 
L 237.961596 182.674286 
L 239.804082 181.406116 
L 244.985144 177.243429 
L 247.092245 175.099948 
L 249.928731 171.812571 
L 250.137465 171.393508 
" clip-path="url(#pbfb2bea26d)" style="fill: none; stroke: #000000"/>
   </g>
   <g id="PathCollection_9"/>
   <g id="patch_3">
    <path d="M 57.6 307.584 
L 57.6 41.472 
" style="fill: none; stroke: #000000; stroke-width: 0.8; stroke-linejoin: miter; stroke-linecap: square"/>
   </g>
   <g id="patch_4">
    <path d="M 414.72 307.584 
L 414.72 41.472 
" style="fill: none; stroke: #000000; stroke-width: 0.8; stroke-linejoin: miter; stroke-linecap: square"/>
   </g>
   <g id="patch_5">
    <path d="M 57.6 307.584 
L 414.72 307.584 
" style="fill: none; stroke: #000000; stroke-width: 0.8; stroke-linejoin: miter; stroke-linecap: square"/>
   </g>
   <g id="patch_6">
    <path d="M 57.6 41.472 
L 414.72 41.472 
" style="fill: none; stroke: #000000; stroke-width: 0.8; stroke-linejoin: miter; stroke-linecap: square"/>
   </g>
   <g id="text_15">
    <!-- Clayton-gaussian-gumbel mixture Copula PDF -->
    <g transform="translate(98.144062 35.472)scale(0.12 -0.12)">
     <defs>
      <path id="DejaVuSans-43" d="M 4122 4306 
L 4122 3641 
Q 3803 3938 3442 4084 
Q 3081 4231 2675 4231 
Q 1875 4231 1450 3742 
Q 1025 3253 1025 2328 
Q 1025 1406 1450 917 
Q 1875 428 2675 428 
Q 3081 428 3442 575 
Q 3803 722 4122 1019 
L 4122 359 
Q 3791 134 3420 21 
Q 3050 -91 2638 -91 
Q 1578 -91 968 557 
Q 359 1206 359 2328 
Q 359 3453 968 4101 
Q 1578 4750 2638 4750 
Q 3056 4750 3426 4639 
Q 3797 4528 4122 4306 
z
" transform="scale(0.015625)"/>
      <path id="DejaVuSans-6c" d="M 603 4863 
L 1178 4863 
L 1178 0 
L 603 0 
L 603 4863 
z
" transform="scale(0.015625)"/>
      <path id="DejaVuSans-61" d="M 2194 1759 
Q 1497 1759 1228 1600 
Q 959 1441 959 1056 
Q 959 750 1161 570 
Q 1363 391 1709 391 
Q 2188 391 2477 730 
Q 2766 1069 2766 1631 
L 2766 1759 
L 2194 1759 
z
M 3341 1997 
L 3341 0 
L 2766 0 
L 2766 531 
Q 2569 213 2275 61 
Q 1981 -91 1556 -91 
Q 1019 -91 701 211 
Q 384 513 384 1019 
Q 384 1609 779 1909 
Q 1175 2209 1959 2209 
L 2766 2209 
L 2766 2266 
Q 2766 2663 2505 2880 
Q 2244 3097 1772 3097 
Q 1472 3097 1187 3025 
Q 903 2953 641 2809 
L 641 3341 
Q 956 3463 1253 3523 
Q 1550 3584 1831 3584 
Q 2591 3584 2966 3190 
Q 3341 2797 3341 1997 
z
" transform="scale(0.015625)"/>
      <path id="DejaVuSans-79" d="M 2059 -325 
Q 1816 -950 1584 -1140 
Q 1353 -1331 966 -1331 
L 506 -1331 
L 506 -850 
L 844 -850 
Q 1081 -850 1212 -737 
Q 1344 -625 1503 -206 
L 1606 56 
L 191 3500 
L 800 3500 
L 1894 763 
L 2988 3500 
L 3597 3500 
L 2059 -325 
z
" transform="scale(0.015625)"/>
      <path id="DejaVuSans-74" d="M 1172 4494 
L 1172 3500 
L 2356 3500 
L 2356 3053 
L 1172 3053 
L 1172 1153 
Q 1172 725 1289 603 
Q 1406 481 1766 481 
L 2356 481 
L 2356 0 
L 1766 0 
Q 1100 0 847 248 
Q 594 497 594 1153 
L 594 3053 
L 172 3053 
L 172 3500 
L 594 3500 
L 594 4494 
L 1172 4494 
z
" transform="scale(0.015625)"/>
      <path id="DejaVuSans-6f" d="M 1959 3097 
Q 1497 3097 1228 2736 
Q 959 2375 959 1747 
Q 959 1119 1226 758 
Q 1494 397 1959 397 
Q 2419 397 2687 759 
Q 2956 1122 2956 1747 
Q 2956 2369 2687 2733 
Q 2419 3097 1959 3097 
z
M 1959 3584 
Q 2709 3584 3137 3096 
Q 3566 2609 3566 1747 
Q 3566 888 3137 398 
Q 2709 -91 1959 -91 
Q 1206 -91 779 398 
Q 353 888 353 1747 
Q 353 2609 779 3096 
Q 1206 3584 1959 3584 
z
" transform="scale(0.015625)"/>
      <path id="DejaVuSans-6e" d="M 3513 2113 
L 3513 0 
L 2938 0 
L 2938 2094 
Q 2938 2591 2744 2837 
Q 2550 3084 2163 3084 
Q 1697 3084 1428 2787 
Q 1159 2491 1159 1978 
L 1159 0 
L 581 0 
L 581 3500 
L 1159 3500 
L 1159 2956 
Q 1366 3272 1645 3428 
Q 1925 3584 2291 3584 
Q 2894 3584 3203 3211 
Q 3513 2838 3513 2113 
z
" transform="scale(0.015625)"/>
      <path id="DejaVuSans-2d" d="M 313 2009 
L 1997 2009 
L 1997 1497 
L 313 1497 
L 313 2009 
z
" transform="scale(0.015625)"/>
      <path id="DejaVuSans-67" d="M 2906 1791 
Q 2906 2416 2648 2759 
Q 2391 3103 1925 3103 
Q 1463 3103 1205 2759 
Q 947 2416 947 1791 
Q 947 1169 1205 825 
Q 1463 481 1925 481 
Q 2391 481 2648 825 
Q 2906 1169 2906 1791 
z
M 3481 434 
Q 3481 -459 3084 -895 
Q 2688 -1331 1869 -1331 
Q 1566 -1331 1297 -1286 
Q 1028 -1241 775 -1147 
L 775 -588 
Q 1028 -725 1275 -790 
Q 1522 -856 1778 -856 
Q 2344 -856 2625 -561 
Q 2906 -266 2906 331 
L 2906 616 
Q 2728 306 2450 153 
Q 2172 0 1784 0 
Q 1141 0 747 490 
Q 353 981 353 1791 
Q 353 2603 747 3093 
Q 1141 3584 1784 3584 
Q 2172 3584 2450 3431 
Q 2728 3278 2906 2969 
L 2906 3500 
L 3481 3500 
L 3481 434 
z
" transform="scale(0.015625)"/>
      <path id="DejaVuSans-75" d="M 544 1381 
L 544 3500 
L 1119 3500 
L 1119 1403 
Q 1119 906 1312 657 
Q 1506 409 1894 409 
Q 2359 409 2629 706 
Q 2900 1003 2900 1516 
L 2900 3500 
L 3475 3500 
L 3475 0 
L 2900 0 
L 2900 538 
Q 2691 219 2414 64 
Q 2138 -91 1772 -91 
Q 1169 -91 856 284 
Q 544 659 544 1381 
z
M 1991 3584 
L 1991 3584 
z
" transform="scale(0.015625)"/>
      <path id="DejaVuSans-73" d="M 2834 3397 
L 2834 2853 
Q 2591 2978 2328 3040 
Q 2066 3103 1784 3103 
Q 1356 3103 1142 2972 
Q 928 2841 928 2578 
Q 928 2378 1081 2264 
Q 1234 2150 1697 2047 
L 1894 2003 
Q 2506 1872 2764 1633 
Q 3022 1394 3022 966 
Q 3022 478 2636 193 
Q 2250 -91 1575 -91 
Q 1294 -91 989 -36 
Q 684 19 347 128 
L 347 722 
Q 666 556 975 473 
Q 1284 391 1588 391 
Q 1994 391 2212 530 
Q 2431 669 2431 922 
Q 2431 1156 2273 1281 
Q 2116 1406 1581 1522 
L 1381 1569 
Q 847 1681 609 1914 
Q 372 2147 372 2553 
Q 372 3047 722 3315 
Q 1072 3584 1716 3584 
Q 2034 3584 2315 3537 
Q 2597 3491 2834 3397 
z
" transform="scale(0.015625)"/>
      <path id="DejaVuSans-69" d="M 603 3500 
L 1178 3500 
L 1178 0 
L 603 0 
L 603 3500 
z
M 603 4863 
L 1178 4863 
L 1178 4134 
L 603 4134 
L 603 4863 
z
" transform="scale(0.015625)"/>
      <path id="DejaVuSans-6d" d="M 3328 2828 
Q 3544 3216 3844 3400 
Q 4144 3584 4550 3584 
Q 5097 3584 5394 3201 
Q 5691 2819 5691 2113 
L 5691 0 
L 5113 0 
L 5113 2094 
Q 5113 2597 4934 2840 
Q 4756 3084 4391 3084 
Q 3944 3084 3684 2787 
Q 3425 2491 3425 1978 
L 3425 0 
L 2847 0 
L 2847 2094 
Q 2847 2600 2669 2842 
Q 2491 3084 2119 3084 
Q 1678 3084 1418 2786 
Q 1159 2488 1159 1978 
L 1159 0 
L 581 0 
L 581 3500 
L 1159 3500 
L 1159 2956 
Q 1356 3278 1631 3431 
Q 1906 3584 2284 3584 
Q 2666 3584 2933 3390 
Q 3200 3197 3328 2828 
z
" transform="scale(0.015625)"/>
      <path id="DejaVuSans-62" d="M 3116 1747 
Q 3116 2381 2855 2742 
Q 2594 3103 2138 3103 
Q 1681 3103 1420 2742 
Q 1159 2381 1159 1747 
Q 1159 1113 1420 752 
Q 1681 391 2138 391 
Q 2594 391 2855 752 
Q 3116 1113 3116 1747 
z
M 1159 2969 
Q 1341 3281 1617 3432 
Q 1894 3584 2278 3584 
Q 2916 3584 3314 3078 
Q 3713 2572 3713 1747 
Q 3713 922 3314 415 
Q 2916 -91 2278 -91 
Q 1894 -91 1617 61 
Q 1341 213 1159 525 
L 1159 0 
L 581 0 
L 581 4863 
L 1159 4863 
L 1159 2969 
z
" transform="scale(0.015625)"/>
      <path id="DejaVuSans-65" d="M 3597 1894 
L 3597 1613 
L 953 1613 
Q 991 1019 1311 708 
Q 1631 397 2203 397 
Q 2534 397 2845 478 
Q 3156 559 3463 722 
L 3463 178 
Q 3153 47 2828 -22 
Q 2503 -91 2169 -91 
Q 1331 -91 842 396 
Q 353 884 353 1716 
Q 353 2575 817 3079 
Q 1281 3584 2069 3584 
Q 2775 3584 3186 3129 
Q 3597 2675 3597 1894 
z
M 3022 2063 
Q 3016 2534 2758 2815 
Q 2500 3097 2075 3097 
Q 1594 3097 1305 2825 
Q 1016 2553 972 2059 
L 3022 2063 
z
" transform="scale(0.015625)"/>
      <path id="DejaVuSans-20" transform="scale(0.015625)"/>
      <path id="DejaVuSans-78" d="M 3513 3500 
L 2247 1797 
L 3578 0 
L 2900 0 
L 1881 1375 
L 863 0 
L 184 0 
L 1544 1831 
L 300 3500 
L 978 3500 
L 1906 2253 
L 2834 3500 
L 3513 3500 
z
" transform="scale(0.015625)"/>
      <path id="DejaVuSans-72" d="M 2631 2963 
Q 2534 3019 2420 3045 
Q 2306 3072 2169 3072 
Q 1681 3072 1420 2755 
Q 1159 2438 1159 1844 
L 1159 0 
L 581 0 
L 581 3500 
L 1159 3500 
L 1159 2956 
Q 1341 3275 1631 3429 
Q 1922 3584 2338 3584 
Q 2397 3584 2469 3576 
Q 2541 3569 2628 3553 
L 2631 2963 
z
" transform="scale(0.015625)"/>
      <path id="DejaVuSans-70" d="M 1159 525 
L 1159 -1331 
L 581 -1331 
L 581 3500 
L 1159 3500 
L 1159 2969 
Q 1341 3281 1617 3432 
Q 1894 3584 2278 3584 
Q 2916 3584 3314 3078 
Q 3713 2572 3713 1747 
Q 3713 922 3314 415 
Q 2916 -91 2278 -91 
Q 1894 -91 1617 61 
Q 1341 213 1159 525 
z
M 3116 1747 
Q 3116 2381 2855 2742 
Q 2594 3103 2138 3103 
Q 1681 3103 1420 2742 
Q 1159 2381 1159 1747 
Q 1159 1113 1420 752 
Q 1681 391 2138 391 
Q 2594 391 2855 752 
Q 3116 1113 3116 1747 
z
" transform="scale(0.015625)"/>
      <path id="DejaVuSans-50" d="M 1259 4147 
L 1259 2394 
L 2053 2394 
Q 2494 2394 2734 2622 
Q 2975 2850 2975 3272 
Q 2975 3691 2734 3919 
Q 2494 4147 2053 4147 
L 1259 4147 
z
M 628 4666 
L 2053 4666 
Q 2838 4666 3239 4311 
Q 3641 3956 3641 3272 
Q 3641 2581 3239 2228 
Q 2838 1875 2053 1875 
L 1259 1875 
L 1259 0 
L 628 0 
L 628 4666 
z
" transform="scale(0.015625)"/>
      <path id="DejaVuSans-44" d="M 1259 4147 
L 1259 519 
L 2022 519 
Q 2988 519 3436 956 
Q 3884 1394 3884 2338 
Q 3884 3275 3436 3711 
Q 2988 4147 2022 4147 
L 1259 4147 
z
M 628 4666 
L 1925 4666 
Q 3281 4666 3915 4102 
Q 4550 3538 4550 2338 
Q 4550 1131 3912 565 
Q 3275 0 1925 0 
L 628 0 
L 628 4666 
z
" transform="scale(0.015625)"/>
      <path id="DejaVuSans-46" d="M 628 4666 
L 3309 4666 
L 3309 4134 
L 1259 4134 
L 1259 2759 
L 3109 2759 
L 3109 2228 
L 1259 2228 
L 1259 0 
L 628 0 
L 628 4666 
z
" transform="scale(0.015625)"/>
     </defs>
     <use xlink:href="#DejaVuSans-43"/>
     <use xlink:href="#DejaVuSans-6c" x="69.824219"/>
     <use xlink:href="#DejaVuSans-61" x="97.607422"/>
     <use xlink:href="#DejaVuSans-79" x="158.886719"/>
     <use xlink:href="#DejaVuSans-74" x="218.066406"/>
     <use xlink:href="#DejaVuSans-6f" x="257.275391"/>
     <use xlink:href="#DejaVuSans-6e" x="318.457031"/>
     <use xlink:href="#DejaVuSans-2d" x="381.835938"/>
     <use xlink:href="#DejaVuSans-67" x="417.919922"/>
     <use xlink:href="#DejaVuSans-61" x="481.396484"/>
     <use xlink:href="#DejaVuSans-75" x="542.675781"/>
     <use xlink:href="#DejaVuSans-73" x="606.054688"/>
     <use xlink:href="#DejaVuSans-73" x="658.154297"/>
     <use xlink:href="#DejaVuSans-69" x="710.253906"/>
     <use xlink:href="#DejaVuSans-61" x="738.037109"/>
     <use xlink:href="#DejaVuSans-6e" x="799.316406"/>
     <use xlink:href="#DejaVuSans-2d" x="862.695312"/>
     <use xlink:href="#DejaVuSans-67" x="898.779297"/>
     <use xlink:href="#DejaVuSans-75" x="962.255859"/>
     <use xlink:href="#DejaVuSans-6d" x="1025.634766"/>
     <use xlink:href="#DejaVuSans-62" x="1123.046875"/>
     <use xlink:href="#DejaVuSans-65" x="1186.523438"/>
     <use xlink:href="#DejaVuSans-6c" x="1248.046875"/>
     <use xlink:href="#DejaVuSans-20" x="1275.830078"/>
     <use xlink:href="#DejaVuSans-6d" x="1307.617188"/>
     <use xlink:href="#DejaVuSans-69" x="1405.029297"/>
     <use xlink:href="#DejaVuSans-78" x="1432.8125"/>
     <use xlink:href="#DejaVuSans-74" x="1491.992188"/>
     <use xlink:href="#DejaVuSans-75" x="1531.201172"/>
     <use xlink:href="#DejaVuSans-72" x="1594.580078"/>
     <use xlink:href="#DejaVuSans-65" x="1633.443359"/>
     <use xlink:href="#DejaVuSans-20" x="1694.966797"/>
     <use xlink:href="#DejaVuSans-43" x="1726.753906"/>
     <use xlink:href="#DejaVuSans-6f" x="1796.578125"/>
     <use xlink:href="#DejaVuSans-70" x="1857.759766"/>
     <use xlink:href="#DejaVuSans-75" x="1921.236328"/>
     <use xlink:href="#DejaVuSans-6c" x="1984.615234"/>
     <use xlink:href="#DejaVuSans-61" x="2012.398438"/>
     <use xlink:href="#DejaVuSans-20" x="2073.677734"/>
     <use xlink:href="#DejaVuSans-50" x="2105.464844"/>
     <use xlink:href="#DejaVuSans-44" x="2165.767578"/>
     <use xlink:href="#DejaVuSans-46" x="2242.769531"/>
    </g>
   </g>
   <g id="text_16">
    <g clip-path="url(#pbfb2bea26d)">
     <!-- 0.03 -->
     <g transform="translate(177.163638 257.126232)rotate(-10.89311)scale(0.08 -0.08)">
      <defs>
       <path id="DejaVuSans-2e" d="M 684 794 
L 1344 794 
L 1344 0 
L 684 0 
L 684 794 
z
" transform="scale(0.015625)"/>
      </defs>
      <use xlink:href="#DejaVuSans-30"/>
      <use xlink:href="#DejaVuSans-2e" x="63.623047"/>
      <use xlink:href="#DejaVuSans-30" x="95.410156"/>
      <use xlink:href="#DejaVuSans-33" x="159.033203"/>
     </g>
    </g>
   </g>
   <g id="text_17">
    <g clip-path="url(#pbfb2bea26d)">
     <!-- 0.06 -->
     <g transform="translate(202.83604 238.647096)rotate(-17.677362)scale(0.08 -0.08)">
      <defs>
       <path id="DejaVuSans-36" d="M 2113 2584 
Q 1688 2584 1439 2293 
Q 1191 2003 1191 1497 
Q 1191 994 1439 701 
Q 1688 409 2113 409 
Q 2538 409 2786 701 
Q 3034 994 3034 1497 
Q 3034 2003 2786 2293 
Q 2538 2584 2113 2584 
z
M 3366 4563 
L 3366 3988 
Q 3128 4100 2886 4159 
Q 2644 4219 2406 4219 
Q 1781 4219 1451 3797 
Q 1122 3375 1075 2522 
Q 1259 2794 1537 2939 
Q 1816 3084 2150 3084 
Q 2853 3084 3261 2657 
Q 3669 2231 3669 1497 
Q 3669 778 3244 343 
Q 2819 -91 2113 -91 
Q 1303 -91 875 529 
Q 447 1150 447 2328 
Q 447 3434 972 4092 
Q 1497 4750 2381 4750 
Q 2619 4750 2861 4703 
Q 3103 4656 3366 4563 
z
" transform="scale(0.015625)"/>
      </defs>
      <use xlink:href="#DejaVuSans-30"/>
      <use xlink:href="#DejaVuSans-2e" x="63.623047"/>
      <use xlink:href="#DejaVuSans-30" x="95.410156"/>
      <use xlink:href="#DejaVuSans-36" x="159.033203"/>
     </g>
    </g>
   </g>
   <g id="text_18">
    <g clip-path="url(#pbfb2bea26d)">
     <!-- 0.09 -->
     <g transform="translate(218.691942 144.299421)rotate(-30.657515)scale(0.08 -0.08)">
      <defs>
       <path id="DejaVuSans-39" d="M 703 97 
L 703 672 
Q 941 559 1184 500 
Q 1428 441 1663 441 
Q 2288 441 2617 861 
Q 2947 1281 2994 2138 
Q 2813 1869 2534 1725 
Q 2256 1581 1919 1581 
Q 1219 1581 811 2004 
Q 403 2428 403 3163 
Q 403 3881 828 4315 
Q 1253 4750 1959 4750 
Q 2769 4750 3195 4129 
Q 3622 3509 3622 2328 
Q 3622 1225 3098 567 
Q 2575 -91 1691 -91 
Q 1453 -91 1209 -44 
Q 966 3 703 97 
z
M 1959 2075 
Q 2384 2075 2632 2365 
Q 2881 2656 2881 3163 
Q 2881 3666 2632 3958 
Q 2384 4250 1959 4250 
Q 1534 4250 1286 3958 
Q 1038 3666 1038 3163 
Q 1038 2656 1286 2365 
Q 1534 2075 1959 2075 
z
" transform="scale(0.015625)"/>
      </defs>
      <use xlink:href="#DejaVuSans-30"/>
      <use xlink:href="#DejaVuSans-2e" x="63.623047"/>
      <use xlink:href="#DejaVuSans-30" x="95.410156"/>
      <use xlink:href="#DejaVuSans-39" x="159.033203"/>
     </g>
    </g>
   </g>
   <g id="text_19">
    <g clip-path="url(#pbfb2bea26d)">
     <!-- 0.12 -->
     <g transform="translate(225.390407 215.103247)rotate(-25.132621)scale(0.08 -0.08)">
      <use xlink:href="#DejaVuSans-30"/>
      <use xlink:href="#DejaVuSans-2e" x="63.623047"/>
      <use xlink:href="#DejaVuSans-31" x="95.410156"/>
      <use xlink:href="#DejaVuSans-32" x="159.033203"/>
     </g>
    </g>
   </g>
   <g id="text_20">
    <g clip-path="url(#pbfb2bea26d)">
     <!-- 0.15 -->
     <g transform="translate(179.68642 217.502996)rotate(-353.421075)scale(0.08 -0.08)">
      <defs>
       <path id="DejaVuSans-35" d="M 691 4666 
L 3169 4666 
L 3169 4134 
L 1269 4134 
L 1269 2991 
Q 1406 3038 1543 3061 
Q 1681 3084 1819 3084 
Q 2600 3084 3056 2656 
Q 3513 2228 3513 1497 
Q 3513 744 3044 326 
Q 2575 -91 1722 -91 
Q 1428 -91 1123 -41 
Q 819 9 494 109 
L 494 744 
Q 775 591 1075 516 
Q 1375 441 1709 441 
Q 2250 441 2565 725 
Q 2881 1009 2881 1497 
Q 2881 1984 2565 2268 
Q 2250 2553 1709 2553 
Q 1456 2553 1204 2497 
Q 953 2441 691 2322 
L 691 4666 
z
" transform="scale(0.015625)"/>
      </defs>
      <use xlink:href="#DejaVuSans-30"/>
      <use xlink:href="#DejaVuSans-2e" x="63.623047"/>
      <use xlink:href="#DejaVuSans-31" x="95.410156"/>
      <use xlink:href="#DejaVuSans-35" x="159.033203"/>
     </g>
    </g>
   </g>
   <g id="text_21">
    <g clip-path="url(#pbfb2bea26d)">
     <!-- 0.18 -->
     <g transform="translate(199.680321 190.932598)rotate(-52.414875)scale(0.08 -0.08)">
      <defs>
       <path id="DejaVuSans-38" d="M 2034 2216 
Q 1584 2216 1326 1975 
Q 1069 1734 1069 1313 
Q 1069 891 1326 650 
Q 1584 409 2034 409 
Q 2484 409 2743 651 
Q 3003 894 3003 1313 
Q 3003 1734 2745 1975 
Q 2488 2216 2034 2216 
z
M 1403 2484 
Q 997 2584 770 2862 
Q 544 3141 544 3541 
Q 544 4100 942 4425 
Q 1341 4750 2034 4750 
Q 2731 4750 3128 4425 
Q 3525 4100 3525 3541 
Q 3525 3141 3298 2862 
Q 3072 2584 2669 2484 
Q 3125 2378 3379 2068 
Q 3634 1759 3634 1313 
Q 3634 634 3220 271 
Q 2806 -91 2034 -91 
Q 1263 -91 848 271 
Q 434 634 434 1313 
Q 434 1759 690 2068 
Q 947 2378 1403 2484 
z
M 1172 3481 
Q 1172 3119 1398 2916 
Q 1625 2713 2034 2713 
Q 2441 2713 2670 2916 
Q 2900 3119 2900 3481 
Q 2900 3844 2670 4047 
Q 2441 4250 2034 4250 
Q 1625 4250 1398 4047 
Q 1172 3844 1172 3481 
z
" transform="scale(0.015625)"/>
      </defs>
      <use xlink:href="#DejaVuSans-30"/>
      <use xlink:href="#DejaVuSans-2e" x="63.623047"/>
      <use xlink:href="#DejaVuSans-31" x="95.410156"/>
      <use xlink:href="#DejaVuSans-38" x="159.033203"/>
     </g>
    </g>
   </g>
   <g id="text_22">
    <g clip-path="url(#pbfb2bea26d)">
     <!-- 0.21 -->
     <g transform="translate(237.916582 162.212907)rotate(-345.832937)scale(0.08 -0.08)">
      <use xlink:href="#DejaVuSans-30"/>
      <use xlink:href="#DejaVuSans-2e" x="63.623047"/>
      <use xlink:href="#DejaVuSans-32" x="95.410156"/>
      <use xlink:href="#DejaVuSans-31" x="159.033203"/>
     </g>
    </g>
   </g>
  </g>
 </g>
 <defs>
  <clipPath id="pbfb2bea26d">
   <rect x="57.6" y="41.472" width="357.12" height="266.112"/>
  </clipPath>
 </defs>
</svg>
