<?xml version="1.0" encoding="utf-8" standalone="no"?>
<!DOCTYPE svg PUBLIC "-//W3C//DTD SVG 1.1//EN"
  "http://www.w3.org/Graphics/SVG/1.1/DTD/svg11.dtd">
<svg xmlns:xlink="http://www.w3.org/1999/xlink" width="460.8pt" height="345.6pt" viewBox="0 0 460.8 345.6" xmlns="http://www.w3.org/2000/svg" version="1.1">
 <metadata>
  <rdf:RDF xmlns:dc="http://purl.org/dc/elements/1.1/" xmlns:cc="http://creativecommons.org/ns#" xmlns:rdf="http://www.w3.org/1999/02/22-rdf-syntax-ns#">
   <cc:Work>
    <dc:type rdf:resource="http://purl.org/dc/dcmitype/StillImage"/>
    <dc:date>2022-04-25T16:10:49.980489</dc:date>
    <dc:format>image/svg+xml</dc:format>
    <dc:creator>
     <cc:Agent>
      <dc:title>Matplotlib v3.5.1, https://matplotlib.org/</dc:title>
     </cc:Agent>
    </dc:creator>
   </cc:Work>
  </rdf:RDF>
 </metadata>
 <defs>
  <style type="text/css">*{stroke-linejoin: round; stroke-linecap: butt}</style>
 </defs>
 <g id="figure_1">
  <g id="patch_1">
   <path d="M 0 345.6 
L 460.8 345.6 
L 460.8 0 
L 0 0 
z
" style="fill: #ffffff"/>
  </g>
  <g id="axes_1">
   <g id="patch_2">
    <path d="M 57.6 307.584 
L 414.72 307.584 
L 414.72 41.472 
L 57.6 41.472 
z
" style="fill: #ffffff"/>
   </g>
   <g id="matplotlib.axis_1">
    <g id="xtick_1">
     <g id="line2d_1">
      <defs>
       <path id="m443c4c2afc" d="M 0 0 
L 0 3.5 
" style="stroke: #000000; stroke-width: 0.8"/>
      </defs>
      <g>
       <use xlink:href="#m443c4c2afc" x="57.6" y="307.584" style="stroke: #000000; stroke-width: 0.8"/>
      </g>
     </g>
     <g id="text_1">
      <!-- 0.0 -->
      <g transform="translate(49.648438 322.182437)scale(0.1 -0.1)">
       <defs>
        <path id="DejaVuSans-30" d="M 2034 4250 
Q 1547 4250 1301 3770 
Q 1056 3291 1056 2328 
Q 1056 1369 1301 889 
Q 1547 409 2034 409 
Q 2525 409 2770 889 
Q 3016 1369 3016 2328 
Q 3016 3291 2770 3770 
Q 2525 4250 2034 4250 
z
M 2034 4750 
Q 2819 4750 3233 4129 
Q 3647 3509 3647 2328 
Q 3647 1150 3233 529 
Q 2819 -91 2034 -91 
Q 1250 -91 836 529 
Q 422 1150 422 2328 
Q 422 3509 836 4129 
Q 1250 4750 2034 4750 
z
" transform="scale(0.015625)"/>
        <path id="DejaVuSans-2e" d="M 684 794 
L 1344 794 
L 1344 0 
L 684 0 
L 684 794 
z
" transform="scale(0.015625)"/>
       </defs>
       <use xlink:href="#DejaVuSans-30"/>
       <use xlink:href="#DejaVuSans-2e" x="63.623047"/>
       <use xlink:href="#DejaVuSans-30" x="95.410156"/>
      </g>
     </g>
    </g>
    <g id="xtick_2">
     <g id="line2d_2">
      <g>
       <use xlink:href="#m443c4c2afc" x="129.024" y="307.584" style="stroke: #000000; stroke-width: 0.8"/>
      </g>
     </g>
     <g id="text_2">
      <!-- 0.2 -->
      <g transform="translate(121.072438 322.182437)scale(0.1 -0.1)">
       <defs>
        <path id="DejaVuSans-32" d="M 1228 531 
L 3431 531 
L 3431 0 
L 469 0 
L 469 531 
Q 828 903 1448 1529 
Q 2069 2156 2228 2338 
Q 2531 2678 2651 2914 
Q 2772 3150 2772 3378 
Q 2772 3750 2511 3984 
Q 2250 4219 1831 4219 
Q 1534 4219 1204 4116 
Q 875 4013 500 3803 
L 500 4441 
Q 881 4594 1212 4672 
Q 1544 4750 1819 4750 
Q 2544 4750 2975 4387 
Q 3406 4025 3406 3419 
Q 3406 3131 3298 2873 
Q 3191 2616 2906 2266 
Q 2828 2175 2409 1742 
Q 1991 1309 1228 531 
z
" transform="scale(0.015625)"/>
       </defs>
       <use xlink:href="#DejaVuSans-30"/>
       <use xlink:href="#DejaVuSans-2e" x="63.623047"/>
       <use xlink:href="#DejaVuSans-32" x="95.410156"/>
      </g>
     </g>
    </g>
    <g id="xtick_3">
     <g id="line2d_3">
      <g>
       <use xlink:href="#m443c4c2afc" x="200.448" y="307.584" style="stroke: #000000; stroke-width: 0.8"/>
      </g>
     </g>
     <g id="text_3">
      <!-- 0.4 -->
      <g transform="translate(192.496438 322.182437)scale(0.1 -0.1)">
       <defs>
        <path id="DejaVuSans-34" d="M 2419 4116 
L 825 1625 
L 2419 1625 
L 2419 4116 
z
M 2253 4666 
L 3047 4666 
L 3047 1625 
L 3713 1625 
L 3713 1100 
L 3047 1100 
L 3047 0 
L 2419 0 
L 2419 1100 
L 313 1100 
L 313 1709 
L 2253 4666 
z
" transform="scale(0.015625)"/>
       </defs>
       <use xlink:href="#DejaVuSans-30"/>
       <use xlink:href="#DejaVuSans-2e" x="63.623047"/>
       <use xlink:href="#DejaVuSans-34" x="95.410156"/>
      </g>
     </g>
    </g>
    <g id="xtick_4">
     <g id="line2d_4">
      <g>
       <use xlink:href="#m443c4c2afc" x="271.872" y="307.584" style="stroke: #000000; stroke-width: 0.8"/>
      </g>
     </g>
     <g id="text_4">
      <!-- 0.6 -->
      <g transform="translate(263.920438 322.182437)scale(0.1 -0.1)">
       <defs>
        <path id="DejaVuSans-36" d="M 2113 2584 
Q 1688 2584 1439 2293 
Q 1191 2003 1191 1497 
Q 1191 994 1439 701 
Q 1688 409 2113 409 
Q 2538 409 2786 701 
Q 3034 994 3034 1497 
Q 3034 2003 2786 2293 
Q 2538 2584 2113 2584 
z
M 3366 4563 
L 3366 3988 
Q 3128 4100 2886 4159 
Q 2644 4219 2406 4219 
Q 1781 4219 1451 3797 
Q 1122 3375 1075 2522 
Q 1259 2794 1537 2939 
Q 1816 3084 2150 3084 
Q 2853 3084 3261 2657 
Q 3669 2231 3669 1497 
Q 3669 778 3244 343 
Q 2819 -91 2113 -91 
Q 1303 -91 875 529 
Q 447 1150 447 2328 
Q 447 3434 972 4092 
Q 1497 4750 2381 4750 
Q 2619 4750 2861 4703 
Q 3103 4656 3366 4563 
z
" transform="scale(0.015625)"/>
       </defs>
       <use xlink:href="#DejaVuSans-30"/>
       <use xlink:href="#DejaVuSans-2e" x="63.623047"/>
       <use xlink:href="#DejaVuSans-36" x="95.410156"/>
      </g>
     </g>
    </g>
    <g id="xtick_5">
     <g id="line2d_5">
      <g>
       <use xlink:href="#m443c4c2afc" x="343.296" y="307.584" style="stroke: #000000; stroke-width: 0.8"/>
      </g>
     </g>
     <g id="text_5">
      <!-- 0.8 -->
      <g transform="translate(335.344438 322.182437)scale(0.1 -0.1)">
       <defs>
        <path id="DejaVuSans-38" d="M 2034 2216 
Q 1584 2216 1326 1975 
Q 1069 1734 1069 1313 
Q 1069 891 1326 650 
Q 1584 409 2034 409 
Q 2484 409 2743 651 
Q 3003 894 3003 1313 
Q 3003 1734 2745 1975 
Q 2488 2216 2034 2216 
z
M 1403 2484 
Q 997 2584 770 2862 
Q 544 3141 544 3541 
Q 544 4100 942 4425 
Q 1341 4750 2034 4750 
Q 2731 4750 3128 4425 
Q 3525 4100 3525 3541 
Q 3525 3141 3298 2862 
Q 3072 2584 2669 2484 
Q 3125 2378 3379 2068 
Q 3634 1759 3634 1313 
Q 3634 634 3220 271 
Q 2806 -91 2034 -91 
Q 1263 -91 848 271 
Q 434 634 434 1313 
Q 434 1759 690 2068 
Q 947 2378 1403 2484 
z
M 1172 3481 
Q 1172 3119 1398 2916 
Q 1625 2713 2034 2713 
Q 2441 2713 2670 2916 
Q 2900 3119 2900 3481 
Q 2900 3844 2670 4047 
Q 2441 4250 2034 4250 
Q 1625 4250 1398 4047 
Q 1172 3844 1172 3481 
z
" transform="scale(0.015625)"/>
       </defs>
       <use xlink:href="#DejaVuSans-30"/>
       <use xlink:href="#DejaVuSans-2e" x="63.623047"/>
       <use xlink:href="#DejaVuSans-38" x="95.410156"/>
      </g>
     </g>
    </g>
    <g id="xtick_6">
     <g id="line2d_6">
      <g>
       <use xlink:href="#m443c4c2afc" x="414.72" y="307.584" style="stroke: #000000; stroke-width: 0.8"/>
      </g>
     </g>
     <g id="text_6">
      <!-- 1.0 -->
      <g transform="translate(406.768438 322.182437)scale(0.1 -0.1)">
       <defs>
        <path id="DejaVuSans-31" d="M 794 531 
L 1825 531 
L 1825 4091 
L 703 3866 
L 703 4441 
L 1819 4666 
L 2450 4666 
L 2450 531 
L 3481 531 
L 3481 0 
L 794 0 
L 794 531 
z
" transform="scale(0.015625)"/>
       </defs>
       <use xlink:href="#DejaVuSans-31"/>
       <use xlink:href="#DejaVuSans-2e" x="63.623047"/>
       <use xlink:href="#DejaVuSans-30" x="95.410156"/>
      </g>
     </g>
    </g>
   </g>
   <g id="matplotlib.axis_2">
    <g id="ytick_1">
     <g id="line2d_7">
      <defs>
       <path id="medd50db9ab" d="M 0 0 
L -3.5 0 
" style="stroke: #000000; stroke-width: 0.8"/>
      </defs>
      <g>
       <use xlink:href="#medd50db9ab" x="57.6" y="307.584" style="stroke: #000000; stroke-width: 0.8"/>
      </g>
     </g>
     <g id="text_7">
      <!-- 0.0 -->
      <g transform="translate(34.696875 311.383219)scale(0.1 -0.1)">
       <use xlink:href="#DejaVuSans-30"/>
       <use xlink:href="#DejaVuSans-2e" x="63.623047"/>
       <use xlink:href="#DejaVuSans-30" x="95.410156"/>
      </g>
     </g>
    </g>
    <g id="ytick_2">
     <g id="line2d_8">
      <g>
       <use xlink:href="#medd50db9ab" x="57.6" y="254.3616" style="stroke: #000000; stroke-width: 0.8"/>
      </g>
     </g>
     <g id="text_8">
      <!-- 0.2 -->
      <g transform="translate(34.696875 258.160819)scale(0.1 -0.1)">
       <use xlink:href="#DejaVuSans-30"/>
       <use xlink:href="#DejaVuSans-2e" x="63.623047"/>
       <use xlink:href="#DejaVuSans-32" x="95.410156"/>
      </g>
     </g>
    </g>
    <g id="ytick_3">
     <g id="line2d_9">
      <g>
       <use xlink:href="#medd50db9ab" x="57.6" y="201.1392" style="stroke: #000000; stroke-width: 0.8"/>
      </g>
     </g>
     <g id="text_9">
      <!-- 0.4 -->
      <g transform="translate(34.696875 204.938419)scale(0.1 -0.1)">
       <use xlink:href="#DejaVuSans-30"/>
       <use xlink:href="#DejaVuSans-2e" x="63.623047"/>
       <use xlink:href="#DejaVuSans-34" x="95.410156"/>
      </g>
     </g>
    </g>
    <g id="ytick_4">
     <g id="line2d_10">
      <g>
       <use xlink:href="#medd50db9ab" x="57.6" y="147.9168" style="stroke: #000000; stroke-width: 0.8"/>
      </g>
     </g>
     <g id="text_10">
      <!-- 0.6 -->
      <g transform="translate(34.696875 151.716019)scale(0.1 -0.1)">
       <use xlink:href="#DejaVuSans-30"/>
       <use xlink:href="#DejaVuSans-2e" x="63.623047"/>
       <use xlink:href="#DejaVuSans-36" x="95.410156"/>
      </g>
     </g>
    </g>
    <g id="ytick_5">
     <g id="line2d_11">
      <g>
       <use xlink:href="#medd50db9ab" x="57.6" y="94.6944" style="stroke: #000000; stroke-width: 0.8"/>
      </g>
     </g>
     <g id="text_11">
      <!-- 0.8 -->
      <g transform="translate(34.696875 98.493619)scale(0.1 -0.1)">
       <use xlink:href="#DejaVuSans-30"/>
       <use xlink:href="#DejaVuSans-2e" x="63.623047"/>
       <use xlink:href="#DejaVuSans-38" x="95.410156"/>
      </g>
     </g>
    </g>
    <g id="ytick_6">
     <g id="line2d_12">
      <g>
       <use xlink:href="#medd50db9ab" x="57.6" y="41.472" style="stroke: #000000; stroke-width: 0.8"/>
      </g>
     </g>
     <g id="text_12">
      <!-- 1.0 -->
      <g transform="translate(34.696875 45.271219)scale(0.1 -0.1)">
       <use xlink:href="#DejaVuSans-31"/>
       <use xlink:href="#DejaVuSans-2e" x="63.623047"/>
       <use xlink:href="#DejaVuSans-30" x="95.410156"/>
      </g>
     </g>
    </g>
   </g>
   <g id="PathCollection_1">
    <path d="M 392.205448 304.92288 
L 393.201231 304.710194 
L 402.175015 302.055679 
L 407.949569 298.235963 
L 411.1488 294.828655 
" clip-path="url(#p1182f25108)" style="fill: none; stroke: #000000"/>
    <path d="M 74.717562 44.13312 
L 70.144985 46.517063 
L 65.01896 50.820037 
L 61.456623 57.506954 
L 61.1712 58.248973 
" clip-path="url(#p1182f25108)" style="fill: none; stroke: #000000"/>
   </g>
   <g id="PathCollection_2">
    <path d="M 276.678924 304.92288 
L 285.515815 303.760325 
L 294.4896 302.52134 
L 303.463385 301.204086 
L 312.437169 299.783837 
L 321.366371 298.235963 
L 321.410954 298.22492 
L 330.384738 295.965409 
L 339.358523 293.482859 
L 345.740827 291.549046 
L 348.332308 290.663187 
L 352.036138 289.306459 
" clip-path="url(#p1182f25108)" style="fill: none; stroke: #000000"/>
    <path d="M 374.45374 279.641288 
L 375.253662 279.252556 
L 377.206468 278.175212 
L 384.227446 274.155842 
L 388.151563 271.488295 
L 393.201231 267.933979 
L 396.755543 264.801378 
L 402.175015 259.770449 
L 403.373204 258.114462 
L 407.966306 251.427545 
L 411.1488 246.331925 
" clip-path="url(#p1182f25108)" style="fill: none; stroke: #000000"/>
    <path d="M 139.799754 44.13312 
L 132.961477 46.504591 
L 123.987692 49.927193 
L 121.765371 50.820037 
L 115.013908 54.858418 
L 110.809985 57.506954 
L 106.040123 61.269771 
L 102.460299 64.193871 
L 97.066338 69.425632 
L 95.620553 70.880788 
L 92.294464 74.681204 
" clip-path="url(#p1182f25108)" style="fill: none; stroke: #000000"/>
    <path d="M 78.190875 94.573052 
L 76.523609 97.628455 
L 73.192048 104.315372 
L 70.159805 111.002289 
L 70.144985 111.03551 
L 68.067751 117.689206 
L 66.16179 124.376123 
L 64.394046 131.06304 
L 62.731338 137.749957 
L 61.1712 144.334866 
" clip-path="url(#p1182f25108)" style="fill: none; stroke: #000000"/>
   </g>
   <g id="PathCollection_3">
    <path d="M 159.422916 304.92288 
L 159.882831 304.822842 
L 168.856615 302.924006 
L 177.8304 300.852852 
L 186.804185 298.661917 
L 188.617712 298.235963 
L 195.777969 296.130531 
L 204.751754 293.265294 
L 209.937297 291.549046 
L 213.725538 290.23312 
L 220.200059 287.907747 
" clip-path="url(#p1182f25108)" style="fill: none; stroke: #000000"/>
    <path d="M 243.055506 279.033918 
L 245.151169 278.175212 
L 249.620677 276.284403 
L 258.594462 272.368768 
L 260.612851 271.488295 
L 267.568246 268.353953 
L 275.165757 264.801378 
L 276.542031 264.134903 
L 285.515815 259.828845 
L 289.045126 258.114462 
L 294.4896 255.382656 
L 302.240474 251.427545 
L 303.463385 250.782979 
L 312.437169 246.103929 
L 315.041856 244.740628 
L 321.410954 241.318061 
L 327.4274 238.053711 
L 330.384738 236.410518 
L 339.358523 231.389546 
L 339.399266 231.366794 
L 348.332308 226.305776 
L 351.145653 224.679877 
L 357.306092 221.085718 
L 362.463632 217.99296 
L 366.279877 215.696415 
L 373.275856 211.306043 
L 375.253662 210.068859 
L 383.393414 204.619126 
L 384.227446 204.066518 
L 392.476361 197.932209 
L 393.201231 197.402227 
L 400.01584 191.245292 
L 402.175015 189.331138 
L 405.468026 184.558375 
L 410.064042 177.871458 
L 411.1488 176.32832 
" clip-path="url(#p1182f25108)" style="fill: none; stroke: #000000"/>
    <path d="M 233.743986 44.13312 
L 231.673108 44.94144 
L 222.699323 48.366213 
L 216.294316 50.820037 
L 213.725538 52.428971 
L 205.462985 57.506954 
L 204.751754 58.047098 
L 196.519565 64.193871 
L 195.777969 64.815359 
L 188.464475 70.880788 
L 186.804185 72.354572 
L 180.912344 77.567705 
L 177.8304 80.411423 
L 173.679946 84.254622 
L 168.856615 88.845142 
L 166.674672 90.941538 
L 159.882831 97.598095 
L 159.852298 97.628455 
L 153.114197 104.315372 
L 150.909046 106.519066 
L 146.528317 111.002289 
L 141.935262 115.748294 
L 140.105723 117.689206 
L 133.826479 124.376123 
L 132.961477 125.287388 
L 127.653751 131.06304 
L 123.987692 135.120051 
L 121.687005 137.749957 
L 115.908312 144.436874 
L 115.013908 145.46242 
L 110.246384 151.123791 
L 106.040123 156.306682 
L 104.858537 157.810708 
L 99.603788 164.497625 
L 97.066338 167.828129 
L 96.9859 167.937133 
" clip-path="url(#p1182f25108)" style="fill: none; stroke: #000000"/>
    <path d="M 82.957347 188.040984 
L 80.884731 191.245292 
L 79.118769 194.068143 
L 76.81558 197.932209 
L 72.970457 204.619126 
L 70.144985 209.954673 
L 69.573359 211.306043 
L 66.633143 217.99296 
L 63.853671 224.679877 
L 61.305451 231.366794 
L 61.1712 231.709504 
" clip-path="url(#p1182f25108)" style="fill: none; stroke: #000000"/>
   </g>
   <g id="PathCollection_4">
    <path d="M 117.602269 304.92288 
L 123.987692 303.324021 
L 132.961477 300.691875 
L 140.276 298.235963 
L 141.935262 297.633812 
L 150.909046 294.408103 
L 157.939185 291.549046 
L 159.882831 290.701809 
L 168.856615 286.83536 
L 173.235468 284.862129 
L 177.8304 282.628322 
L 186.66907 278.175212 
L 186.804185 278.10075 
L 195.777969 273.40377 
L 199.381572 271.488295 
L 204.751754 268.401716 
L 211.032068 264.801378 
L 213.725538 263.133438 
L 221.950249 258.114462 
L 222.699323 257.622972 
L 231.673108 251.912954 
L 232.454591 251.427545 
L 240.646892 246.016222 
L 242.613509 244.740628 
L 249.620677 239.932273 
L 252.415949 238.053711 
L 258.594462 233.684545 
L 261.945318 231.366794 
L 267.568246 227.295488 
L 271.263344 224.679877 
L 276.542031 220.786729 
L 280.417542 217.99296 
L 285.515815 214.178979 
L 289.44592 211.306043 
L 293.666061 208.114837 
" clip-path="url(#p1182f25108)" style="fill: none; stroke: #000000"/>
    <path d="M 313.245976 193.356573 
L 316.079841 191.245292 
L 321.410954 187.155349 
L 324.903353 184.558375 
L 330.384738 180.36136 
L 333.75789 177.871458 
L 339.358523 173.613419 
L 342.697257 171.184542 
L 348.332308 166.962046 
L 351.80329 164.497625 
L 357.306092 160.477948 
L 361.206172 157.810708 
L 366.279877 154.254995 
L 371.112657 151.123791 
L 375.253662 148.399871 
L 381.815395 144.436874 
L 384.227446 142.984197 
L 393.201231 137.922396 
L 393.476687 137.749957 
L 402.175015 132.692622 
L 403.759184 131.06304 
L 410.969927 124.376123 
L 411.1488 124.228126 
" clip-path="url(#p1182f25108)" style="fill: none; stroke: #000000"/>
    <path d="M 303.661995 44.13312 
L 303.463385 44.266409 
L 294.4896 49.639576 
L 292.302715 50.820037 
L 285.515815 57.301695 
L 285.284403 57.506954 
L 278.491511 64.193871 
L 276.542031 65.991238 
L 271.223722 70.880788 
L 267.568246 73.966504 
L 264.551608 76.551794 
" clip-path="url(#p1182f25108)" style="fill: none; stroke: #000000"/>
    <path d="M 245.280714 91.706811 
L 240.646892 95.14056 
L 237.38736 97.628455 
L 231.673108 101.80183 
L 228.331681 104.315372 
L 222.699323 108.399889 
L 219.214207 111.002289 
L 213.725538 114.974828 
L 210.083567 117.689206 
L 204.751754 121.555221 
L 200.976361 124.376123 
L 195.777969 128.163852 
L 191.922476 131.06304 
L 186.804185 134.821395 
L 182.948729 137.749957 
L 177.8304 141.548993 
L 174.081186 144.436874 
L 168.856615 148.370347 
L 165.346488 151.123791 
L 159.882831 155.313779 
L 156.772429 157.810708 
L 150.909046 162.414696 
L 148.388032 164.497625 
L 141.935262 169.719095 
L 140.223425 171.184542 
L 132.961477 177.289127 
L 132.310062 177.871458 
L 124.647267 184.558375 
L 123.987692 185.116556 
L 117.252269 191.245292 
L 115.013908 193.252362 
L 110.182286 197.932209 
L 106.040123 201.933861 
L 103.469573 204.619126 
L 97.166266 211.306043 
L 97.066338 211.406726 
L 91.090303 217.99296 
L 88.092554 221.416926 
L 85.444495 224.679877 
L 80.255755 231.366794 
L 79.118769 232.815124 
L 75.281939 238.053711 
L 70.953066 244.740628 
L 70.144985 245.977045 
L 66.849172 251.427545 
L 63.316855 258.114462 
L 61.1712 262.872632 
" clip-path="url(#p1182f25108)" style="fill: none; stroke: #000000"/>
   </g>
   <g id="PathCollection_5">
    <path d="M 98.72289 304.92288 
L 106.040123 302.786207 
L 115.013908 299.522874 
L 118.410649 298.235963 
L 123.987692 295.79408 
L 132.961477 291.566157 
L 132.999932 291.549046 
L 141.935262 286.944156 
L 145.952923 284.862129 
L 150.909046 281.807827 
L 157.105453 278.175212 
L 159.882831 276.243282 
L 167.239071 271.488295 
L 168.856615 270.26658 
L 176.700496 264.801378 
L 177.8304 263.900008 
L 185.684807 258.114462 
L 186.804185 257.190423 
L 194.325563 251.427545 
L 195.777969 250.205872 
L 202.726768 244.740628 
L 204.751754 243.025091 
L 210.974783 238.053711 
L 213.725538 235.726692 
L 219.142708 231.366794 
L 222.699323 228.381 
L 227.291797 224.679877 
L 231.673108 221.045253 
L 235.471773 217.99296 
L 240.646892 213.761731 
L 243.720799 211.306043 
L 249.620677 206.55796 
L 252.065475 204.619126 
L 258.594462 199.448153 
L 259.464033 198.76392 
" clip-path="url(#p1182f25108)" style="fill: none; stroke: #000000"/>
    <path d="M 278.773528 183.796394 
L 285.515815 178.667505 
L 286.5463 177.871458 
L 294.4896 171.880147 
L 295.39232 171.184542 
L 303.463385 165.127425 
L 304.280735 164.497625 
L 312.437169 158.382633 
L 313.177472 157.810708 
L 321.410954 151.616118 
L 322.044892 151.123791 
L 330.384738 144.795192 
L 330.842646 144.436874 
L 339.358523 137.883472 
L 339.527607 137.749957 
L 348.101864 131.06304 
L 348.332308 130.890022 
L 356.569782 124.376123 
L 357.306092 123.80468 
L 364.90201 117.689206 
L 366.279877 116.573085 
L 373.109179 111.002289 
L 375.253662 109.174224 
L 381.237133 104.315372 
L 384.227446 101.636874 
L 389.453473 97.628455 
L 393.201231 94.255764 
L 398.58876 90.941538 
L 402.175015 88.352983 
L 411.1488 85.372145 
" clip-path="url(#p1182f25108)" style="fill: none; stroke: #000000"/>
    <path d="M 355.806385 44.13312 
L 351.806127 50.820037 
L 348.332308 53.492376 
L 343.884646 57.506954 
L 339.358523 60.299638 
L 333.97926 64.193871 
L 330.384738 66.422137 
L 323.864202 70.880788 
L 321.410954 72.478773 
L 313.934994 77.567705 
L 312.437169 78.594437 
L 304.230256 84.254622 
L 303.463385 84.803292 
L 294.721788 90.941538 
L 294.4896 91.113256 
L 285.515815 97.50246 
L 285.336639 97.628455 
L 276.542031 103.974157 
L 276.061171 104.315372 
L 267.568246 110.529903 
L 266.907547 111.002289 
L 258.594462 117.137561 
L 257.826942 117.689206 
L 249.620677 123.767065 
L 248.77549 124.376123 
L 240.646892 130.390368 
L 239.713396 131.06304 
L 231.673108 136.98208 
L 230.60482 137.749957 
L 222.699323 143.52046 
L 221.418448 144.436874 
L 213.725538 149.98852 
L 212.12868 151.123791 
L 204.751754 156.375105 
L 203.178567 157.485255 
" clip-path="url(#p1182f25108)" style="fill: none; stroke: #000000"/>
    <path d="M 183.127336 171.44352 
L 177.8304 175.04084 
L 173.734249 177.871458 
L 168.856615 181.136242 
L 163.88974 184.558375 
L 159.882831 187.208628 
L 154.031885 191.245292 
L 150.909046 193.295048 
L 144.237496 197.932209 
L 141.935262 199.44115 
L 134.60095 204.619126 
L 132.961477 205.701403 
L 125.227744 211.306043 
L 123.987692 212.14016 
L 116.223539 217.99296 
L 115.013908 218.83492 
L 107.679655 224.679877 
L 106.040123 225.885208 
L 99.658972 231.366794 
L 97.066338 233.436388 
L 92.191402 238.053711 
L 88.092554 241.746822 
L 85.298492 244.740628 
L 79.118769 251.398889 
L 79.095807 251.427545 
L 73.421971 258.114462 
L 70.144985 262.270258 
L 68.417961 264.801378 
L 64.038597 271.488295 
L 61.1712 276.940814 
" clip-path="url(#p1182f25108)" style="fill: none; stroke: #000000"/>
   </g>
   <g id="PathCollection_6">
    <path d="M 93.084336 304.92288 
L 97.066338 303.561004 
L 106.040123 300.285852 
L 111.096323 298.235963 
L 115.013908 296.235715 
L 123.987692 291.71699 
L 124.343832 291.549046 
L 132.961477 286.529727 
L 135.966421 284.862129 
L 141.935262 280.704909 
L 145.93434 278.175212 
L 150.909046 274.283098 
L 154.901461 271.488295 
L 159.882831 267.286359 
L 163.175622 264.801378 
L 168.856615 259.782987 
L 170.953708 258.114462 
L 177.8304 251.888495 
L 178.390169 251.427545 
L 185.673164 244.740628 
L 186.804185 243.605449 
L 192.849458 238.053711 
L 195.777969 235.191507 
L 199.995612 231.366794 
L 204.751754 226.869335 
L 207.214165 224.679877 
L 213.725538 218.747067 
L 214.594552 217.99296 
L 222.171142 211.306043 
L 222.699323 210.838485 
L 229.974936 204.619126 
L 231.673108 203.200755 
L 238.119685 197.932209 
L 240.646892 195.935977 
L 246.636823 191.245292 
L 249.620677 189.009056 
L 255.532688 184.558375 
L 258.594462 182.372487 
L 264.787976 177.871458 
L 267.568246 175.971731 
L 274.358555 171.184542 
L 276.542031 169.749075 
L 284.177853 164.497625 
L 285.515815 163.646382 
L 294.16095 157.810708 
L 294.4896 157.607073 
L 303.463385 151.605059 
L 304.136086 151.123791 
L 312.437169 145.604903 
L 314.064876 144.436874 
L 321.410954 139.554862 
L 323.904155 137.749957 
L 330.384738 133.412351 
L 333.582663 131.06304 
L 339.358523 127.136202 
L 343.039456 124.376123 
L 348.332308 120.684741 
L 352.225499 117.689206 
L 356.608613 114.516292 
" clip-path="url(#p1182f25108)" style="fill: none; stroke: #000000"/>
    <path d="M 375.733885 99.319356 
L 377.753479 97.628455 
L 384.227446 91.845046 
L 385.314385 90.941538 
L 392.581596 84.254622 
L 393.201231 83.657534 
L 400.480414 77.567705 
L 402.175015 75.590988 
L 411.1488 70.929644 
" clip-path="url(#p1182f25108)" style="fill: none; stroke: #000000"/>
    <path d="M 375.188097 44.13312 
L 368.932614 50.820037 
L 366.279877 52.082788 
L 358.107379 57.506954 
L 357.306092 57.968682 
L 348.332308 63.383926 
L 347.119809 64.193871 
L 339.358523 69.018021 
L 336.54978 70.880788 
L 330.384738 75.070552 
L 327.313601 77.156309 
" clip-path="url(#p1182f25108)" style="fill: none; stroke: #000000"/>
    <path d="M 307.605218 91.587998 
L 303.463385 94.885567 
L 299.759383 97.628455 
L 294.4896 101.932402 
L 291.336846 104.315372 
L 285.515815 109.144452 
L 283.093648 111.002289 
L 276.542031 116.476302 
L 274.974546 117.689206 
L 267.568246 123.874852 
L 266.922388 124.376123 
L 258.867737 131.06304 
L 258.594462 131.307937 
L 250.763037 137.749957 
L 249.620677 138.746955 
L 242.573276 144.436874 
L 240.646892 146.063916 
L 234.222525 151.123791 
L 231.673108 153.195541 
L 225.632766 157.810708 
L 222.699323 160.092223 
L 216.726548 164.497625 
L 213.725538 166.721077 
L 207.43068 171.184542 
L 204.751754 173.067719 
L 197.681411 177.871458 
L 195.777969 179.136871 
L 187.431643 184.558375 
L 186.804185 184.951955 
L 177.8304 190.597737 
L 176.818395 191.245292 
L 168.856615 196.097316 
L 165.918381 197.932209 
L 159.882831 201.476302 
L 154.750099 204.619126 
L 150.909046 206.80134 
L 143.458661 211.306043 
L 141.935262 212.148836 
L 132.961477 217.575842 
L 132.342886 217.99296 
L 123.987692 223.117205 
L 121.748546 224.679877 
L 115.013908 228.913133 
L 111.679086 231.366794 
L 106.040123 235.078718 
L 102.289522 238.053711 
L 97.066338 241.760669 
L 93.671507 244.740628 
L 88.092554 249.188377 
L 85.854651 251.427545 
L 79.118769 257.84908 
L 78.89339 258.114462 
L 72.8293 264.801378 
L 70.144985 267.720611 
L 67.394051 271.488295 
L 62.998826 278.175212 
L 61.1712 281.142447 
" clip-path="url(#p1182f25108)" style="fill: none; stroke: #000000"/>
   </g>
   <g id="patch_3">
    <path d="M 57.6 307.584 
L 57.6 41.472 
" style="fill: none; stroke: #000000; stroke-width: 0.8; stroke-linejoin: miter; stroke-linecap: square"/>
   </g>
   <g id="patch_4">
    <path d="M 414.72 307.584 
L 414.72 41.472 
" style="fill: none; stroke: #000000; stroke-width: 0.8; stroke-linejoin: miter; stroke-linecap: square"/>
   </g>
   <g id="patch_5">
    <path d="M 57.6 307.584 
L 414.72 307.584 
" style="fill: none; stroke: #000000; stroke-width: 0.8; stroke-linejoin: miter; stroke-linecap: square"/>
   </g>
   <g id="patch_6">
    <path d="M 57.6 41.472 
L 414.72 41.472 
" style="fill: none; stroke: #000000; stroke-width: 0.8; stroke-linejoin: miter; stroke-linecap: square"/>
   </g>
   <g id="text_13">
    <!-- Clayton-gaussian-gumbel mixture Copula PDF -->
    <g transform="translate(98.144062 35.472)scale(0.12 -0.12)">
     <defs>
      <path id="DejaVuSans-43" d="M 4122 4306 
L 4122 3641 
Q 3803 3938 3442 4084 
Q 3081 4231 2675 4231 
Q 1875 4231 1450 3742 
Q 1025 3253 1025 2328 
Q 1025 1406 1450 917 
Q 1875 428 2675 428 
Q 3081 428 3442 575 
Q 3803 722 4122 1019 
L 4122 359 
Q 3791 134 3420 21 
Q 3050 -91 2638 -91 
Q 1578 -91 968 557 
Q 359 1206 359 2328 
Q 359 3453 968 4101 
Q 1578 4750 2638 4750 
Q 3056 4750 3426 4639 
Q 3797 4528 4122 4306 
z
" transform="scale(0.015625)"/>
      <path id="DejaVuSans-6c" d="M 603 4863 
L 1178 4863 
L 1178 0 
L 603 0 
L 603 4863 
z
" transform="scale(0.015625)"/>
      <path id="DejaVuSans-61" d="M 2194 1759 
Q 1497 1759 1228 1600 
Q 959 1441 959 1056 
Q 959 750 1161 570 
Q 1363 391 1709 391 
Q 2188 391 2477 730 
Q 2766 1069 2766 1631 
L 2766 1759 
L 2194 1759 
z
M 3341 1997 
L 3341 0 
L 2766 0 
L 2766 531 
Q 2569 213 2275 61 
Q 1981 -91 1556 -91 
Q 1019 -91 701 211 
Q 384 513 384 1019 
Q 384 1609 779 1909 
Q 1175 2209 1959 2209 
L 2766 2209 
L 2766 2266 
Q 2766 2663 2505 2880 
Q 2244 3097 1772 3097 
Q 1472 3097 1187 3025 
Q 903 2953 641 2809 
L 641 3341 
Q 956 3463 1253 3523 
Q 1550 3584 1831 3584 
Q 2591 3584 2966 3190 
Q 3341 2797 3341 1997 
z
" transform="scale(0.015625)"/>
      <path id="DejaVuSans-79" d="M 2059 -325 
Q 1816 -950 1584 -1140 
Q 1353 -1331 966 -1331 
L 506 -1331 
L 506 -850 
L 844 -850 
Q 1081 -850 1212 -737 
Q 1344 -625 1503 -206 
L 1606 56 
L 191 3500 
L 800 3500 
L 1894 763 
L 2988 3500 
L 3597 3500 
L 2059 -325 
z
" transform="scale(0.015625)"/>
      <path id="DejaVuSans-74" d="M 1172 4494 
L 1172 3500 
L 2356 3500 
L 2356 3053 
L 1172 3053 
L 1172 1153 
Q 1172 725 1289 603 
Q 1406 481 1766 481 
L 2356 481 
L 2356 0 
L 1766 0 
Q 1100 0 847 248 
Q 594 497 594 1153 
L 594 3053 
L 172 3053 
L 172 3500 
L 594 3500 
L 594 4494 
L 1172 4494 
z
" transform="scale(0.015625)"/>
      <path id="DejaVuSans-6f" d="M 1959 3097 
Q 1497 3097 1228 2736 
Q 959 2375 959 1747 
Q 959 1119 1226 758 
Q 1494 397 1959 397 
Q 2419 397 2687 759 
Q 2956 1122 2956 1747 
Q 2956 2369 2687 2733 
Q 2419 3097 1959 3097 
z
M 1959 3584 
Q 2709 3584 3137 3096 
Q 3566 2609 3566 1747 
Q 3566 888 3137 398 
Q 2709 -91 1959 -91 
Q 1206 -91 779 398 
Q 353 888 353 1747 
Q 353 2609 779 3096 
Q 1206 3584 1959 3584 
z
" transform="scale(0.015625)"/>
      <path id="DejaVuSans-6e" d="M 3513 2113 
L 3513 0 
L 2938 0 
L 2938 2094 
Q 2938 2591 2744 2837 
Q 2550 3084 2163 3084 
Q 1697 3084 1428 2787 
Q 1159 2491 1159 1978 
L 1159 0 
L 581 0 
L 581 3500 
L 1159 3500 
L 1159 2956 
Q 1366 3272 1645 3428 
Q 1925 3584 2291 3584 
Q 2894 3584 3203 3211 
Q 3513 2838 3513 2113 
z
" transform="scale(0.015625)"/>
      <path id="DejaVuSans-2d" d="M 313 2009 
L 1997 2009 
L 1997 1497 
L 313 1497 
L 313 2009 
z
" transform="scale(0.015625)"/>
      <path id="DejaVuSans-67" d="M 2906 1791 
Q 2906 2416 2648 2759 
Q 2391 3103 1925 3103 
Q 1463 3103 1205 2759 
Q 947 2416 947 1791 
Q 947 1169 1205 825 
Q 1463 481 1925 481 
Q 2391 481 2648 825 
Q 2906 1169 2906 1791 
z
M 3481 434 
Q 3481 -459 3084 -895 
Q 2688 -1331 1869 -1331 
Q 1566 -1331 1297 -1286 
Q 1028 -1241 775 -1147 
L 775 -588 
Q 1028 -725 1275 -790 
Q 1522 -856 1778 -856 
Q 2344 -856 2625 -561 
Q 2906 -266 2906 331 
L 2906 616 
Q 2728 306 2450 153 
Q 2172 0 1784 0 
Q 1141 0 747 490 
Q 353 981 353 1791 
Q 353 2603 747 3093 
Q 1141 3584 1784 3584 
Q 2172 3584 2450 3431 
Q 2728 3278 2906 2969 
L 2906 3500 
L 3481 3500 
L 3481 434 
z
" transform="scale(0.015625)"/>
      <path id="DejaVuSans-75" d="M 544 1381 
L 544 3500 
L 1119 3500 
L 1119 1403 
Q 1119 906 1312 657 
Q 1506 409 1894 409 
Q 2359 409 2629 706 
Q 2900 1003 2900 1516 
L 2900 3500 
L 3475 3500 
L 3475 0 
L 2900 0 
L 2900 538 
Q 2691 219 2414 64 
Q 2138 -91 1772 -91 
Q 1169 -91 856 284 
Q 544 659 544 1381 
z
M 1991 3584 
L 1991 3584 
z
" transform="scale(0.015625)"/>
      <path id="DejaVuSans-73" d="M 2834 3397 
L 2834 2853 
Q 2591 2978 2328 3040 
Q 2066 3103 1784 3103 
Q 1356 3103 1142 2972 
Q 928 2841 928 2578 
Q 928 2378 1081 2264 
Q 1234 2150 1697 2047 
L 1894 2003 
Q 2506 1872 2764 1633 
Q 3022 1394 3022 966 
Q 3022 478 2636 193 
Q 2250 -91 1575 -91 
Q 1294 -91 989 -36 
Q 684 19 347 128 
L 347 722 
Q 666 556 975 473 
Q 1284 391 1588 391 
Q 1994 391 2212 530 
Q 2431 669 2431 922 
Q 2431 1156 2273 1281 
Q 2116 1406 1581 1522 
L 1381 1569 
Q 847 1681 609 1914 
Q 372 2147 372 2553 
Q 372 3047 722 3315 
Q 1072 3584 1716 3584 
Q 2034 3584 2315 3537 
Q 2597 3491 2834 3397 
z
" transform="scale(0.015625)"/>
      <path id="DejaVuSans-69" d="M 603 3500 
L 1178 3500 
L 1178 0 
L 603 0 
L 603 3500 
z
M 603 4863 
L 1178 4863 
L 1178 4134 
L 603 4134 
L 603 4863 
z
" transform="scale(0.015625)"/>
      <path id="DejaVuSans-6d" d="M 3328 2828 
Q 3544 3216 3844 3400 
Q 4144 3584 4550 3584 
Q 5097 3584 5394 3201 
Q 5691 2819 5691 2113 
L 5691 0 
L 5113 0 
L 5113 2094 
Q 5113 2597 4934 2840 
Q 4756 3084 4391 3084 
Q 3944 3084 3684 2787 
Q 3425 2491 3425 1978 
L 3425 0 
L 2847 0 
L 2847 2094 
Q 2847 2600 2669 2842 
Q 2491 3084 2119 3084 
Q 1678 3084 1418 2786 
Q 1159 2488 1159 1978 
L 1159 0 
L 581 0 
L 581 3500 
L 1159 3500 
L 1159 2956 
Q 1356 3278 1631 3431 
Q 1906 3584 2284 3584 
Q 2666 3584 2933 3390 
Q 3200 3197 3328 2828 
z
" transform="scale(0.015625)"/>
      <path id="DejaVuSans-62" d="M 3116 1747 
Q 3116 2381 2855 2742 
Q 2594 3103 2138 3103 
Q 1681 3103 1420 2742 
Q 1159 2381 1159 1747 
Q 1159 1113 1420 752 
Q 1681 391 2138 391 
Q 2594 391 2855 752 
Q 3116 1113 3116 1747 
z
M 1159 2969 
Q 1341 3281 1617 3432 
Q 1894 3584 2278 3584 
Q 2916 3584 3314 3078 
Q 3713 2572 3713 1747 
Q 3713 922 3314 415 
Q 2916 -91 2278 -91 
Q 1894 -91 1617 61 
Q 1341 213 1159 525 
L 1159 0 
L 581 0 
L 581 4863 
L 1159 4863 
L 1159 2969 
z
" transform="scale(0.015625)"/>
      <path id="DejaVuSans-65" d="M 3597 1894 
L 3597 1613 
L 953 1613 
Q 991 1019 1311 708 
Q 1631 397 2203 397 
Q 2534 397 2845 478 
Q 3156 559 3463 722 
L 3463 178 
Q 3153 47 2828 -22 
Q 2503 -91 2169 -91 
Q 1331 -91 842 396 
Q 353 884 353 1716 
Q 353 2575 817 3079 
Q 1281 3584 2069 3584 
Q 2775 3584 3186 3129 
Q 3597 2675 3597 1894 
z
M 3022 2063 
Q 3016 2534 2758 2815 
Q 2500 3097 2075 3097 
Q 1594 3097 1305 2825 
Q 1016 2553 972 2059 
L 3022 2063 
z
" transform="scale(0.015625)"/>
      <path id="DejaVuSans-20" transform="scale(0.015625)"/>
      <path id="DejaVuSans-78" d="M 3513 3500 
L 2247 1797 
L 3578 0 
L 2900 0 
L 1881 1375 
L 863 0 
L 184 0 
L 1544 1831 
L 300 3500 
L 978 3500 
L 1906 2253 
L 2834 3500 
L 3513 3500 
z
" transform="scale(0.015625)"/>
      <path id="DejaVuSans-72" d="M 2631 2963 
Q 2534 3019 2420 3045 
Q 2306 3072 2169 3072 
Q 1681 3072 1420 2755 
Q 1159 2438 1159 1844 
L 1159 0 
L 581 0 
L 581 3500 
L 1159 3500 
L 1159 2956 
Q 1341 3275 1631 3429 
Q 1922 3584 2338 3584 
Q 2397 3584 2469 3576 
Q 2541 3569 2628 3553 
L 2631 2963 
z
" transform="scale(0.015625)"/>
      <path id="DejaVuSans-70" d="M 1159 525 
L 1159 -1331 
L 581 -1331 
L 581 3500 
L 1159 3500 
L 1159 2969 
Q 1341 3281 1617 3432 
Q 1894 3584 2278 3584 
Q 2916 3584 3314 3078 
Q 3713 2572 3713 1747 
Q 3713 922 3314 415 
Q 2916 -91 2278 -91 
Q 1894 -91 1617 61 
Q 1341 213 1159 525 
z
M 3116 1747 
Q 3116 2381 2855 2742 
Q 2594 3103 2138 3103 
Q 1681 3103 1420 2742 
Q 1159 2381 1159 1747 
Q 1159 1113 1420 752 
Q 1681 391 2138 391 
Q 2594 391 2855 752 
Q 3116 1113 3116 1747 
z
" transform="scale(0.015625)"/>
      <path id="DejaVuSans-50" d="M 1259 4147 
L 1259 2394 
L 2053 2394 
Q 2494 2394 2734 2622 
Q 2975 2850 2975 3272 
Q 2975 3691 2734 3919 
Q 2494 4147 2053 4147 
L 1259 4147 
z
M 628 4666 
L 2053 4666 
Q 2838 4666 3239 4311 
Q 3641 3956 3641 3272 
Q 3641 2581 3239 2228 
Q 2838 1875 2053 1875 
L 1259 1875 
L 1259 0 
L 628 0 
L 628 4666 
z
" transform="scale(0.015625)"/>
      <path id="DejaVuSans-44" d="M 1259 4147 
L 1259 519 
L 2022 519 
Q 2988 519 3436 956 
Q 3884 1394 3884 2338 
Q 3884 3275 3436 3711 
Q 2988 4147 2022 4147 
L 1259 4147 
z
M 628 4666 
L 1925 4666 
Q 3281 4666 3915 4102 
Q 4550 3538 4550 2338 
Q 4550 1131 3912 565 
Q 3275 0 1925 0 
L 628 0 
L 628 4666 
z
" transform="scale(0.015625)"/>
      <path id="DejaVuSans-46" d="M 628 4666 
L 3309 4666 
L 3309 4134 
L 1259 4134 
L 1259 2759 
L 3109 2759 
L 3109 2228 
L 1259 2228 
L 1259 0 
L 628 0 
L 628 4666 
z
" transform="scale(0.015625)"/>
     </defs>
     <use xlink:href="#DejaVuSans-43"/>
     <use xlink:href="#DejaVuSans-6c" x="69.824219"/>
     <use xlink:href="#DejaVuSans-61" x="97.607422"/>
     <use xlink:href="#DejaVuSans-79" x="158.886719"/>
     <use xlink:href="#DejaVuSans-74" x="218.066406"/>
     <use xlink:href="#DejaVuSans-6f" x="257.275391"/>
     <use xlink:href="#DejaVuSans-6e" x="318.457031"/>
     <use xlink:href="#DejaVuSans-2d" x="381.835938"/>
     <use xlink:href="#DejaVuSans-67" x="417.919922"/>
     <use xlink:href="#DejaVuSans-61" x="481.396484"/>
     <use xlink:href="#DejaVuSans-75" x="542.675781"/>
     <use xlink:href="#DejaVuSans-73" x="606.054688"/>
     <use xlink:href="#DejaVuSans-73" x="658.154297"/>
     <use xlink:href="#DejaVuSans-69" x="710.253906"/>
     <use xlink:href="#DejaVuSans-61" x="738.037109"/>
     <use xlink:href="#DejaVuSans-6e" x="799.316406"/>
     <use xlink:href="#DejaVuSans-2d" x="862.695312"/>
     <use xlink:href="#DejaVuSans-67" x="898.779297"/>
     <use xlink:href="#DejaVuSans-75" x="962.255859"/>
     <use xlink:href="#DejaVuSans-6d" x="1025.634766"/>
     <use xlink:href="#DejaVuSans-62" x="1123.046875"/>
     <use xlink:href="#DejaVuSans-65" x="1186.523438"/>
     <use xlink:href="#DejaVuSans-6c" x="1248.046875"/>
     <use xlink:href="#DejaVuSans-20" x="1275.830078"/>
     <use xlink:href="#DejaVuSans-6d" x="1307.617188"/>
     <use xlink:href="#DejaVuSans-69" x="1405.029297"/>
     <use xlink:href="#DejaVuSans-78" x="1432.8125"/>
     <use xlink:href="#DejaVuSans-74" x="1491.992188"/>
     <use xlink:href="#DejaVuSans-75" x="1531.201172"/>
     <use xlink:href="#DejaVuSans-72" x="1594.580078"/>
     <use xlink:href="#DejaVuSans-65" x="1633.443359"/>
     <use xlink:href="#DejaVuSans-20" x="1694.966797"/>
     <use xlink:href="#DejaVuSans-43" x="1726.753906"/>
     <use xlink:href="#DejaVuSans-6f" x="1796.578125"/>
     <use xlink:href="#DejaVuSans-70" x="1857.759766"/>
     <use xlink:href="#DejaVuSans-75" x="1921.236328"/>
     <use xlink:href="#DejaVuSans-6c" x="1984.615234"/>
     <use xlink:href="#DejaVuSans-61" x="2012.398438"/>
     <use xlink:href="#DejaVuSans-20" x="2073.677734"/>
     <use xlink:href="#DejaVuSans-50" x="2105.464844"/>
     <use xlink:href="#DejaVuSans-44" x="2165.767578"/>
     <use xlink:href="#DejaVuSans-46" x="2242.769531"/>
    </g>
   </g>
   <g id="text_14">
    <g clip-path="url(#p1182f25108)">
     <!-- 0.10 -->
     <g transform="translate(356.119631 290.431108)rotate(-23.44663)scale(0.08 -0.08)">
      <use xlink:href="#DejaVuSans-30"/>
      <use xlink:href="#DejaVuSans-2e" x="63.623047"/>
      <use xlink:href="#DejaVuSans-31" x="95.410156"/>
      <use xlink:href="#DejaVuSans-30" x="159.033203"/>
     </g>
    </g>
   </g>
   <g id="text_15">
    <g clip-path="url(#p1182f25108)">
     <!-- 0.10 -->
     <g transform="translate(81.383249 92.802594)rotate(-54.76221)scale(0.08 -0.08)">
      <use xlink:href="#DejaVuSans-30"/>
      <use xlink:href="#DejaVuSans-2e" x="63.623047"/>
      <use xlink:href="#DejaVuSans-31" x="95.410156"/>
      <use xlink:href="#DejaVuSans-30" x="159.033203"/>
     </g>
    </g>
   </g>
   <g id="text_16">
    <g clip-path="url(#p1182f25108)">
     <!-- 0.40 -->
     <g transform="translate(224.175943 288.878399)rotate(-21.287363)scale(0.08 -0.08)">
      <use xlink:href="#DejaVuSans-30"/>
      <use xlink:href="#DejaVuSans-2e" x="63.623047"/>
      <use xlink:href="#DejaVuSans-34" x="95.410156"/>
      <use xlink:href="#DejaVuSans-30" x="159.033203"/>
     </g>
    </g>
   </g>
   <g id="text_17">
    <g clip-path="url(#p1182f25108)">
     <!-- 0.40 -->
     <g transform="translate(86.501013 186.432781)rotate(-54.992709)scale(0.08 -0.08)">
      <use xlink:href="#DejaVuSans-30"/>
      <use xlink:href="#DejaVuSans-2e" x="63.623047"/>
      <use xlink:href="#DejaVuSans-34" x="95.410156"/>
      <use xlink:href="#DejaVuSans-30" x="159.033203"/>
     </g>
    </g>
   </g>
   <g id="text_18">
    <g clip-path="url(#p1182f25108)">
     <!-- 0.80 -->
     <g transform="translate(297.683728 207.87219)rotate(-37.037666)scale(0.08 -0.08)">
      <use xlink:href="#DejaVuSans-30"/>
      <use xlink:href="#DejaVuSans-2e" x="63.623047"/>
      <use xlink:href="#DejaVuSans-38" x="95.410156"/>
      <use xlink:href="#DejaVuSans-30" x="159.033203"/>
     </g>
    </g>
   </g>
   <g id="text_19">
    <g clip-path="url(#p1182f25108)">
     <!-- 0.80 -->
     <g transform="translate(249.366465 91.485656)rotate(-38.083763)scale(0.08 -0.08)">
      <use xlink:href="#DejaVuSans-30"/>
      <use xlink:href="#DejaVuSans-2e" x="63.623047"/>
      <use xlink:href="#DejaVuSans-38" x="95.410156"/>
      <use xlink:href="#DejaVuSans-30" x="159.033203"/>
     </g>
    </g>
   </g>
   <g id="text_20">
    <g clip-path="url(#p1182f25108)">
     <!-- 1.30 -->
     <g transform="translate(263.4036 198.445228)rotate(-37.76942)scale(0.08 -0.08)">
      <defs>
       <path id="DejaVuSans-33" d="M 2597 2516 
Q 3050 2419 3304 2112 
Q 3559 1806 3559 1356 
Q 3559 666 3084 287 
Q 2609 -91 1734 -91 
Q 1441 -91 1130 -33 
Q 819 25 488 141 
L 488 750 
Q 750 597 1062 519 
Q 1375 441 1716 441 
Q 2309 441 2620 675 
Q 2931 909 2931 1356 
Q 2931 1769 2642 2001 
Q 2353 2234 1838 2234 
L 1294 2234 
L 1294 2753 
L 1863 2753 
Q 2328 2753 2575 2939 
Q 2822 3125 2822 3475 
Q 2822 3834 2567 4026 
Q 2313 4219 1838 4219 
Q 1578 4219 1281 4162 
Q 984 4106 628 3988 
L 628 4550 
Q 988 4650 1302 4700 
Q 1616 4750 1894 4750 
Q 2613 4750 3031 4423 
Q 3450 4097 3450 3541 
Q 3450 3153 3228 2886 
Q 3006 2619 2597 2516 
z
" transform="scale(0.015625)"/>
      </defs>
      <use xlink:href="#DejaVuSans-31"/>
      <use xlink:href="#DejaVuSans-2e" x="63.623047"/>
      <use xlink:href="#DejaVuSans-33" x="95.410156"/>
      <use xlink:href="#DejaVuSans-30" x="159.033203"/>
     </g>
    </g>
   </g>
   <g id="text_21">
    <g clip-path="url(#p1182f25108)">
     <!-- 1.30 -->
     <g transform="translate(187.12537 171.395694)rotate(-34.823335)scale(0.08 -0.08)">
      <use xlink:href="#DejaVuSans-31"/>
      <use xlink:href="#DejaVuSans-2e" x="63.623047"/>
      <use xlink:href="#DejaVuSans-33" x="95.410156"/>
      <use xlink:href="#DejaVuSans-30" x="159.033203"/>
     </g>
    </g>
   </g>
   <g id="text_22">
    <g clip-path="url(#p1182f25108)">
     <!-- 1.60 -->
     <g transform="translate(360.674433 114.319774)rotate(-38.424785)scale(0.08 -0.08)">
      <use xlink:href="#DejaVuSans-31"/>
      <use xlink:href="#DejaVuSans-2e" x="63.623047"/>
      <use xlink:href="#DejaVuSans-36" x="95.410156"/>
      <use xlink:href="#DejaVuSans-30" x="159.033203"/>
     </g>
    </g>
   </g>
   <g id="text_23">
    <g clip-path="url(#p1182f25108)">
     <!-- 1.60 -->
     <g transform="translate(311.494621 91.300312)rotate(-36.241352)scale(0.08 -0.08)">
      <use xlink:href="#DejaVuSans-31"/>
      <use xlink:href="#DejaVuSans-2e" x="63.623047"/>
      <use xlink:href="#DejaVuSans-36" x="95.410156"/>
      <use xlink:href="#DejaVuSans-30" x="159.033203"/>
     </g>
    </g>
   </g>
  </g>
 </g>
 <defs>
  <clipPath id="p1182f25108">
   <rect x="57.6" y="41.472" width="357.12" height="266.112"/>
  </clipPath>
 </defs>
</svg>
