<?xml version="1.0" encoding="utf-8" standalone="no"?>
<!DOCTYPE svg PUBLIC "-//W3C//DTD SVG 1.1//EN"
  "http://www.w3.org/Graphics/SVG/1.1/DTD/svg11.dtd">
<svg xmlns:xlink="http://www.w3.org/1999/xlink" width="460.8pt" height="345.6pt" viewBox="0 0 460.8 345.6" xmlns="http://www.w3.org/2000/svg" version="1.1">
 <metadata>
  <rdf:RDF xmlns:dc="http://purl.org/dc/elements/1.1/" xmlns:cc="http://creativecommons.org/ns#" xmlns:rdf="http://www.w3.org/1999/02/22-rdf-syntax-ns#">
   <cc:Work>
    <dc:type rdf:resource="http://purl.org/dc/dcmitype/StillImage"/>
    <dc:date>2022-04-25T14:05:43.626792</dc:date>
    <dc:format>image/svg+xml</dc:format>
    <dc:creator>
     <cc:Agent>
      <dc:title>Matplotlib v3.5.1, https://matplotlib.org/</dc:title>
     </cc:Agent>
    </dc:creator>
   </cc:Work>
  </rdf:RDF>
 </metadata>
 <defs>
  <style type="text/css">*{stroke-linejoin: round; stroke-linecap: butt}</style>
 </defs>
 <g id="figure_1">
  <g id="patch_1">
   <path d="M 0 345.6 
L 460.8 345.6 
L 460.8 0 
L 0 0 
z
" style="fill: #ffffff"/>
  </g>
  <g id="axes_1">
   <g id="patch_2">
    <path d="M 57.6 307.584 
L 414.72 307.584 
L 414.72 41.472 
L 57.6 41.472 
z
" style="fill: #ffffff"/>
   </g>
   <g id="matplotlib.axis_1">
    <g id="xtick_1">
     <g id="line2d_1">
      <defs>
       <path id="mea103d39f6" d="M 0 0 
L 0 3.5 
" style="stroke: #000000; stroke-width: 0.8"/>
      </defs>
      <g>
       <use xlink:href="#mea103d39f6" x="57.6" y="307.584" style="stroke: #000000; stroke-width: 0.8"/>
      </g>
     </g>
     <g id="text_1">
      <!-- 0.0 -->
      <g transform="translate(49.648438 322.182437)scale(0.1 -0.1)">
       <defs>
        <path id="DejaVuSans-30" d="M 2034 4250 
Q 1547 4250 1301 3770 
Q 1056 3291 1056 2328 
Q 1056 1369 1301 889 
Q 1547 409 2034 409 
Q 2525 409 2770 889 
Q 3016 1369 3016 2328 
Q 3016 3291 2770 3770 
Q 2525 4250 2034 4250 
z
M 2034 4750 
Q 2819 4750 3233 4129 
Q 3647 3509 3647 2328 
Q 3647 1150 3233 529 
Q 2819 -91 2034 -91 
Q 1250 -91 836 529 
Q 422 1150 422 2328 
Q 422 3509 836 4129 
Q 1250 4750 2034 4750 
z
" transform="scale(0.015625)"/>
        <path id="DejaVuSans-2e" d="M 684 794 
L 1344 794 
L 1344 0 
L 684 0 
L 684 794 
z
" transform="scale(0.015625)"/>
       </defs>
       <use xlink:href="#DejaVuSans-30"/>
       <use xlink:href="#DejaVuSans-2e" x="63.623047"/>
       <use xlink:href="#DejaVuSans-30" x="95.410156"/>
      </g>
     </g>
    </g>
    <g id="xtick_2">
     <g id="line2d_2">
      <g>
       <use xlink:href="#mea103d39f6" x="129.024" y="307.584" style="stroke: #000000; stroke-width: 0.8"/>
      </g>
     </g>
     <g id="text_2">
      <!-- 0.2 -->
      <g transform="translate(121.072438 322.182437)scale(0.1 -0.1)">
       <defs>
        <path id="DejaVuSans-32" d="M 1228 531 
L 3431 531 
L 3431 0 
L 469 0 
L 469 531 
Q 828 903 1448 1529 
Q 2069 2156 2228 2338 
Q 2531 2678 2651 2914 
Q 2772 3150 2772 3378 
Q 2772 3750 2511 3984 
Q 2250 4219 1831 4219 
Q 1534 4219 1204 4116 
Q 875 4013 500 3803 
L 500 4441 
Q 881 4594 1212 4672 
Q 1544 4750 1819 4750 
Q 2544 4750 2975 4387 
Q 3406 4025 3406 3419 
Q 3406 3131 3298 2873 
Q 3191 2616 2906 2266 
Q 2828 2175 2409 1742 
Q 1991 1309 1228 531 
z
" transform="scale(0.015625)"/>
       </defs>
       <use xlink:href="#DejaVuSans-30"/>
       <use xlink:href="#DejaVuSans-2e" x="63.623047"/>
       <use xlink:href="#DejaVuSans-32" x="95.410156"/>
      </g>
     </g>
    </g>
    <g id="xtick_3">
     <g id="line2d_3">
      <g>
       <use xlink:href="#mea103d39f6" x="200.448" y="307.584" style="stroke: #000000; stroke-width: 0.8"/>
      </g>
     </g>
     <g id="text_3">
      <!-- 0.4 -->
      <g transform="translate(192.496438 322.182437)scale(0.1 -0.1)">
       <defs>
        <path id="DejaVuSans-34" d="M 2419 4116 
L 825 1625 
L 2419 1625 
L 2419 4116 
z
M 2253 4666 
L 3047 4666 
L 3047 1625 
L 3713 1625 
L 3713 1100 
L 3047 1100 
L 3047 0 
L 2419 0 
L 2419 1100 
L 313 1100 
L 313 1709 
L 2253 4666 
z
" transform="scale(0.015625)"/>
       </defs>
       <use xlink:href="#DejaVuSans-30"/>
       <use xlink:href="#DejaVuSans-2e" x="63.623047"/>
       <use xlink:href="#DejaVuSans-34" x="95.410156"/>
      </g>
     </g>
    </g>
    <g id="xtick_4">
     <g id="line2d_4">
      <g>
       <use xlink:href="#mea103d39f6" x="271.872" y="307.584" style="stroke: #000000; stroke-width: 0.8"/>
      </g>
     </g>
     <g id="text_4">
      <!-- 0.6 -->
      <g transform="translate(263.920438 322.182437)scale(0.1 -0.1)">
       <defs>
        <path id="DejaVuSans-36" d="M 2113 2584 
Q 1688 2584 1439 2293 
Q 1191 2003 1191 1497 
Q 1191 994 1439 701 
Q 1688 409 2113 409 
Q 2538 409 2786 701 
Q 3034 994 3034 1497 
Q 3034 2003 2786 2293 
Q 2538 2584 2113 2584 
z
M 3366 4563 
L 3366 3988 
Q 3128 4100 2886 4159 
Q 2644 4219 2406 4219 
Q 1781 4219 1451 3797 
Q 1122 3375 1075 2522 
Q 1259 2794 1537 2939 
Q 1816 3084 2150 3084 
Q 2853 3084 3261 2657 
Q 3669 2231 3669 1497 
Q 3669 778 3244 343 
Q 2819 -91 2113 -91 
Q 1303 -91 875 529 
Q 447 1150 447 2328 
Q 447 3434 972 4092 
Q 1497 4750 2381 4750 
Q 2619 4750 2861 4703 
Q 3103 4656 3366 4563 
z
" transform="scale(0.015625)"/>
       </defs>
       <use xlink:href="#DejaVuSans-30"/>
       <use xlink:href="#DejaVuSans-2e" x="63.623047"/>
       <use xlink:href="#DejaVuSans-36" x="95.410156"/>
      </g>
     </g>
    </g>
    <g id="xtick_5">
     <g id="line2d_5">
      <g>
       <use xlink:href="#mea103d39f6" x="343.296" y="307.584" style="stroke: #000000; stroke-width: 0.8"/>
      </g>
     </g>
     <g id="text_5">
      <!-- 0.8 -->
      <g transform="translate(335.344438 322.182437)scale(0.1 -0.1)">
       <defs>
        <path id="DejaVuSans-38" d="M 2034 2216 
Q 1584 2216 1326 1975 
Q 1069 1734 1069 1313 
Q 1069 891 1326 650 
Q 1584 409 2034 409 
Q 2484 409 2743 651 
Q 3003 894 3003 1313 
Q 3003 1734 2745 1975 
Q 2488 2216 2034 2216 
z
M 1403 2484 
Q 997 2584 770 2862 
Q 544 3141 544 3541 
Q 544 4100 942 4425 
Q 1341 4750 2034 4750 
Q 2731 4750 3128 4425 
Q 3525 4100 3525 3541 
Q 3525 3141 3298 2862 
Q 3072 2584 2669 2484 
Q 3125 2378 3379 2068 
Q 3634 1759 3634 1313 
Q 3634 634 3220 271 
Q 2806 -91 2034 -91 
Q 1263 -91 848 271 
Q 434 634 434 1313 
Q 434 1759 690 2068 
Q 947 2378 1403 2484 
z
M 1172 3481 
Q 1172 3119 1398 2916 
Q 1625 2713 2034 2713 
Q 2441 2713 2670 2916 
Q 2900 3119 2900 3481 
Q 2900 3844 2670 4047 
Q 2441 4250 2034 4250 
Q 1625 4250 1398 4047 
Q 1172 3844 1172 3481 
z
" transform="scale(0.015625)"/>
       </defs>
       <use xlink:href="#DejaVuSans-30"/>
       <use xlink:href="#DejaVuSans-2e" x="63.623047"/>
       <use xlink:href="#DejaVuSans-38" x="95.410156"/>
      </g>
     </g>
    </g>
    <g id="xtick_6">
     <g id="line2d_6">
      <g>
       <use xlink:href="#mea103d39f6" x="414.72" y="307.584" style="stroke: #000000; stroke-width: 0.8"/>
      </g>
     </g>
     <g id="text_6">
      <!-- 1.0 -->
      <g transform="translate(406.768438 322.182437)scale(0.1 -0.1)">
       <defs>
        <path id="DejaVuSans-31" d="M 794 531 
L 1825 531 
L 1825 4091 
L 703 3866 
L 703 4441 
L 1819 4666 
L 2450 4666 
L 2450 531 
L 3481 531 
L 3481 0 
L 794 0 
L 794 531 
z
" transform="scale(0.015625)"/>
       </defs>
       <use xlink:href="#DejaVuSans-31"/>
       <use xlink:href="#DejaVuSans-2e" x="63.623047"/>
       <use xlink:href="#DejaVuSans-30" x="95.410156"/>
      </g>
     </g>
    </g>
   </g>
   <g id="matplotlib.axis_2">
    <g id="ytick_1">
     <g id="line2d_7">
      <defs>
       <path id="mf935214083" d="M 0 0 
L -3.5 0 
" style="stroke: #000000; stroke-width: 0.8"/>
      </defs>
      <g>
       <use xlink:href="#mf935214083" x="57.6" y="307.584" style="stroke: #000000; stroke-width: 0.8"/>
      </g>
     </g>
     <g id="text_7">
      <!-- 0.0 -->
      <g transform="translate(34.696875 311.383219)scale(0.1 -0.1)">
       <use xlink:href="#DejaVuSans-30"/>
       <use xlink:href="#DejaVuSans-2e" x="63.623047"/>
       <use xlink:href="#DejaVuSans-30" x="95.410156"/>
      </g>
     </g>
    </g>
    <g id="ytick_2">
     <g id="line2d_8">
      <g>
       <use xlink:href="#mf935214083" x="57.6" y="254.3616" style="stroke: #000000; stroke-width: 0.8"/>
      </g>
     </g>
     <g id="text_8">
      <!-- 0.2 -->
      <g transform="translate(34.696875 258.160819)scale(0.1 -0.1)">
       <use xlink:href="#DejaVuSans-30"/>
       <use xlink:href="#DejaVuSans-2e" x="63.623047"/>
       <use xlink:href="#DejaVuSans-32" x="95.410156"/>
      </g>
     </g>
    </g>
    <g id="ytick_3">
     <g id="line2d_9">
      <g>
       <use xlink:href="#mf935214083" x="57.6" y="201.1392" style="stroke: #000000; stroke-width: 0.8"/>
      </g>
     </g>
     <g id="text_9">
      <!-- 0.4 -->
      <g transform="translate(34.696875 204.938419)scale(0.1 -0.1)">
       <use xlink:href="#DejaVuSans-30"/>
       <use xlink:href="#DejaVuSans-2e" x="63.623047"/>
       <use xlink:href="#DejaVuSans-34" x="95.410156"/>
      </g>
     </g>
    </g>
    <g id="ytick_4">
     <g id="line2d_10">
      <g>
       <use xlink:href="#mf935214083" x="57.6" y="147.9168" style="stroke: #000000; stroke-width: 0.8"/>
      </g>
     </g>
     <g id="text_10">
      <!-- 0.6 -->
      <g transform="translate(34.696875 151.716019)scale(0.1 -0.1)">
       <use xlink:href="#DejaVuSans-30"/>
       <use xlink:href="#DejaVuSans-2e" x="63.623047"/>
       <use xlink:href="#DejaVuSans-36" x="95.410156"/>
      </g>
     </g>
    </g>
    <g id="ytick_5">
     <g id="line2d_11">
      <g>
       <use xlink:href="#mf935214083" x="57.6" y="94.6944" style="stroke: #000000; stroke-width: 0.8"/>
      </g>
     </g>
     <g id="text_11">
      <!-- 0.8 -->
      <g transform="translate(34.696875 98.493619)scale(0.1 -0.1)">
       <use xlink:href="#DejaVuSans-30"/>
       <use xlink:href="#DejaVuSans-2e" x="63.623047"/>
       <use xlink:href="#DejaVuSans-38" x="95.410156"/>
      </g>
     </g>
    </g>
    <g id="ytick_6">
     <g id="line2d_12">
      <g>
       <use xlink:href="#mf935214083" x="57.6" y="41.472" style="stroke: #000000; stroke-width: 0.8"/>
      </g>
     </g>
     <g id="text_12">
      <!-- 1.0 -->
      <g transform="translate(34.696875 45.271219)scale(0.1 -0.1)">
       <use xlink:href="#DejaVuSans-31"/>
       <use xlink:href="#DejaVuSans-2e" x="63.623047"/>
       <use xlink:href="#DejaVuSans-30" x="95.410156"/>
      </g>
     </g>
    </g>
   </g>
   <g id="PathCollection_1"/>
   <g id="PathCollection_2">
    <path d="M 111.460741 44.13312 
L 113.340468 59.93856 
L 115.118514 73.10976 
L 117.129058 86.28096 
L 118.937655 96.81792 
L 120.95694 107.35488 
L 123.228144 117.89184 
L 125.124302 125.79456 
L 127.216718 133.69728 
L 129.534909 141.6 
L 132.117163 149.50272 
L 135.014266 157.40544 
L 137.150367 162.67392 
L 139.472081 167.9424 
L 142.479127 174.136497 
L 144.791354 178.47936 
L 147.855387 183.74784 
L 151.246548 189.01632 
L 155.020489 194.2848 
L 157.070114 196.91904 
L 161.553979 202.18752 
L 164.006781 204.82176 
L 167.225018 208.037528 
L 170.760145 211.293863 
L 174.295273 214.295108 
L 179.069879 217.99296 
L 182.792886 220.6272 
L 188.435782 224.260558 
L 191.970909 226.343612 
L 199.041164 230.121519 
L 202.576291 231.841928 
L 209.646545 234.990023 
L 216.7168 237.802217 
L 223.787055 240.329179 
L 230.857309 242.612378 
L 237.927564 244.685948 
L 246.553621 246.9696 
L 255.6032 249.118602 
L 266.208582 251.364263 
L 276.813964 253.36268 
L 287.419345 255.153108 
L 301.559855 257.267504 
L 315.700364 259.122861 
L 329.840873 260.765112 
L 347.516509 262.569728 
L 356.555775 263.400715 
L 356.555775 263.400715 
" clip-path="url(#pc3ba42be8e)" style="fill: none; stroke: #000000"/>
    <path d="M 380.905784 265.390825 
L 381.151317 265.40928 
L 382.867782 265.537334 
L 386.402909 265.795825 
L 389.938036 266.048361 
L 393.473164 266.29514 
L 397.008291 266.536353 
L 400.543418 266.772181 
L 404.078545 267.002798 
L 407.613673 267.228371 
L 411.1488 267.449061 
" clip-path="url(#pc3ba42be8e)" style="fill: none; stroke: #000000"/>
   </g>
   <g id="PathCollection_3">
    <path d="M 165.37375 44.13312 
L 166.020185 46.76736 
L 166.682185 49.4016 
L 167.225018 51.513404 
L 167.360333 52.03584 
L 168.055404 54.67008 
L 168.767855 57.30432 
L 169.17044 58.756166 
" clip-path="url(#pc3ba42be8e)" style="fill: none; stroke: #000000"/>
    <path d="M 176.457526 82.070531 
L 177.01346 83.64672 
L 177.8304 85.901643 
L 177.969344 86.28096 
L 178.954352 88.9152 
L 179.968359 91.54944 
L 181.012558 94.18368 
L 181.365527 95.053996 
L 182.089751 96.81792 
L 183.200755 99.45216 
L 184.346274 102.0864 
L 184.900655 103.329515 
L 185.529382 104.72064 
L 186.751793 107.35488 
L 188.013853 109.98912 
L 188.435782 110.848485 
L 189.319938 112.62336 
L 190.670986 115.2576 
L 191.970909 117.711123 
L 192.06814 117.89184 
L 193.517801 120.52608 
L 195.018209 123.16032 
L 195.506036 123.994849 
L 196.575736 125.79456 
L 198.191393 128.4288 
L 199.041164 129.774315 
L 199.86954 131.06304 
L 201.613834 133.69728 
L 202.576291 135.107139 
L 203.427849 136.33152 
L 205.316163 138.96576 
L 206.111418 140.042911 
L 207.28386 141.6 
L 209.333922 144.23424 
L 209.646545 144.625538 
L 211.476138 146.86848 
L 213.181673 148.88877 
L 213.711203 149.50272 
L 216.049581 152.13696 
L 216.7168 152.866739 
L 218.497798 154.7712 
L 220.251927 156.586961 
L 221.061262 157.40544 
L 223.749211 160.03968 
L 223.787055 160.075815 
L 226.575537 162.67392 
L 227.322182 163.348573 
L 229.546347 165.30816 
L 230.857309 166.429183 
L 232.673526 167.9424 
L 234.392436 169.333503 
L 235.970162 170.57664 
L 237.927564 172.075912 
L 239.45068 173.21088 
L 241.462691 174.66946 
L 243.13097 175.84512 
L 244.997818 177.125986 
L 247.028542 178.47936 
L 248.532945 179.456238 
L 251.162695 181.1136 
L 252.068073 181.669971 
L 255.554707 183.74784 
L 255.6032 183.776039 
L 259.138327 185.778995 
L 260.236719 186.38208 
L 262.673455 187.689189 
L 265.229224 189.01632 
L 266.208582 189.513506 
L 269.743709 191.255974 
L 270.567625 191.65056 
L 273.278836 192.921459 
L 276.288845 194.2848 
L 276.813964 194.517755 
L 280.349091 196.045382 
L 282.438691 196.91904 
L 283.884218 197.511633 
L 287.419345 198.918732 
L 289.062455 199.55328 
L 290.954473 200.270466 
L 294.4896 201.570246 
L 296.219058 202.18752 
L 298.024727 202.820736 
L 301.559855 204.024661 
L 303.975051 204.82176 
L 305.094982 205.18527 
L 308.630109 206.303316 
L 312.165236 207.383548 
L 312.407757 207.456 
L 315.700364 208.424652 
L 319.235491 209.431401 
L 321.617358 210.09024 
L 322.770618 210.404645 
L 326.305745 211.345083 
L 329.840873 212.255976 
L 331.70775 212.72448 
L 333.376 213.137583 
L 336.911127 213.991179 
L 340.446255 214.819057 
L 342.813425 215.35872 
L 343.981382 215.621739 
L 347.516509 216.399836 
L 351.051636 217.155434 
L 354.586764 217.889424 
L 355.095804 217.99296 
L 358.121891 218.601712 
L 361.657018 219.294054 
L 365.192145 219.967375 
L 368.727273 220.622397 
L 368.75368 220.6272 
L 372.2624 221.259107 
L 375.797527 221.878995 
L 379.332655 222.482683 
L 382.867782 223.070757 
L 384.037828 223.26144 
L 386.402909 223.643512 
L 389.938036 224.201713 
L 393.473164 224.746017 
L 397.008291 225.276909 
L 400.543418 225.794849 
L 401.244523 225.89568 
L 404.078545 226.300178 
L 407.613673 226.793475 
L 411.1488 227.275173 
" clip-path="url(#pc3ba42be8e)" style="fill: none; stroke: #000000"/>
   </g>
   <g id="PathCollection_4">
    <path d="M 219.354389 44.13312 
L 220.251927 46.351769 
L 220.421514 46.76736 
L 221.517124 49.4016 
L 222.642152 52.03584 
L 223.787055 54.646088 
L 223.797679 54.67008 
L 224.758214 56.800056 
" clip-path="url(#pc3ba42be8e)" style="fill: none; stroke: #000000"/>
    <path d="M 235.950762 78.604819 
L 237.363995 81.01248 
L 237.927564 81.950371 
L 238.960483 83.64672 
L 240.608727 86.28096 
L 241.462691 87.611142 
L 242.311747 88.9152 
L 244.072266 91.54944 
L 244.997818 92.898245 
L 245.893141 94.18368 
L 247.777498 96.81792 
L 248.532945 97.847431 
L 249.729225 99.45216 
L 251.750468 102.0864 
L 252.068073 102.490962 
L 253.847966 104.72064 
L 255.6032 106.854157 
L 256.022311 107.35488 
L 258.281243 109.98912 
L 259.138327 110.962266 
L 260.628182 112.62336 
L 262.673455 114.839159 
L 263.067016 115.2576 
L 265.60618 117.89184 
L 266.208582 118.501037 
L 268.25102 120.52608 
L 269.743709 121.966241 
L 271.006813 123.16032 
L 273.278836 125.251727 
L 273.881054 125.79456 
L 276.813964 128.370402 
L 276.881908 128.4288 
L 280.020007 131.06304 
L 280.349091 131.33252 
L 283.303015 133.69728 
L 283.884218 134.151286 
L 286.74098 136.33152 
L 287.419345 136.837012 
L 290.3452 138.96576 
L 290.954473 139.39885 
L 294.12796 141.6 
L 294.4896 141.845221 
L 298.024727 144.18361 
L 298.103096 144.23424 
L 301.559855 146.419731 
L 302.288332 146.86848 
L 305.094982 148.561503 
L 306.697426 149.50272 
L 308.630109 150.615014 
L 311.3477 152.13696 
L 312.165236 152.585847 
L 315.700364 154.477933 
L 316.261908 154.7712 
L 319.235491 156.295258 
L 321.464665 157.40544 
L 322.770618 158.044106 
L 326.305745 159.727374 
L 326.977711 160.03968 
L 329.840873 161.347612 
L 332.833081 162.67392 
L 333.376 162.910587 
L 336.911127 164.416739 
L 339.06466 165.30816 
L 340.446255 165.87109 
L 343.981382 167.27524 
L 345.706424 167.9424 
L 347.516509 168.632086 
L 351.051636 169.943956 
L 352.801671 170.57664 
L 354.586764 171.212981 
L 358.121891 172.441188 
L 360.398376 173.21088 
L 361.657018 173.63083 
L 365.192145 174.783019 
L 368.549586 175.84512 
L 368.727273 175.900633 
L 372.2624 176.983601 
L 375.797527 178.035017 
L 377.327037 178.47936 
L 379.332655 179.055396 
L 382.867782 180.046269 
L 386.402909 181.009302 
L 386.793373 181.1136 
L 389.938036 181.944851 
L 393.473164 182.854717 
L 397.008291 183.739923 
L 397.040488 183.74784 
L 400.543418 184.600977 
L 404.078545 185.439304 
L 407.613673 186.255711 
L 408.171392 186.38208 
L 411.1488 187.050891 
" clip-path="url(#pc3ba42be8e)" style="fill: none; stroke: #000000"/>
   </g>
   <g id="PathCollection_5">
    <path d="M 273.424706 44.13312 
L 275.006809 46.76736 
L 276.635432 49.4016 
L 276.813964 49.684768 
L 278.313204 52.03584 
L 280.041663 54.67008 
L 280.349091 55.129034 
L 281.823999 57.30432 
L 283.661707 59.93856 
L 283.884218 60.25109 
L 285.558766 62.5728 
L 287.419345 65.078142 
L 287.516369 65.20704 
L 289.539588 67.84128 
L 290.954473 69.632694 
L 291.629755 70.47552 
L 293.79139 73.10976 
L 294.4896 73.940624 
L 296.028275 75.744 
L 298.024727 78.020879 
L 298.343052 78.37824 
L 300.742019 81.01248 
L 301.559855 81.88859 
L 303.228632 83.64672 
L 305.094982 85.562522 
L 305.807048 86.28096 
L 308.483072 88.9152 
L 308.630109 89.05689 
L 311.264166 91.54944 
L 312.165236 92.381332 
L 314.154443 94.18368 
L 315.700364 95.551053 
L 317.160644 96.81792 
L 319.235491 98.57615 
L 320.290077 99.45216 
L 322.770618 101.465995 
L 323.55066 102.0864 
L 326.305745 104.229287 
L 326.950965 104.72064 
L 329.840873 106.874088 
L 330.500264 107.35488 
L 333.376 109.407863 
L 334.208578 109.98912 
L 336.911127 111.837524 
L 338.086726 112.62336 
L 340.446255 114.169456 
L 342.146379 115.2576 
L 343.981382 116.40956 
L 346.400117 117.89184 
L 347.516509 118.563282 
L 350.861489 120.52608 
L 351.051636 120.635646 
L 354.586764 122.629716 
L 355.550902 123.16032 
L 358.121891 124.551052 
L 360.199493 125.646043 
" clip-path="url(#pc3ba42be8e)" style="fill: none; stroke: #000000"/>
    <path d="M 382.310589 136.021596 
L 382.867782 136.259222 
L 383.040762 136.33152 
L 386.402909 137.717952 
L 389.518624 138.96576 
L 389.938036 139.131567 
L 393.473164 140.500956 
L 396.392378 141.6 
L 397.008291 141.829083 
L 400.543418 143.117064 
L 403.698537 144.23424 
L 404.078545 144.367275 
L 407.613673 145.580862 
L 411.1488 146.759784 
" clip-path="url(#pc3ba42be8e)" style="fill: none; stroke: #000000"/>
   </g>
   <g id="PathCollection_6">
    <path d="M 327.617646 44.13312 
L 329.840873 46.763693 
L 329.844014 46.76736 
L 332.144773 49.4016 
L 333.376 50.774733 
L 334.523176 52.03584 
L 336.911127 54.59418 
L 336.983041 54.67008 
L 339.529726 57.30432 
L 340.446255 58.229348 
L 342.166979 59.93856 
L 343.981382 61.697345 
L 344.899593 62.5728 
L 347.516509 65.009057 
L 347.732854 65.20704 
L 350.67336 67.84128 
L 351.051636 68.17283 
L 353.726939 70.47552 
L 354.586764 71.199183 
L 356.899805 73.10976 
L 358.121891 74.097418 
L 360.199153 75.744 
L 361.657018 76.875348 
L 363.632757 78.37824 
L 365.192145 79.540236 
L 367.209013 81.01248 
L 368.727273 82.098825 
L 370.936971 83.64672 
L 372.2624 84.557371 
L 374.826378 86.28096 
L 375.797527 86.921668 
L 377.125735 87.778516 
" clip-path="url(#pc3ba42be8e)" style="fill: none; stroke: #000000"/>
    <path d="M 398.32444 100.081508 
L 400.543418 101.231569 
L 402.235813 102.0864 
L 404.078545 103.003862 
L 407.613673 104.718299 
L 407.618593 104.72064 
L 411.1488 106.377303 
" clip-path="url(#pc3ba42be8e)" style="fill: none; stroke: #000000"/>
   </g>
   <g id="PathCollection_7">
    <path d="M 381.984099 44.13312 
L 382.867782 44.904069 
L 385.040777 46.76736 
L 386.402909 47.909829 
L 387.338264 48.680362 
" clip-path="url(#pc3ba42be8e)" style="fill: none; stroke: #000000"/>
    <path d="M 407.064478 63.224226 
L 407.613673 63.587808 
L 410.114193 65.20704 
L 411.1488 65.865526 
" clip-path="url(#pc3ba42be8e)" style="fill: none; stroke: #000000"/>
   </g>
   <g id="PathCollection_8"/>
   <g id="patch_3">
    <path d="M 57.6 307.584 
L 57.6 41.472 
" style="fill: none; stroke: #000000; stroke-width: 0.8; stroke-linejoin: miter; stroke-linecap: square"/>
   </g>
   <g id="patch_4">
    <path d="M 414.72 307.584 
L 414.72 41.472 
" style="fill: none; stroke: #000000; stroke-width: 0.8; stroke-linejoin: miter; stroke-linecap: square"/>
   </g>
   <g id="patch_5">
    <path d="M 57.6 307.584 
L 414.72 307.584 
" style="fill: none; stroke: #000000; stroke-width: 0.8; stroke-linejoin: miter; stroke-linecap: square"/>
   </g>
   <g id="patch_6">
    <path d="M 57.6 41.472 
L 414.72 41.472 
" style="fill: none; stroke: #000000; stroke-width: 0.8; stroke-linejoin: miter; stroke-linecap: square"/>
   </g>
   <g id="text_13">
    <!-- Plackett Copula CDF -->
    <g transform="translate(175.355625 35.472)scale(0.12 -0.12)">
     <defs>
      <path id="DejaVuSans-50" d="M 1259 4147 
L 1259 2394 
L 2053 2394 
Q 2494 2394 2734 2622 
Q 2975 2850 2975 3272 
Q 2975 3691 2734 3919 
Q 2494 4147 2053 4147 
L 1259 4147 
z
M 628 4666 
L 2053 4666 
Q 2838 4666 3239 4311 
Q 3641 3956 3641 3272 
Q 3641 2581 3239 2228 
Q 2838 1875 2053 1875 
L 1259 1875 
L 1259 0 
L 628 0 
L 628 4666 
z
" transform="scale(0.015625)"/>
      <path id="DejaVuSans-6c" d="M 603 4863 
L 1178 4863 
L 1178 0 
L 603 0 
L 603 4863 
z
" transform="scale(0.015625)"/>
      <path id="DejaVuSans-61" d="M 2194 1759 
Q 1497 1759 1228 1600 
Q 959 1441 959 1056 
Q 959 750 1161 570 
Q 1363 391 1709 391 
Q 2188 391 2477 730 
Q 2766 1069 2766 1631 
L 2766 1759 
L 2194 1759 
z
M 3341 1997 
L 3341 0 
L 2766 0 
L 2766 531 
Q 2569 213 2275 61 
Q 1981 -91 1556 -91 
Q 1019 -91 701 211 
Q 384 513 384 1019 
Q 384 1609 779 1909 
Q 1175 2209 1959 2209 
L 2766 2209 
L 2766 2266 
Q 2766 2663 2505 2880 
Q 2244 3097 1772 3097 
Q 1472 3097 1187 3025 
Q 903 2953 641 2809 
L 641 3341 
Q 956 3463 1253 3523 
Q 1550 3584 1831 3584 
Q 2591 3584 2966 3190 
Q 3341 2797 3341 1997 
z
" transform="scale(0.015625)"/>
      <path id="DejaVuSans-63" d="M 3122 3366 
L 3122 2828 
Q 2878 2963 2633 3030 
Q 2388 3097 2138 3097 
Q 1578 3097 1268 2742 
Q 959 2388 959 1747 
Q 959 1106 1268 751 
Q 1578 397 2138 397 
Q 2388 397 2633 464 
Q 2878 531 3122 666 
L 3122 134 
Q 2881 22 2623 -34 
Q 2366 -91 2075 -91 
Q 1284 -91 818 406 
Q 353 903 353 1747 
Q 353 2603 823 3093 
Q 1294 3584 2113 3584 
Q 2378 3584 2631 3529 
Q 2884 3475 3122 3366 
z
" transform="scale(0.015625)"/>
      <path id="DejaVuSans-6b" d="M 581 4863 
L 1159 4863 
L 1159 1991 
L 2875 3500 
L 3609 3500 
L 1753 1863 
L 3688 0 
L 2938 0 
L 1159 1709 
L 1159 0 
L 581 0 
L 581 4863 
z
" transform="scale(0.015625)"/>
      <path id="DejaVuSans-65" d="M 3597 1894 
L 3597 1613 
L 953 1613 
Q 991 1019 1311 708 
Q 1631 397 2203 397 
Q 2534 397 2845 478 
Q 3156 559 3463 722 
L 3463 178 
Q 3153 47 2828 -22 
Q 2503 -91 2169 -91 
Q 1331 -91 842 396 
Q 353 884 353 1716 
Q 353 2575 817 3079 
Q 1281 3584 2069 3584 
Q 2775 3584 3186 3129 
Q 3597 2675 3597 1894 
z
M 3022 2063 
Q 3016 2534 2758 2815 
Q 2500 3097 2075 3097 
Q 1594 3097 1305 2825 
Q 1016 2553 972 2059 
L 3022 2063 
z
" transform="scale(0.015625)"/>
      <path id="DejaVuSans-74" d="M 1172 4494 
L 1172 3500 
L 2356 3500 
L 2356 3053 
L 1172 3053 
L 1172 1153 
Q 1172 725 1289 603 
Q 1406 481 1766 481 
L 2356 481 
L 2356 0 
L 1766 0 
Q 1100 0 847 248 
Q 594 497 594 1153 
L 594 3053 
L 172 3053 
L 172 3500 
L 594 3500 
L 594 4494 
L 1172 4494 
z
" transform="scale(0.015625)"/>
      <path id="DejaVuSans-20" transform="scale(0.015625)"/>
      <path id="DejaVuSans-43" d="M 4122 4306 
L 4122 3641 
Q 3803 3938 3442 4084 
Q 3081 4231 2675 4231 
Q 1875 4231 1450 3742 
Q 1025 3253 1025 2328 
Q 1025 1406 1450 917 
Q 1875 428 2675 428 
Q 3081 428 3442 575 
Q 3803 722 4122 1019 
L 4122 359 
Q 3791 134 3420 21 
Q 3050 -91 2638 -91 
Q 1578 -91 968 557 
Q 359 1206 359 2328 
Q 359 3453 968 4101 
Q 1578 4750 2638 4750 
Q 3056 4750 3426 4639 
Q 3797 4528 4122 4306 
z
" transform="scale(0.015625)"/>
      <path id="DejaVuSans-6f" d="M 1959 3097 
Q 1497 3097 1228 2736 
Q 959 2375 959 1747 
Q 959 1119 1226 758 
Q 1494 397 1959 397 
Q 2419 397 2687 759 
Q 2956 1122 2956 1747 
Q 2956 2369 2687 2733 
Q 2419 3097 1959 3097 
z
M 1959 3584 
Q 2709 3584 3137 3096 
Q 3566 2609 3566 1747 
Q 3566 888 3137 398 
Q 2709 -91 1959 -91 
Q 1206 -91 779 398 
Q 353 888 353 1747 
Q 353 2609 779 3096 
Q 1206 3584 1959 3584 
z
" transform="scale(0.015625)"/>
      <path id="DejaVuSans-70" d="M 1159 525 
L 1159 -1331 
L 581 -1331 
L 581 3500 
L 1159 3500 
L 1159 2969 
Q 1341 3281 1617 3432 
Q 1894 3584 2278 3584 
Q 2916 3584 3314 3078 
Q 3713 2572 3713 1747 
Q 3713 922 3314 415 
Q 2916 -91 2278 -91 
Q 1894 -91 1617 61 
Q 1341 213 1159 525 
z
M 3116 1747 
Q 3116 2381 2855 2742 
Q 2594 3103 2138 3103 
Q 1681 3103 1420 2742 
Q 1159 2381 1159 1747 
Q 1159 1113 1420 752 
Q 1681 391 2138 391 
Q 2594 391 2855 752 
Q 3116 1113 3116 1747 
z
" transform="scale(0.015625)"/>
      <path id="DejaVuSans-75" d="M 544 1381 
L 544 3500 
L 1119 3500 
L 1119 1403 
Q 1119 906 1312 657 
Q 1506 409 1894 409 
Q 2359 409 2629 706 
Q 2900 1003 2900 1516 
L 2900 3500 
L 3475 3500 
L 3475 0 
L 2900 0 
L 2900 538 
Q 2691 219 2414 64 
Q 2138 -91 1772 -91 
Q 1169 -91 856 284 
Q 544 659 544 1381 
z
M 1991 3584 
L 1991 3584 
z
" transform="scale(0.015625)"/>
      <path id="DejaVuSans-44" d="M 1259 4147 
L 1259 519 
L 2022 519 
Q 2988 519 3436 956 
Q 3884 1394 3884 2338 
Q 3884 3275 3436 3711 
Q 2988 4147 2022 4147 
L 1259 4147 
z
M 628 4666 
L 1925 4666 
Q 3281 4666 3915 4102 
Q 4550 3538 4550 2338 
Q 4550 1131 3912 565 
Q 3275 0 1925 0 
L 628 0 
L 628 4666 
z
" transform="scale(0.015625)"/>
      <path id="DejaVuSans-46" d="M 628 4666 
L 3309 4666 
L 3309 4134 
L 1259 4134 
L 1259 2759 
L 3109 2759 
L 3109 2228 
L 1259 2228 
L 1259 0 
L 628 0 
L 628 4666 
z
" transform="scale(0.015625)"/>
     </defs>
     <use xlink:href="#DejaVuSans-50"/>
     <use xlink:href="#DejaVuSans-6c" x="60.302734"/>
     <use xlink:href="#DejaVuSans-61" x="88.085938"/>
     <use xlink:href="#DejaVuSans-63" x="149.365234"/>
     <use xlink:href="#DejaVuSans-6b" x="204.345703"/>
     <use xlink:href="#DejaVuSans-65" x="258.630859"/>
     <use xlink:href="#DejaVuSans-74" x="320.154297"/>
     <use xlink:href="#DejaVuSans-74" x="359.363281"/>
     <use xlink:href="#DejaVuSans-20" x="398.572266"/>
     <use xlink:href="#DejaVuSans-43" x="430.359375"/>
     <use xlink:href="#DejaVuSans-6f" x="500.183594"/>
     <use xlink:href="#DejaVuSans-70" x="561.365234"/>
     <use xlink:href="#DejaVuSans-75" x="624.841797"/>
     <use xlink:href="#DejaVuSans-6c" x="688.220703"/>
     <use xlink:href="#DejaVuSans-61" x="716.003906"/>
     <use xlink:href="#DejaVuSans-20" x="777.283203"/>
     <use xlink:href="#DejaVuSans-43" x="809.070312"/>
     <use xlink:href="#DejaVuSans-44" x="878.894531"/>
     <use xlink:href="#DejaVuSans-46" x="955.896484"/>
    </g>
   </g>
   <g id="text_14">
    <g clip-path="url(#pc3ba42be8e)">
     <!-- 0.15 -->
     <g transform="translate(359.670929 265.914089)rotate(-355.332563)scale(0.08 -0.08)">
      <defs>
       <path id="DejaVuSans-35" d="M 691 4666 
L 3169 4666 
L 3169 4134 
L 1269 4134 
L 1269 2991 
Q 1406 3038 1543 3061 
Q 1681 3084 1819 3084 
Q 2600 3084 3056 2656 
Q 3513 2228 3513 1497 
Q 3513 744 3044 326 
Q 2575 -91 1722 -91 
Q 1428 -91 1123 -41 
Q 819 9 494 109 
L 494 744 
Q 775 591 1075 516 
Q 1375 441 1709 441 
Q 2250 441 2565 725 
Q 2881 1009 2881 1497 
Q 2881 1984 2565 2268 
Q 2250 2553 1709 2553 
Q 1456 2553 1204 2497 
Q 953 2441 691 2322 
L 691 4666 
z
" transform="scale(0.015625)"/>
      </defs>
      <use xlink:href="#DejaVuSans-30"/>
      <use xlink:href="#DejaVuSans-2e" x="63.623047"/>
      <use xlink:href="#DejaVuSans-31" x="95.410156"/>
      <use xlink:href="#DejaVuSans-35" x="159.033203"/>
     </g>
    </g>
   </g>
   <g id="text_15">
    <g clip-path="url(#pc3ba42be8e)">
     <!-- 0.30 -->
     <g transform="translate(167.854763 62.631355)rotate(-287.332736)scale(0.08 -0.08)">
      <defs>
       <path id="DejaVuSans-33" d="M 2597 2516 
Q 3050 2419 3304 2112 
Q 3559 1806 3559 1356 
Q 3559 666 3084 287 
Q 2609 -91 1734 -91 
Q 1441 -91 1130 -33 
Q 819 25 488 141 
L 488 750 
Q 750 597 1062 519 
Q 1375 441 1716 441 
Q 2309 441 2620 675 
Q 2931 909 2931 1356 
Q 2931 1769 2642 2001 
Q 2353 2234 1838 2234 
L 1294 2234 
L 1294 2753 
L 1863 2753 
Q 2328 2753 2575 2939 
Q 2822 3125 2822 3475 
Q 2822 3834 2567 4026 
Q 2313 4219 1838 4219 
Q 1578 4219 1281 4162 
Q 984 4106 628 3988 
L 628 4550 
Q 988 4650 1302 4700 
Q 1616 4750 1894 4750 
Q 2613 4750 3031 4423 
Q 3450 4097 3450 3541 
Q 3450 3153 3228 2886 
Q 3006 2619 2597 2516 
z
" transform="scale(0.015625)"/>
      </defs>
      <use xlink:href="#DejaVuSans-30"/>
      <use xlink:href="#DejaVuSans-2e" x="63.623047"/>
      <use xlink:href="#DejaVuSans-33" x="95.410156"/>
      <use xlink:href="#DejaVuSans-30" x="159.033203"/>
     </g>
    </g>
   </g>
   <g id="text_16">
    <g clip-path="url(#pc3ba42be8e)">
     <!-- 0.45 -->
     <g transform="translate(224.055813 60.923766)rotate(-297.150665)scale(0.08 -0.08)">
      <use xlink:href="#DejaVuSans-30"/>
      <use xlink:href="#DejaVuSans-2e" x="63.623047"/>
      <use xlink:href="#DejaVuSans-34" x="95.410156"/>
      <use xlink:href="#DejaVuSans-35" x="159.033203"/>
     </g>
    </g>
   </g>
   <g id="text_17">
    <g clip-path="url(#pc3ba42be8e)">
     <!-- 0.60 -->
     <g transform="translate(362.146958 129.277935)rotate(-334.86103)scale(0.08 -0.08)">
      <use xlink:href="#DejaVuSans-30"/>
      <use xlink:href="#DejaVuSans-2e" x="63.623047"/>
      <use xlink:href="#DejaVuSans-36" x="95.410156"/>
      <use xlink:href="#DejaVuSans-30" x="159.033203"/>
     </g>
    </g>
   </g>
   <g id="text_18">
    <g clip-path="url(#pc3ba42be8e)">
     <!-- 0.75 -->
     <g transform="translate(378.765635 91.626189)rotate(-329.895235)scale(0.08 -0.08)">
      <defs>
       <path id="DejaVuSans-37" d="M 525 4666 
L 3525 4666 
L 3525 4397 
L 1831 0 
L 1172 0 
L 2766 4134 
L 525 4134 
L 525 4666 
z
" transform="scale(0.015625)"/>
      </defs>
      <use xlink:href="#DejaVuSans-30"/>
      <use xlink:href="#DejaVuSans-2e" x="63.623047"/>
      <use xlink:href="#DejaVuSans-37" x="95.410156"/>
      <use xlink:href="#DejaVuSans-35" x="159.033203"/>
     </g>
    </g>
   </g>
   <g id="text_19">
    <g clip-path="url(#pc3ba42be8e)">
     <!-- 0.90 -->
     <g transform="translate(388.528951 52.707579)rotate(-323.612786)scale(0.08 -0.08)">
      <defs>
       <path id="DejaVuSans-39" d="M 703 97 
L 703 672 
Q 941 559 1184 500 
Q 1428 441 1663 441 
Q 2288 441 2617 861 
Q 2947 1281 2994 2138 
Q 2813 1869 2534 1725 
Q 2256 1581 1919 1581 
Q 1219 1581 811 2004 
Q 403 2428 403 3163 
Q 403 3881 828 4315 
Q 1253 4750 1959 4750 
Q 2769 4750 3195 4129 
Q 3622 3509 3622 2328 
Q 3622 1225 3098 567 
Q 2575 -91 1691 -91 
Q 1453 -91 1209 -44 
Q 966 3 703 97 
z
M 1959 2075 
Q 2384 2075 2632 2365 
Q 2881 2656 2881 3163 
Q 2881 3666 2632 3958 
Q 2384 4250 1959 4250 
Q 1534 4250 1286 3958 
Q 1038 3666 1038 3163 
Q 1038 2656 1286 2365 
Q 1534 2075 1959 2075 
z
" transform="scale(0.015625)"/>
      </defs>
      <use xlink:href="#DejaVuSans-30"/>
      <use xlink:href="#DejaVuSans-2e" x="63.623047"/>
      <use xlink:href="#DejaVuSans-39" x="95.410156"/>
      <use xlink:href="#DejaVuSans-30" x="159.033203"/>
     </g>
    </g>
   </g>
  </g>
 </g>
 <defs>
  <clipPath id="pc3ba42be8e">
   <rect x="57.6" y="41.472" width="357.12" height="266.112"/>
  </clipPath>
 </defs>
</svg>
