<?xml version="1.0" encoding="utf-8" standalone="no"?>
<!DOCTYPE svg PUBLIC "-//W3C//DTD SVG 1.1//EN"
  "http://www.w3.org/Graphics/SVG/1.1/DTD/svg11.dtd">
<svg xmlns:xlink="http://www.w3.org/1999/xlink" width="460.8pt" height="345.6pt" viewBox="0 0 460.8 345.6" xmlns="http://www.w3.org/2000/svg" version="1.1">
 <metadata>
  <rdf:RDF xmlns:dc="http://purl.org/dc/elements/1.1/" xmlns:cc="http://creativecommons.org/ns#" xmlns:rdf="http://www.w3.org/1999/02/22-rdf-syntax-ns#">
   <cc:Work>
    <dc:type rdf:resource="http://purl.org/dc/dcmitype/StillImage"/>
    <dc:date>2022-04-25T14:05:55.444296</dc:date>
    <dc:format>image/svg+xml</dc:format>
    <dc:creator>
     <cc:Agent>
      <dc:title>Matplotlib v3.5.1, https://matplotlib.org/</dc:title>
     </cc:Agent>
    </dc:creator>
   </cc:Work>
  </rdf:RDF>
 </metadata>
 <defs>
  <style type="text/css">*{stroke-linejoin: round; stroke-linecap: butt}</style>
 </defs>
 <g id="figure_1">
  <g id="patch_1">
   <path d="M 0 345.6 
L 460.8 345.6 
L 460.8 0 
L 0 0 
z
" style="fill: #ffffff"/>
  </g>
  <g id="axes_1">
   <g id="patch_2">
    <path d="M 57.6 307.584 
L 414.72 307.584 
L 414.72 41.472 
L 57.6 41.472 
z
" style="fill: #ffffff"/>
   </g>
   <g id="matplotlib.axis_1">
    <g id="xtick_1">
     <g id="line2d_1">
      <defs>
       <path id="m84de3245e9" d="M 0 0 
L 0 3.5 
" style="stroke: #000000; stroke-width: 0.8"/>
      </defs>
      <g>
       <use xlink:href="#m84de3245e9" x="57.6" y="307.584" style="stroke: #000000; stroke-width: 0.8"/>
      </g>
     </g>
     <g id="text_1">
      <!-- 0.0 -->
      <g transform="translate(49.648438 322.182437)scale(0.1 -0.1)">
       <defs>
        <path id="DejaVuSans-30" d="M 2034 4250 
Q 1547 4250 1301 3770 
Q 1056 3291 1056 2328 
Q 1056 1369 1301 889 
Q 1547 409 2034 409 
Q 2525 409 2770 889 
Q 3016 1369 3016 2328 
Q 3016 3291 2770 3770 
Q 2525 4250 2034 4250 
z
M 2034 4750 
Q 2819 4750 3233 4129 
Q 3647 3509 3647 2328 
Q 3647 1150 3233 529 
Q 2819 -91 2034 -91 
Q 1250 -91 836 529 
Q 422 1150 422 2328 
Q 422 3509 836 4129 
Q 1250 4750 2034 4750 
z
" transform="scale(0.015625)"/>
        <path id="DejaVuSans-2e" d="M 684 794 
L 1344 794 
L 1344 0 
L 684 0 
L 684 794 
z
" transform="scale(0.015625)"/>
       </defs>
       <use xlink:href="#DejaVuSans-30"/>
       <use xlink:href="#DejaVuSans-2e" x="63.623047"/>
       <use xlink:href="#DejaVuSans-30" x="95.410156"/>
      </g>
     </g>
    </g>
    <g id="xtick_2">
     <g id="line2d_2">
      <g>
       <use xlink:href="#m84de3245e9" x="129.024" y="307.584" style="stroke: #000000; stroke-width: 0.8"/>
      </g>
     </g>
     <g id="text_2">
      <!-- 0.2 -->
      <g transform="translate(121.072438 322.182437)scale(0.1 -0.1)">
       <defs>
        <path id="DejaVuSans-32" d="M 1228 531 
L 3431 531 
L 3431 0 
L 469 0 
L 469 531 
Q 828 903 1448 1529 
Q 2069 2156 2228 2338 
Q 2531 2678 2651 2914 
Q 2772 3150 2772 3378 
Q 2772 3750 2511 3984 
Q 2250 4219 1831 4219 
Q 1534 4219 1204 4116 
Q 875 4013 500 3803 
L 500 4441 
Q 881 4594 1212 4672 
Q 1544 4750 1819 4750 
Q 2544 4750 2975 4387 
Q 3406 4025 3406 3419 
Q 3406 3131 3298 2873 
Q 3191 2616 2906 2266 
Q 2828 2175 2409 1742 
Q 1991 1309 1228 531 
z
" transform="scale(0.015625)"/>
       </defs>
       <use xlink:href="#DejaVuSans-30"/>
       <use xlink:href="#DejaVuSans-2e" x="63.623047"/>
       <use xlink:href="#DejaVuSans-32" x="95.410156"/>
      </g>
     </g>
    </g>
    <g id="xtick_3">
     <g id="line2d_3">
      <g>
       <use xlink:href="#m84de3245e9" x="200.448" y="307.584" style="stroke: #000000; stroke-width: 0.8"/>
      </g>
     </g>
     <g id="text_3">
      <!-- 0.4 -->
      <g transform="translate(192.496438 322.182437)scale(0.1 -0.1)">
       <defs>
        <path id="DejaVuSans-34" d="M 2419 4116 
L 825 1625 
L 2419 1625 
L 2419 4116 
z
M 2253 4666 
L 3047 4666 
L 3047 1625 
L 3713 1625 
L 3713 1100 
L 3047 1100 
L 3047 0 
L 2419 0 
L 2419 1100 
L 313 1100 
L 313 1709 
L 2253 4666 
z
" transform="scale(0.015625)"/>
       </defs>
       <use xlink:href="#DejaVuSans-30"/>
       <use xlink:href="#DejaVuSans-2e" x="63.623047"/>
       <use xlink:href="#DejaVuSans-34" x="95.410156"/>
      </g>
     </g>
    </g>
    <g id="xtick_4">
     <g id="line2d_4">
      <g>
       <use xlink:href="#m84de3245e9" x="271.872" y="307.584" style="stroke: #000000; stroke-width: 0.8"/>
      </g>
     </g>
     <g id="text_4">
      <!-- 0.6 -->
      <g transform="translate(263.920438 322.182437)scale(0.1 -0.1)">
       <defs>
        <path id="DejaVuSans-36" d="M 2113 2584 
Q 1688 2584 1439 2293 
Q 1191 2003 1191 1497 
Q 1191 994 1439 701 
Q 1688 409 2113 409 
Q 2538 409 2786 701 
Q 3034 994 3034 1497 
Q 3034 2003 2786 2293 
Q 2538 2584 2113 2584 
z
M 3366 4563 
L 3366 3988 
Q 3128 4100 2886 4159 
Q 2644 4219 2406 4219 
Q 1781 4219 1451 3797 
Q 1122 3375 1075 2522 
Q 1259 2794 1537 2939 
Q 1816 3084 2150 3084 
Q 2853 3084 3261 2657 
Q 3669 2231 3669 1497 
Q 3669 778 3244 343 
Q 2819 -91 2113 -91 
Q 1303 -91 875 529 
Q 447 1150 447 2328 
Q 447 3434 972 4092 
Q 1497 4750 2381 4750 
Q 2619 4750 2861 4703 
Q 3103 4656 3366 4563 
z
" transform="scale(0.015625)"/>
       </defs>
       <use xlink:href="#DejaVuSans-30"/>
       <use xlink:href="#DejaVuSans-2e" x="63.623047"/>
       <use xlink:href="#DejaVuSans-36" x="95.410156"/>
      </g>
     </g>
    </g>
    <g id="xtick_5">
     <g id="line2d_5">
      <g>
       <use xlink:href="#m84de3245e9" x="343.296" y="307.584" style="stroke: #000000; stroke-width: 0.8"/>
      </g>
     </g>
     <g id="text_5">
      <!-- 0.8 -->
      <g transform="translate(335.344438 322.182437)scale(0.1 -0.1)">
       <defs>
        <path id="DejaVuSans-38" d="M 2034 2216 
Q 1584 2216 1326 1975 
Q 1069 1734 1069 1313 
Q 1069 891 1326 650 
Q 1584 409 2034 409 
Q 2484 409 2743 651 
Q 3003 894 3003 1313 
Q 3003 1734 2745 1975 
Q 2488 2216 2034 2216 
z
M 1403 2484 
Q 997 2584 770 2862 
Q 544 3141 544 3541 
Q 544 4100 942 4425 
Q 1341 4750 2034 4750 
Q 2731 4750 3128 4425 
Q 3525 4100 3525 3541 
Q 3525 3141 3298 2862 
Q 3072 2584 2669 2484 
Q 3125 2378 3379 2068 
Q 3634 1759 3634 1313 
Q 3634 634 3220 271 
Q 2806 -91 2034 -91 
Q 1263 -91 848 271 
Q 434 634 434 1313 
Q 434 1759 690 2068 
Q 947 2378 1403 2484 
z
M 1172 3481 
Q 1172 3119 1398 2916 
Q 1625 2713 2034 2713 
Q 2441 2713 2670 2916 
Q 2900 3119 2900 3481 
Q 2900 3844 2670 4047 
Q 2441 4250 2034 4250 
Q 1625 4250 1398 4047 
Q 1172 3844 1172 3481 
z
" transform="scale(0.015625)"/>
       </defs>
       <use xlink:href="#DejaVuSans-30"/>
       <use xlink:href="#DejaVuSans-2e" x="63.623047"/>
       <use xlink:href="#DejaVuSans-38" x="95.410156"/>
      </g>
     </g>
    </g>
    <g id="xtick_6">
     <g id="line2d_6">
      <g>
       <use xlink:href="#m84de3245e9" x="414.72" y="307.584" style="stroke: #000000; stroke-width: 0.8"/>
      </g>
     </g>
     <g id="text_6">
      <!-- 1.0 -->
      <g transform="translate(406.768438 322.182437)scale(0.1 -0.1)">
       <defs>
        <path id="DejaVuSans-31" d="M 794 531 
L 1825 531 
L 1825 4091 
L 703 3866 
L 703 4441 
L 1819 4666 
L 2450 4666 
L 2450 531 
L 3481 531 
L 3481 0 
L 794 0 
L 794 531 
z
" transform="scale(0.015625)"/>
       </defs>
       <use xlink:href="#DejaVuSans-31"/>
       <use xlink:href="#DejaVuSans-2e" x="63.623047"/>
       <use xlink:href="#DejaVuSans-30" x="95.410156"/>
      </g>
     </g>
    </g>
   </g>
   <g id="matplotlib.axis_2">
    <g id="ytick_1">
     <g id="line2d_7">
      <defs>
       <path id="m6ff0cf21dd" d="M 0 0 
L -3.5 0 
" style="stroke: #000000; stroke-width: 0.8"/>
      </defs>
      <g>
       <use xlink:href="#m6ff0cf21dd" x="57.6" y="307.584" style="stroke: #000000; stroke-width: 0.8"/>
      </g>
     </g>
     <g id="text_7">
      <!-- 0.0 -->
      <g transform="translate(34.696875 311.383219)scale(0.1 -0.1)">
       <use xlink:href="#DejaVuSans-30"/>
       <use xlink:href="#DejaVuSans-2e" x="63.623047"/>
       <use xlink:href="#DejaVuSans-30" x="95.410156"/>
      </g>
     </g>
    </g>
    <g id="ytick_2">
     <g id="line2d_8">
      <g>
       <use xlink:href="#m6ff0cf21dd" x="57.6" y="254.3616" style="stroke: #000000; stroke-width: 0.8"/>
      </g>
     </g>
     <g id="text_8">
      <!-- 0.2 -->
      <g transform="translate(34.696875 258.160819)scale(0.1 -0.1)">
       <use xlink:href="#DejaVuSans-30"/>
       <use xlink:href="#DejaVuSans-2e" x="63.623047"/>
       <use xlink:href="#DejaVuSans-32" x="95.410156"/>
      </g>
     </g>
    </g>
    <g id="ytick_3">
     <g id="line2d_9">
      <g>
       <use xlink:href="#m6ff0cf21dd" x="57.6" y="201.1392" style="stroke: #000000; stroke-width: 0.8"/>
      </g>
     </g>
     <g id="text_9">
      <!-- 0.4 -->
      <g transform="translate(34.696875 204.938419)scale(0.1 -0.1)">
       <use xlink:href="#DejaVuSans-30"/>
       <use xlink:href="#DejaVuSans-2e" x="63.623047"/>
       <use xlink:href="#DejaVuSans-34" x="95.410156"/>
      </g>
     </g>
    </g>
    <g id="ytick_4">
     <g id="line2d_10">
      <g>
       <use xlink:href="#m6ff0cf21dd" x="57.6" y="147.9168" style="stroke: #000000; stroke-width: 0.8"/>
      </g>
     </g>
     <g id="text_10">
      <!-- 0.6 -->
      <g transform="translate(34.696875 151.716019)scale(0.1 -0.1)">
       <use xlink:href="#DejaVuSans-30"/>
       <use xlink:href="#DejaVuSans-2e" x="63.623047"/>
       <use xlink:href="#DejaVuSans-36" x="95.410156"/>
      </g>
     </g>
    </g>
    <g id="ytick_5">
     <g id="line2d_11">
      <g>
       <use xlink:href="#m6ff0cf21dd" x="57.6" y="94.6944" style="stroke: #000000; stroke-width: 0.8"/>
      </g>
     </g>
     <g id="text_11">
      <!-- 0.8 -->
      <g transform="translate(34.696875 98.493619)scale(0.1 -0.1)">
       <use xlink:href="#DejaVuSans-30"/>
       <use xlink:href="#DejaVuSans-2e" x="63.623047"/>
       <use xlink:href="#DejaVuSans-38" x="95.410156"/>
      </g>
     </g>
    </g>
    <g id="ytick_6">
     <g id="line2d_12">
      <g>
       <use xlink:href="#m6ff0cf21dd" x="57.6" y="41.472" style="stroke: #000000; stroke-width: 0.8"/>
      </g>
     </g>
     <g id="text_12">
      <!-- 1.0 -->
      <g transform="translate(34.696875 45.271219)scale(0.1 -0.1)">
       <use xlink:href="#DejaVuSans-31"/>
       <use xlink:href="#DejaVuSans-2e" x="63.623047"/>
       <use xlink:href="#DejaVuSans-30" x="95.410156"/>
      </g>
     </g>
    </g>
   </g>
   <g id="PathCollection_1"/>
   <g id="PathCollection_2">
    <path d="M 355.686181 304.92288 
L 358.121891 302.912284 
L 358.884369 302.28864 
L 361.116874 300.470823 
" clip-path="url(#pd12f004dbd)" style="fill: none; stroke: #000000"/>
    <path d="M 376.43517 288.418157 
L 378.979679 286.4832 
L 379.332655 286.216503 
L 382.488448 283.84896 
L 382.867782 283.566295 
L 386.045003 281.21472 
L 386.402909 280.951696 
L 389.650325 278.58048 
L 389.938036 278.371955 
L 393.30537 275.94624 
L 393.473164 275.826304 
L 397.008291 273.313987 
L 397.011103 273.312 
L 400.543418 270.836477 
L 400.771061 270.67776 
L 404.078545 268.391236 
L 404.583954 268.04352 
L 407.613673 265.97745 
L 408.450598 265.40928 
L 411.1488 263.594284 
" clip-path="url(#pd12f004dbd)" style="fill: none; stroke: #000000"/>
    <path d="M 116.633819 44.13312 
L 114.198109 46.143716 
L 113.435631 46.76736 
L 111.203126 48.585177 
" clip-path="url(#pd12f004dbd)" style="fill: none; stroke: #000000"/>
    <path d="M 95.88483 60.637843 
L 93.340321 62.5728 
L 92.987345 62.839497 
L 89.831552 65.20704 
L 89.452218 65.489705 
L 86.274997 67.84128 
L 85.917091 68.104304 
L 82.669675 70.47552 
L 82.381964 70.684045 
L 79.01463 73.10976 
L 78.846836 73.229696 
L 75.311709 75.742013 
L 75.308897 75.744 
L 71.776582 78.219523 
L 71.548939 78.37824 
L 68.241455 80.664764 
L 67.736046 81.01248 
L 64.706327 83.07855 
L 63.869402 83.64672 
L 61.1712 85.461716 
" clip-path="url(#pd12f004dbd)" style="fill: none; stroke: #000000"/>
   </g>
   <g id="PathCollection_3">
    <path d="M 267.38977 304.92288 
L 269.642412 302.28864 
L 269.743709 302.170451 
L 271.9441 299.6544 
L 273.278836 298.134209 
L 274.276345 297.02016 
L 276.644737 294.38592 
L 276.813964 294.198358 
L 279.063956 291.75168 
L 280.349091 290.361396 
L 281.520474 289.11744 
L 283.884218 286.621097 
L 284.017163 286.4832 
L 286.568759 283.84896 
L 287.419345 282.976224 
L 289.166489 281.21472 
L 290.954473 279.424125 
L 291.811348 278.58048 
L 294.4896 275.962224 
L 294.506223 275.94624 
L 297.263016 273.312 
L 298.024727 272.589877 
L 300.074376 270.67776 
L 301.559855 269.303402 
L 302.943038 268.04352 
L 305.094982 266.100315 
L 305.871938 265.40928 
L 308.630109 262.978197 
L 308.864016 262.77504 
L 311.924442 260.1408 
L 312.165236 259.935495 
L 315.05513 257.50656 
L 315.700364 256.96978 
L 318.256852 254.87232 
L 319.235491 254.077899 
L 321.532651 252.23808 
L 322.770618 251.257453 
L 324.885579 249.60384 
L 326.305745 248.50607 
L 328.318707 246.9696 
L 329.840873 245.821397 
L 331.835121 244.33536 
L 333.376 243.201101 
L 335.437929 241.70112 
L 336.911127 240.642867 
L 339.130262 239.06688 
L 340.446255 238.144394 
L 342.915275 236.43264 
L 343.981382 235.703396 
L 346.796155 233.7984 
L 347.516509 233.317597 
L 350.776119 231.16416 
L 351.051636 230.984729 
L 354.586764 228.704218 
L 354.859399 228.52992 
L 356.848996 227.276527 
" clip-path="url(#pd12f004dbd)" style="fill: none; stroke: #000000"/>
    <path d="M 373.646856 217.218788 
L 375.797527 215.997231 
L 376.929691 215.35872 
L 379.332655 214.026384 
L 381.696578 212.72448 
L 382.867782 212.090656 
L 386.402909 210.189305 
L 386.587966 210.09024 
L 389.938036 208.32887 
L 391.607414 207.456 
L 393.473164 206.498367 
L 396.756584 204.82176 
L 397.008291 204.695659 
L 400.543418 202.930824 
L 402.038463 202.18752 
L 404.078545 201.192926 
L 407.455065 199.55328 
L 407.613673 199.477798 
L 411.1488 197.799215 
" clip-path="url(#pd12f004dbd)" style="fill: none; stroke: #000000"/>
    <path d="M 204.93023 44.13312 
L 202.677588 46.76736 
L 202.576291 46.885549 
L 200.3759 49.4016 
L 199.041164 50.921791 
L 198.043655 52.03584 
L 195.675263 54.67008 
L 195.506036 54.857642 
L 193.256044 57.30432 
L 191.970909 58.694604 
L 190.799526 59.93856 
L 188.435782 62.434903 
L 188.302837 62.5728 
L 185.751241 65.20704 
L 184.900655 66.079776 
L 183.153511 67.84128 
L 181.365527 69.631875 
L 180.508652 70.47552 
L 177.8304 73.093776 
L 177.813777 73.10976 
L 175.056984 75.744 
L 174.295273 76.466123 
L 172.245624 78.37824 
L 170.760145 79.752598 
L 169.376962 81.01248 
L 167.225018 82.955685 
L 166.448062 83.64672 
L 163.689891 86.077803 
L 163.455984 86.28096 
L 160.395558 88.9152 
L 160.154764 89.120505 
L 157.26487 91.54944 
L 156.619636 92.08622 
L 154.063148 94.18368 
L 153.084509 94.978101 
L 150.787349 96.81792 
L 149.549382 97.798547 
L 147.434421 99.45216 
L 146.014255 100.54993 
L 144.001293 102.0864 
L 142.479127 103.234603 
L 140.484879 104.72064 
L 138.944 105.854899 
L 136.882071 107.35488 
L 135.408873 108.413133 
L 133.189738 109.98912 
L 131.873745 110.911606 
L 129.404725 112.62336 
L 128.338618 113.352604 
L 125.523845 115.2576 
L 124.803491 115.738403 
L 121.543881 117.89184 
L 121.268364 118.071271 
L 117.733236 120.351782 
L 117.460601 120.52608 
L 115.471004 121.779473 
" clip-path="url(#pd12f004dbd)" style="fill: none; stroke: #000000"/>
    <path d="M 98.673144 131.837212 
L 96.522473 133.058769 
L 95.390309 133.69728 
L 92.987345 135.029616 
L 90.623422 136.33152 
L 89.452218 136.965344 
L 85.917091 138.866695 
L 85.732034 138.96576 
L 82.381964 140.72713 
L 80.712586 141.6 
L 78.846836 142.557633 
L 75.563416 144.23424 
L 75.311709 144.360341 
L 71.776582 146.125176 
L 70.281537 146.86848 
L 68.241455 147.863074 
L 64.864935 149.50272 
L 64.706327 149.578202 
L 61.1712 151.256785 
" clip-path="url(#pd12f004dbd)" style="fill: none; stroke: #000000"/>
   </g>
   <g id="PathCollection_4">
    <path d="M 206.759814 304.92288 
L 207.991656 302.28864 
L 209.226357 299.6544 
L 209.646545 298.752405 
L 210.062863 297.88727 
" clip-path="url(#pd12f004dbd)" style="fill: none; stroke: #000000"/>
    <path d="M 218.698906 280.413528 
L 219.643393 278.58048 
L 220.251927 277.399335 
L 221.023546 275.94624 
L 222.425719 273.312 
L 223.787055 270.784249 
L 223.846129 270.67776 
L 225.298367 268.04352 
L 226.772076 265.40928 
L 227.322182 264.428256 
L 228.27675 262.77504 
L 229.811461 260.1408 
L 230.857309 258.366108 
L 231.37869 257.50656 
L 232.983251 254.87232 
L 234.392436 252.602234 
L 234.625042 252.23808 
L 236.310445 249.60384 
L 237.927564 247.137101 
L 238.040533 246.9696 
L 239.820535 244.33536 
L 241.462691 241.970203 
L 241.654884 241.70112 
L 243.54687 239.06688 
L 244.997818 237.100045 
L 245.504343 236.43264 
L 247.530523 233.7984 
L 248.532945 232.524119 
L 249.633825 231.16416 
L 251.822931 228.52992 
L 252.068073 228.238885 
L 254.099935 225.89568 
L 255.6032 224.215126 
L 256.481244 223.26144 
L 258.975369 220.6272 
L 259.138327 220.458131 
L 261.585774 217.99296 
L 262.673455 216.931342 
L 264.332994 215.35872 
L 266.208582 213.635591 
L 267.230029 212.72448 
L 269.743709 210.549859 
L 270.290933 210.09024 
L 273.278836 207.655455 
L 273.53097 207.456 
L 276.813964 204.935656 
L 276.966811 204.82176 
L 280.349091 202.3754 
L 280.616758 202.18752 
L 283.884218 199.96105 
L 284.501022 199.55328 
L 287.419345 197.680183 
L 288.642048 196.91904 
L 290.954473 195.521424 
L 293.064918 194.2848 
L 294.4896 193.474302 
L 297.797839 191.65056 
L 298.024727 191.52913 
L 301.559855 189.670605 
L 302.839693 189.01632 
L 305.094982 187.896145 
L 308.239543 186.38208 
L 308.630109 186.19941 
L 312.165236 184.568173 
L 313.990289 183.74784 
L 315.700364 183.000873 
L 319.235491 181.491043 
L 320.131143 181.1136 
L 322.770618 180.03241 
L 326.305745 178.622575 
L 326.666853 178.47936 
L 329.840873 177.255689 
L 333.376 175.929301 
L 333.600784 175.84512 
L 336.911127 174.640106 
L 340.446255 173.384209 
L 340.934946 173.21088 
L 343.981382 172.16081 
L 347.516509 170.965153 
L 348.670015 170.57664 
L 351.051636 169.797314 
L 354.586764 168.653707 
L 356.805365 167.9424 
L 358.121891 167.532482 
L 361.657018 166.434331 
L 365.192145 165.35218 
L 365.335053 165.30816 
L 368.727273 164.293746 
L 372.2624 163.2489 
L 374.212441 162.67392 
L 375.797527 162.220464 
L 379.332655 161.209053 
L 382.867782 160.206655 
L 383.452823 160.03968 
L 386.402909 159.223281 
L 389.938036 158.249414 
L 393.0136 157.40544 
L 393.473164 157.283256 
L 397.008291 156.335586 
L 400.543418 155.392356 
L 402.868076 154.7712 
L 404.078545 154.458092 
L 407.613673 153.53804 
L 411.1488 152.62012 
" clip-path="url(#pd12f004dbd)" style="fill: none; stroke: #000000"/>
    <path d="M 265.560186 44.13312 
L 264.328344 46.76736 
L 263.093643 49.4016 
L 262.673455 50.303595 
L 262.257137 51.16873 
" clip-path="url(#pd12f004dbd)" style="fill: none; stroke: #000000"/>
    <path d="M 253.621094 68.642472 
L 252.676607 70.47552 
L 252.068073 71.656665 
L 251.296454 73.10976 
L 249.894281 75.744 
L 248.532945 78.271751 
L 248.473871 78.37824 
L 247.021633 81.01248 
L 245.547924 83.64672 
L 244.997818 84.627744 
L 244.04325 86.28096 
L 242.508539 88.9152 
L 241.462691 90.689892 
L 240.94131 91.54944 
L 239.336749 94.18368 
L 237.927564 96.453766 
L 237.694958 96.81792 
L 236.009555 99.45216 
L 234.392436 101.918899 
L 234.279467 102.0864 
L 232.499465 104.72064 
L 230.857309 107.085797 
L 230.665116 107.35488 
L 228.77313 109.98912 
L 227.322182 111.955955 
L 226.815657 112.62336 
L 224.789477 115.2576 
L 223.787055 116.531881 
L 222.686175 117.89184 
L 220.497069 120.52608 
L 220.251927 120.817115 
L 218.220065 123.16032 
L 216.7168 124.840874 
L 215.838756 125.79456 
L 213.344631 128.4288 
L 213.181673 128.597869 
L 210.734226 131.06304 
L 209.646545 132.124658 
L 207.987006 133.69728 
L 206.111418 135.420409 
L 205.089971 136.33152 
L 202.576291 138.506141 
L 202.029067 138.96576 
L 199.041164 141.400545 
L 198.78903 141.6 
L 195.506036 144.120344 
L 195.353189 144.23424 
L 191.970909 146.6806 
L 191.703242 146.86848 
L 188.435782 149.09495 
L 187.818978 149.50272 
L 184.900655 151.375817 
L 183.677952 152.13696 
L 181.365527 153.534576 
L 179.255082 154.7712 
L 177.8304 155.581698 
L 174.522161 157.40544 
L 174.295273 157.52687 
L 170.760145 159.385395 
L 169.480307 160.03968 
L 167.225018 161.159855 
L 164.080457 162.67392 
L 163.689891 162.85659 
L 160.154764 164.487827 
L 158.329711 165.30816 
L 156.619636 166.055127 
L 153.084509 167.564957 
L 152.188857 167.9424 
L 149.549382 169.02359 
L 146.014255 170.433425 
L 145.653147 170.57664 
L 142.479127 171.800311 
L 138.944 173.126699 
L 138.719216 173.21088 
L 135.408873 174.415894 
L 131.873745 175.671791 
L 131.385054 175.84512 
L 128.338618 176.89519 
L 124.803491 178.090847 
L 123.649985 178.47936 
L 121.268364 179.258686 
L 117.733236 180.402293 
L 115.514635 181.1136 
L 114.198109 181.523518 
L 110.662982 182.621669 
L 107.127855 183.70382 
L 106.984947 183.74784 
L 103.592727 184.762254 
L 100.0576 185.8071 
L 98.107559 186.38208 
L 96.522473 186.835536 
L 92.987345 187.846947 
L 89.452218 188.849345 
L 88.867177 189.01632 
L 85.917091 189.832719 
L 82.381964 190.806586 
L 79.3064 191.65056 
L 78.846836 191.772744 
L 75.311709 192.720414 
L 71.776582 193.663644 
L 69.451924 194.2848 
L 68.241455 194.597908 
L 64.706327 195.51796 
L 61.1712 196.43588 
" clip-path="url(#pd12f004dbd)" style="fill: none; stroke: #000000"/>
   </g>
   <g id="PathCollection_5">
    <path d="M 161.732551 304.92288 
L 161.899544 302.28864 
L 162.030383 299.6544 
L 162.122358 297.02016 
L 162.172396 294.38592 
L 162.173717 293.632213 
" clip-path="url(#pd12f004dbd)" style="fill: none; stroke: #000000"/>
    <path d="M 160.668265 274.138498 
L 160.523312 273.312 
L 160.154764 271.556263 
L 159.963566 270.67776 
L 159.294096 268.04352 
L 158.497888 265.40928 
L 157.557655 262.77504 
L 156.619636 260.521644 
L 156.452535 260.1408 
L 155.153196 257.50656 
L 153.628991 254.87232 
L 153.084509 254.035658 
L 151.831042 252.23808 
L 149.708586 249.60384 
L 149.549382 249.425226 
L 147.168931 246.9696 
L 146.014255 245.9162 
L 144.109113 244.33536 
L 142.479127 243.120757 
L 140.357654 241.70112 
L 138.944 240.8407 
L 135.648571 239.06688 
L 135.408873 238.948247 
L 131.873745 237.366675 
L 129.461411 236.43264 
L 128.338618 236.026913 
L 124.803491 234.891135 
L 121.268364 233.922917 
L 120.757275 233.7984 
L 117.733236 233.099425 
L 114.198109 232.398799 
L 110.662982 231.805496 
L 107.127855 231.306633 
L 105.948911 231.16416 
L 103.592727 230.889532 
L 100.0576 230.545268 
L 96.522473 230.266825 
L 92.987345 230.047546 
L 89.452218 229.881658 
L 85.917091 229.764143 
L 82.381964 229.690621 
L 78.846836 229.657259 
L 75.311709 229.660698 
L 71.776582 229.697985 
L 68.241455 229.766521 
L 64.706327 229.864017 
L 61.1712 229.988454 
" clip-path="url(#pd12f004dbd)" style="fill: none; stroke: #000000"/>
    <path d="M 310.587449 44.13312 
L 310.420456 46.76736 
L 310.289617 49.4016 
L 310.197642 52.03584 
L 310.147604 54.67008 
L 310.146283 55.423787 
" clip-path="url(#pd12f004dbd)" style="fill: none; stroke: #000000"/>
    <path d="M 311.651735 74.917502 
L 311.796688 75.744 
L 312.165236 77.499737 
L 312.356434 78.37824 
L 313.025904 81.01248 
L 313.822112 83.64672 
L 314.762345 86.28096 
L 315.700364 88.534356 
L 315.867465 88.9152 
L 317.166804 91.54944 
L 318.691009 94.18368 
L 319.235491 95.020342 
L 320.488958 96.81792 
L 322.611414 99.45216 
L 322.770618 99.630774 
L 325.151069 102.0864 
L 326.305745 103.1398 
L 328.210887 104.72064 
L 329.840873 105.935243 
L 331.962346 107.35488 
L 333.376 108.2153 
L 336.671429 109.98912 
L 336.911127 110.107753 
L 340.446255 111.689325 
L 342.858589 112.62336 
L 343.981382 113.029087 
L 347.516509 114.164865 
L 351.051636 115.133083 
L 351.562725 115.2576 
L 354.586764 115.956575 
L 358.121891 116.657201 
L 361.657018 117.250504 
L 365.192145 117.749367 
L 366.371089 117.89184 
L 368.727273 118.166468 
L 372.2624 118.510732 
L 375.797527 118.789175 
L 379.332655 119.008454 
L 382.867782 119.174342 
L 386.402909 119.291857 
L 389.938036 119.365379 
L 393.473164 119.398741 
L 397.008291 119.395302 
L 400.543418 119.358015 
L 404.078545 119.289479 
L 407.613673 119.191983 
L 411.1488 119.067546 
" clip-path="url(#pd12f004dbd)" style="fill: none; stroke: #000000"/>
   </g>
   <g id="PathCollection_6">
    <path d="M 126.515379 304.92288 
L 125.607672 302.28864 
L 124.803491 300.193933 
L 124.592172 299.6544 
L 123.469328 297.02016 
L 122.208061 294.38592 
L 121.268364 292.610208 
L 120.799971 291.75168 
L 119.233338 289.11744 
L 117.733236 286.858629 
L 117.474037 286.4832 
L 115.510216 283.84896 
L 114.198109 282.255545 
L 113.298832 281.21472 
L 110.803436 278.58048 
L 110.662982 278.442119 
L 107.976853 275.94624 
L 107.127855 275.219397 
L 104.749025 273.312 
L 103.592727 272.450372 
L 101.033017 270.67776 
L 100.167978 270.116709 
" clip-path="url(#pd12f004dbd)" style="fill: none; stroke: #000000"/>
    <path d="M 82.529762 261.711724 
L 82.381964 261.657222 
L 78.846836 260.489828 
L 77.6947 260.1408 
L 75.311709 259.440574 
L 71.776582 258.500727 
L 68.241455 257.664026 
L 67.517406 257.50656 
L 64.706327 256.907315 
L 61.1712 256.230927 
" clip-path="url(#pd12f004dbd)" style="fill: none; stroke: #000000"/>
    <path d="M 345.804621 44.13312 
L 346.712328 46.76736 
L 347.516509 48.862067 
L 347.727828 49.4016 
L 348.850672 52.03584 
L 350.111939 54.67008 
L 351.051636 56.445792 
L 351.520029 57.30432 
L 353.086662 59.93856 
L 354.586764 62.197371 
L 354.845963 62.5728 
L 356.809784 65.20704 
L 358.121891 66.800455 
L 359.021168 67.84128 
L 361.516564 70.47552 
L 361.657018 70.613881 
L 364.343147 73.10976 
L 365.192145 73.836603 
L 367.570975 75.744 
L 368.727273 76.605628 
L 371.286983 78.37824 
L 372.152022 78.939291 
" clip-path="url(#pd12f004dbd)" style="fill: none; stroke: #000000"/>
    <path d="M 389.790238 87.344276 
L 389.938036 87.398778 
L 393.473164 88.566172 
L 394.6253 88.9152 
L 397.008291 89.615426 
L 400.543418 90.555273 
L 404.078545 91.391974 
L 404.802594 91.54944 
L 407.613673 92.148685 
L 411.1488 92.825073 
" clip-path="url(#pd12f004dbd)" style="fill: none; stroke: #000000"/>
   </g>
   <g id="PathCollection_7">
    <path d="M 97.946909 304.92288 
L 96.522473 303.015402 
L 95.962995 302.28864 
L 93.782004 299.6544 
L 92.987345 298.763049 
L 92.922386 298.692984 
" clip-path="url(#pd12f004dbd)" style="fill: none; stroke: #000000"/>
    <path d="M 78.076811 286.148476 
L 75.311709 284.415241 
L 74.340925 283.84896 
L 71.776582 282.418804 
L 69.43764 281.21472 
L 68.241455 280.622571 
L 64.706327 278.997381 
L 63.731019 278.58048 
L 61.1712 277.519045 
" clip-path="url(#pd12f004dbd)" style="fill: none; stroke: #000000"/>
    <path d="M 374.373091 44.13312 
L 375.797527 46.040598 
L 376.357005 46.76736 
L 378.537996 49.4016 
L 379.332655 50.292951 
L 379.397614 50.363016 
" clip-path="url(#pd12f004dbd)" style="fill: none; stroke: #000000"/>
    <path d="M 394.243189 62.907524 
L 397.008291 64.640759 
L 397.979075 65.20704 
L 400.543418 66.637196 
L 402.88236 67.84128 
L 404.078545 68.433429 
L 407.613673 70.058619 
L 408.588981 70.47552 
L 411.1488 71.536955 
" clip-path="url(#pd12f004dbd)" style="fill: none; stroke: #000000"/>
   </g>
   <g id="PathCollection_8">
    <path d="M 74.130453 304.92288 
L 71.776582 302.874722 
L 71.071838 302.28864 
L 68.241455 300.067944 
L 67.686481 299.6544 
L 64.706327 297.545308 
L 63.91981 297.02016 
L 61.1712 295.266146 
" clip-path="url(#pd12f004dbd)" style="fill: none; stroke: #000000"/>
    <path d="M 398.189547 44.13312 
L 400.543418 46.181278 
L 401.248162 46.76736 
L 404.078545 48.988056 
L 404.633519 49.4016 
L 407.613673 51.510692 
L 408.40019 52.03584 
L 411.1488 53.789854 
" clip-path="url(#pd12f004dbd)" style="fill: none; stroke: #000000"/>
   </g>
   <g id="PathCollection_9"/>
   <g id="patch_3">
    <path d="M 57.6 307.584 
L 57.6 41.472 
" style="fill: none; stroke: #000000; stroke-width: 0.8; stroke-linejoin: miter; stroke-linecap: square"/>
   </g>
   <g id="patch_4">
    <path d="M 414.72 307.584 
L 414.72 41.472 
" style="fill: none; stroke: #000000; stroke-width: 0.8; stroke-linejoin: miter; stroke-linecap: square"/>
   </g>
   <g id="patch_5">
    <path d="M 57.6 307.584 
L 414.72 307.584 
" style="fill: none; stroke: #000000; stroke-width: 0.8; stroke-linejoin: miter; stroke-linecap: square"/>
   </g>
   <g id="patch_6">
    <path d="M 57.6 41.472 
L 414.72 41.472 
" style="fill: none; stroke: #000000; stroke-width: 0.8; stroke-linejoin: miter; stroke-linecap: square"/>
   </g>
   <g id="text_13">
    <!-- Plackett Copula PDF -->
    <g transform="translate(175.9275 35.472)scale(0.12 -0.12)">
     <defs>
      <path id="DejaVuSans-50" d="M 1259 4147 
L 1259 2394 
L 2053 2394 
Q 2494 2394 2734 2622 
Q 2975 2850 2975 3272 
Q 2975 3691 2734 3919 
Q 2494 4147 2053 4147 
L 1259 4147 
z
M 628 4666 
L 2053 4666 
Q 2838 4666 3239 4311 
Q 3641 3956 3641 3272 
Q 3641 2581 3239 2228 
Q 2838 1875 2053 1875 
L 1259 1875 
L 1259 0 
L 628 0 
L 628 4666 
z
" transform="scale(0.015625)"/>
      <path id="DejaVuSans-6c" d="M 603 4863 
L 1178 4863 
L 1178 0 
L 603 0 
L 603 4863 
z
" transform="scale(0.015625)"/>
      <path id="DejaVuSans-61" d="M 2194 1759 
Q 1497 1759 1228 1600 
Q 959 1441 959 1056 
Q 959 750 1161 570 
Q 1363 391 1709 391 
Q 2188 391 2477 730 
Q 2766 1069 2766 1631 
L 2766 1759 
L 2194 1759 
z
M 3341 1997 
L 3341 0 
L 2766 0 
L 2766 531 
Q 2569 213 2275 61 
Q 1981 -91 1556 -91 
Q 1019 -91 701 211 
Q 384 513 384 1019 
Q 384 1609 779 1909 
Q 1175 2209 1959 2209 
L 2766 2209 
L 2766 2266 
Q 2766 2663 2505 2880 
Q 2244 3097 1772 3097 
Q 1472 3097 1187 3025 
Q 903 2953 641 2809 
L 641 3341 
Q 956 3463 1253 3523 
Q 1550 3584 1831 3584 
Q 2591 3584 2966 3190 
Q 3341 2797 3341 1997 
z
" transform="scale(0.015625)"/>
      <path id="DejaVuSans-63" d="M 3122 3366 
L 3122 2828 
Q 2878 2963 2633 3030 
Q 2388 3097 2138 3097 
Q 1578 3097 1268 2742 
Q 959 2388 959 1747 
Q 959 1106 1268 751 
Q 1578 397 2138 397 
Q 2388 397 2633 464 
Q 2878 531 3122 666 
L 3122 134 
Q 2881 22 2623 -34 
Q 2366 -91 2075 -91 
Q 1284 -91 818 406 
Q 353 903 353 1747 
Q 353 2603 823 3093 
Q 1294 3584 2113 3584 
Q 2378 3584 2631 3529 
Q 2884 3475 3122 3366 
z
" transform="scale(0.015625)"/>
      <path id="DejaVuSans-6b" d="M 581 4863 
L 1159 4863 
L 1159 1991 
L 2875 3500 
L 3609 3500 
L 1753 1863 
L 3688 0 
L 2938 0 
L 1159 1709 
L 1159 0 
L 581 0 
L 581 4863 
z
" transform="scale(0.015625)"/>
      <path id="DejaVuSans-65" d="M 3597 1894 
L 3597 1613 
L 953 1613 
Q 991 1019 1311 708 
Q 1631 397 2203 397 
Q 2534 397 2845 478 
Q 3156 559 3463 722 
L 3463 178 
Q 3153 47 2828 -22 
Q 2503 -91 2169 -91 
Q 1331 -91 842 396 
Q 353 884 353 1716 
Q 353 2575 817 3079 
Q 1281 3584 2069 3584 
Q 2775 3584 3186 3129 
Q 3597 2675 3597 1894 
z
M 3022 2063 
Q 3016 2534 2758 2815 
Q 2500 3097 2075 3097 
Q 1594 3097 1305 2825 
Q 1016 2553 972 2059 
L 3022 2063 
z
" transform="scale(0.015625)"/>
      <path id="DejaVuSans-74" d="M 1172 4494 
L 1172 3500 
L 2356 3500 
L 2356 3053 
L 1172 3053 
L 1172 1153 
Q 1172 725 1289 603 
Q 1406 481 1766 481 
L 2356 481 
L 2356 0 
L 1766 0 
Q 1100 0 847 248 
Q 594 497 594 1153 
L 594 3053 
L 172 3053 
L 172 3500 
L 594 3500 
L 594 4494 
L 1172 4494 
z
" transform="scale(0.015625)"/>
      <path id="DejaVuSans-20" transform="scale(0.015625)"/>
      <path id="DejaVuSans-43" d="M 4122 4306 
L 4122 3641 
Q 3803 3938 3442 4084 
Q 3081 4231 2675 4231 
Q 1875 4231 1450 3742 
Q 1025 3253 1025 2328 
Q 1025 1406 1450 917 
Q 1875 428 2675 428 
Q 3081 428 3442 575 
Q 3803 722 4122 1019 
L 4122 359 
Q 3791 134 3420 21 
Q 3050 -91 2638 -91 
Q 1578 -91 968 557 
Q 359 1206 359 2328 
Q 359 3453 968 4101 
Q 1578 4750 2638 4750 
Q 3056 4750 3426 4639 
Q 3797 4528 4122 4306 
z
" transform="scale(0.015625)"/>
      <path id="DejaVuSans-6f" d="M 1959 3097 
Q 1497 3097 1228 2736 
Q 959 2375 959 1747 
Q 959 1119 1226 758 
Q 1494 397 1959 397 
Q 2419 397 2687 759 
Q 2956 1122 2956 1747 
Q 2956 2369 2687 2733 
Q 2419 3097 1959 3097 
z
M 1959 3584 
Q 2709 3584 3137 3096 
Q 3566 2609 3566 1747 
Q 3566 888 3137 398 
Q 2709 -91 1959 -91 
Q 1206 -91 779 398 
Q 353 888 353 1747 
Q 353 2609 779 3096 
Q 1206 3584 1959 3584 
z
" transform="scale(0.015625)"/>
      <path id="DejaVuSans-70" d="M 1159 525 
L 1159 -1331 
L 581 -1331 
L 581 3500 
L 1159 3500 
L 1159 2969 
Q 1341 3281 1617 3432 
Q 1894 3584 2278 3584 
Q 2916 3584 3314 3078 
Q 3713 2572 3713 1747 
Q 3713 922 3314 415 
Q 2916 -91 2278 -91 
Q 1894 -91 1617 61 
Q 1341 213 1159 525 
z
M 3116 1747 
Q 3116 2381 2855 2742 
Q 2594 3103 2138 3103 
Q 1681 3103 1420 2742 
Q 1159 2381 1159 1747 
Q 1159 1113 1420 752 
Q 1681 391 2138 391 
Q 2594 391 2855 752 
Q 3116 1113 3116 1747 
z
" transform="scale(0.015625)"/>
      <path id="DejaVuSans-75" d="M 544 1381 
L 544 3500 
L 1119 3500 
L 1119 1403 
Q 1119 906 1312 657 
Q 1506 409 1894 409 
Q 2359 409 2629 706 
Q 2900 1003 2900 1516 
L 2900 3500 
L 3475 3500 
L 3475 0 
L 2900 0 
L 2900 538 
Q 2691 219 2414 64 
Q 2138 -91 1772 -91 
Q 1169 -91 856 284 
Q 544 659 544 1381 
z
M 1991 3584 
L 1991 3584 
z
" transform="scale(0.015625)"/>
      <path id="DejaVuSans-44" d="M 1259 4147 
L 1259 519 
L 2022 519 
Q 2988 519 3436 956 
Q 3884 1394 3884 2338 
Q 3884 3275 3436 3711 
Q 2988 4147 2022 4147 
L 1259 4147 
z
M 628 4666 
L 1925 4666 
Q 3281 4666 3915 4102 
Q 4550 3538 4550 2338 
Q 4550 1131 3912 565 
Q 3275 0 1925 0 
L 628 0 
L 628 4666 
z
" transform="scale(0.015625)"/>
      <path id="DejaVuSans-46" d="M 628 4666 
L 3309 4666 
L 3309 4134 
L 1259 4134 
L 1259 2759 
L 3109 2759 
L 3109 2228 
L 1259 2228 
L 1259 0 
L 628 0 
L 628 4666 
z
" transform="scale(0.015625)"/>
     </defs>
     <use xlink:href="#DejaVuSans-50"/>
     <use xlink:href="#DejaVuSans-6c" x="60.302734"/>
     <use xlink:href="#DejaVuSans-61" x="88.085938"/>
     <use xlink:href="#DejaVuSans-63" x="149.365234"/>
     <use xlink:href="#DejaVuSans-6b" x="204.345703"/>
     <use xlink:href="#DejaVuSans-65" x="258.630859"/>
     <use xlink:href="#DejaVuSans-74" x="320.154297"/>
     <use xlink:href="#DejaVuSans-74" x="359.363281"/>
     <use xlink:href="#DejaVuSans-20" x="398.572266"/>
     <use xlink:href="#DejaVuSans-43" x="430.359375"/>
     <use xlink:href="#DejaVuSans-6f" x="500.183594"/>
     <use xlink:href="#DejaVuSans-70" x="561.365234"/>
     <use xlink:href="#DejaVuSans-75" x="624.841797"/>
     <use xlink:href="#DejaVuSans-6c" x="688.220703"/>
     <use xlink:href="#DejaVuSans-61" x="716.003906"/>
     <use xlink:href="#DejaVuSans-20" x="777.283203"/>
     <use xlink:href="#DejaVuSans-50" x="809.070312"/>
     <use xlink:href="#DejaVuSans-44" x="869.373047"/>
     <use xlink:href="#DejaVuSans-46" x="946.375"/>
    </g>
   </g>
   <g id="text_14">
    <g clip-path="url(#pd12f004dbd)">
     <!-- 0.6 -->
     <g transform="translate(365.09564 300.054291)rotate(-38.19592)scale(0.08 -0.08)">
      <use xlink:href="#DejaVuSans-30"/>
      <use xlink:href="#DejaVuSans-2e" x="63.623047"/>
      <use xlink:href="#DejaVuSans-36" x="95.410156"/>
     </g>
    </g>
   </g>
   <g id="text_15">
    <g clip-path="url(#pd12f004dbd)">
     <!-- 0.6 -->
     <g transform="translate(99.955762 60.338451)rotate(-38.19592)scale(0.08 -0.08)">
      <use xlink:href="#DejaVuSans-30"/>
      <use xlink:href="#DejaVuSans-2e" x="63.623047"/>
      <use xlink:href="#DejaVuSans-36" x="95.410156"/>
     </g>
    </g>
   </g>
   <g id="text_16">
    <g clip-path="url(#pd12f004dbd)">
     <!-- 0.8 -->
     <g transform="translate(360.866898 227.315022)rotate(-30.894175)scale(0.08 -0.08)">
      <use xlink:href="#DejaVuSans-30"/>
      <use xlink:href="#DejaVuSans-2e" x="63.623047"/>
      <use xlink:href="#DejaVuSans-38" x="95.410156"/>
     </g>
    </g>
   </g>
   <g id="text_17">
    <g clip-path="url(#pd12f004dbd)">
     <!-- 0.8 -->
     <g transform="translate(102.802607 132.061984)rotate(-30.894175)scale(0.08 -0.08)">
      <use xlink:href="#DejaVuSans-30"/>
      <use xlink:href="#DejaVuSans-2e" x="63.623047"/>
      <use xlink:href="#DejaVuSans-38" x="95.410156"/>
     </g>
    </g>
   </g>
   <g id="text_18">
    <g clip-path="url(#pd12f004dbd)">
     <!-- 1.0 -->
     <g transform="translate(213.480716 295.799037)rotate(-63.750859)scale(0.08 -0.08)">
      <use xlink:href="#DejaVuSans-31"/>
      <use xlink:href="#DejaVuSans-2e" x="63.623047"/>
      <use xlink:href="#DejaVuSans-30" x="95.410156"/>
     </g>
    </g>
   </g>
   <g id="text_19">
    <g clip-path="url(#pd12f004dbd)">
     <!-- 1.0 -->
     <g transform="translate(257.172159 66.620157)rotate(-63.750859)scale(0.08 -0.08)">
      <use xlink:href="#DejaVuSans-31"/>
      <use xlink:href="#DejaVuSans-2e" x="63.623047"/>
      <use xlink:href="#DejaVuSans-30" x="95.410156"/>
     </g>
    </g>
   </g>
   <g id="text_20">
    <g clip-path="url(#pd12f004dbd)">
     <!-- 1.2 -->
     <g transform="translate(159.203814 277.668452)rotate(-274.242612)scale(0.08 -0.08)">
      <use xlink:href="#DejaVuSans-31"/>
      <use xlink:href="#DejaVuSans-2e" x="63.623047"/>
      <use xlink:href="#DejaVuSans-32" x="95.410156"/>
     </g>
    </g>
   </g>
   <g id="text_21">
    <g clip-path="url(#pd12f004dbd)">
     <!-- 1.2 -->
     <g transform="translate(307.772075 59.026532)rotate(-274.242612)scale(0.08 -0.08)">
      <use xlink:href="#DejaVuSans-31"/>
      <use xlink:href="#DejaVuSans-2e" x="63.623047"/>
      <use xlink:href="#DejaVuSans-32" x="95.410156"/>
     </g>
    </g>
   </g>
   <g id="text_22">
    <g clip-path="url(#pd12f004dbd)">
     <!-- 1.4 -->
     <g transform="translate(84.897212 264.676095)rotate(-334.610841)scale(0.08 -0.08)">
      <use xlink:href="#DejaVuSans-31"/>
      <use xlink:href="#DejaVuSans-2e" x="63.623047"/>
      <use xlink:href="#DejaVuSans-34" x="95.410156"/>
     </g>
    </g>
   </g>
   <g id="text_23">
    <g clip-path="url(#pd12f004dbd)">
     <!-- 1.4 -->
     <g transform="translate(374.036078 82.913535)rotate(-334.610841)scale(0.08 -0.08)">
      <use xlink:href="#DejaVuSans-31"/>
      <use xlink:href="#DejaVuSans-2e" x="63.623047"/>
      <use xlink:href="#DejaVuSans-34" x="95.410156"/>
     </g>
    </g>
   </g>
   <g id="text_24">
    <g clip-path="url(#pd12f004dbd)">
     <!-- 1.6 -->
     <g transform="translate(79.62862 289.520548)rotate(-319.916927)scale(0.08 -0.08)">
      <use xlink:href="#DejaVuSans-31"/>
      <use xlink:href="#DejaVuSans-2e" x="63.623047"/>
      <use xlink:href="#DejaVuSans-36" x="95.410156"/>
     </g>
    </g>
   </g>
   <g id="text_25">
    <g clip-path="url(#pd12f004dbd)">
     <!-- 1.6 -->
     <g transform="translate(380.114439 54.721433)rotate(-319.916927)scale(0.08 -0.08)">
      <use xlink:href="#DejaVuSans-31"/>
      <use xlink:href="#DejaVuSans-2e" x="63.623047"/>
      <use xlink:href="#DejaVuSans-36" x="95.410156"/>
     </g>
    </g>
   </g>
  </g>
 </g>
 <defs>
  <clipPath id="pd12f004dbd">
   <rect x="57.6" y="41.472" width="357.12" height="266.112"/>
  </clipPath>
 </defs>
</svg>
