<svg id="Layer_1" data-name="Layer 1" xmlns="http://www.w3.org/2000/svg" xmlns:xlink="http://www.w3.org/1999/xlink" viewBox="0 0 2000 827.23"><defs><radialGradient id="radial-gradient" cx="390.47" cy="411.4" r="425.54" gradientUnits="userSpaceOnUse"><stop offset="0" stop-color="#ffc810"/><stop offset="0.2" stop-color="#fd6e08"/><stop offset="0.4" stop-color="#fd102a"/><stop offset="0.63" stop-color="#ee73ef"/><stop offset="0.82" stop-color="#742beb"/><stop offset="1" stop-color="#312ad6"/></radialGradient></defs><path d="M880.25,623.25h-1.41c-1.27,0-2-.78-2.11-2.12L873,589.5l-13.24,32.34c-.57,1.19-1.06,1.76-2,1.76h-.28c-.92,0-1.41-.57-2-1.76L842.2,589.78l-3.66,31.35c-.14,1.34-.85,2.12-2.12,2.12h-1.48a1.71,1.71,0,0,1-1.83-2.12l5.5-42.63c.14-1,.63-1.41,1.41-1.41h.28c.7,0,1.27.43,1.76,1.41l15.57,36.15,15.5-36.15c.5-1,1.06-1.41,1.76-1.41h.29c.77,0,1.26.43,1.48,1.41L882,621.13A1.64,1.64,0,0,1,880.25,623.25Z" fill="#103185"/><path d="M921.2,589.71V621.2a1.85,1.85,0,0,1-1.9,2h-1.41a1.85,1.85,0,0,1-1.9-2V619c-2.4,3.17-6.13,5.14-11.21,5.14-8.38,0-13.95-5.84-13.95-14.59V589.71a1.83,1.83,0,0,1,1.91-2.05h1.83c1.2,0,1.83.78,1.83,2.05v19.65c0,5.86,3.73,9.8,9.37,9.8,6,0,9.86-4,9.86-10.22V589.71c0-1.27.64-2.05,1.84-2.05h1.83A1.82,1.82,0,0,1,921.2,589.71Z" fill="#103185"/><path d="M932.35,621.2V575.4c0-1,.63-1.69,1.9-2l1.48-.35c1.55-.43,2.18.42,2.18,1.9V621.2a1.85,1.85,0,0,1-1.9,2h-1.76A1.85,1.85,0,0,1,932.35,621.2Z" fill="#103185"/><path d="M967.23,622.19a11,11,0,0,1-6.48,1.9c-6.2,0-10.57-3.8-10.57-11.27V592.31h-3.95a1.79,1.79,0,0,1-2-1.9v-.84a1.8,1.8,0,0,1,2-1.91h3.95V577.8c0-1.06.63-1.69,1.9-2l1.48-.36c1.55-.42,2.18.43,2.18,1.91v10.35h9a1.83,1.83,0,0,1,2,1.91v.84a1.82,1.82,0,0,1-2,1.9h-9V612.6c0,4.59,2.19,6.56,5.57,6.56A6.88,6.88,0,0,0,965,618a1.76,1.76,0,0,1,2.82.7l.42.78C969,620.71,968,621.69,967.23,622.19Z" fill="#103185"/><path d="M972.31,576.81a4.37,4.37,0,0,1,8.74,0,4.37,4.37,0,0,1-8.74,0Zm1.55,44.39V589.71a1.82,1.82,0,0,1,1.9-2.05h1.76a1.83,1.83,0,0,1,1.91,2.05V621.2a1.86,1.86,0,0,1-1.91,2h-1.76A1.85,1.85,0,0,1,973.86,621.2Z" fill="#103185"/><path d="M1020.16,589.64l-14.73,32.27c-.56,1.19-1.13,1.69-2,1.69h-.14c-.92,0-1.48-.5-2-1.69l-14.8-32.27a1.33,1.33,0,0,1,1.34-2h1.91c1.26,0,1.83.71,2.39,2l11.28,25.5,11.27-25.5c.56-1.27,1.2-2,2.47-2h1.83A1.32,1.32,0,0,1,1020.16,589.64Z" fill="#103185"/><path d="M1054.13,601.62V621.2c0,1.34-.56,2-1.84,2h-1.41a1.82,1.82,0,0,1-1.89-2v-2.61a16,16,0,0,1-12.12,5.5c-8.18,0-13.67-4.58-13.67-11.49s6-11.76,14.93-11.76a24.4,24.4,0,0,1,10.64,2.53v-2.81c0-5.14-3.87-8.53-9.65-8.53a17.82,17.82,0,0,0-10.64,3.67c-1.13.84-2,.42-2.68-.5l-.42-.56a2.05,2.05,0,0,1,.56-3.1,21.67,21.67,0,0,1,13.46-4.37C1048.7,587.17,1054.13,592.31,1054.13,601.62Zm-5.29,8.8v-2.25a24.32,24.32,0,0,0-10.49-2.75c-5.78,0-9.59,3-9.59,7.26,0,4,3.53,6.62,8.74,6.62C1043.14,619.3,1048.84,615.92,1048.84,610.42Z" fill="#103185"/><path d="M1083.8,590.13l-.28,1.13a1.83,1.83,0,0,1-2.53,1.27,7.39,7.39,0,0,0-2.47-.43c-5.21,0-8.32,4.65-8.32,11v18.1a1.82,1.82,0,0,1-1.9,2h-1.76a1.85,1.85,0,0,1-1.9-2V589.71a1.82,1.82,0,0,1,1.9-2.05H1068a1.82,1.82,0,0,1,1.9,2.05v3a10,10,0,0,1,9.16-5.5,13.38,13.38,0,0,1,3.6.42C1083.59,587.88,1084.3,588.44,1083.8,590.13Z" fill="#103185"/><path d="M1088.18,576.81a4.37,4.37,0,1,1,8.73,0,4.37,4.37,0,1,1-8.73,0Zm1.55,44.39V589.71a1.82,1.82,0,0,1,1.9-2.05h1.76a1.82,1.82,0,0,1,1.9,2.05V621.2a1.85,1.85,0,0,1-1.9,2h-1.76A1.85,1.85,0,0,1,1089.73,621.2Z" fill="#103185"/><path d="M1134.69,601.62V621.2c0,1.34-.56,2-1.84,2h-1.41a1.82,1.82,0,0,1-1.9-2v-2.61a15.92,15.92,0,0,1-12.11,5.5c-8.18,0-13.67-4.58-13.67-11.49s6-11.76,14.93-11.76a24.4,24.4,0,0,1,10.64,2.53v-2.81c0-5.14-3.88-8.53-9.65-8.53A17.82,17.82,0,0,0,1109,595.7c-1.13.84-2,.42-2.68-.5l-.42-.56a2.05,2.05,0,0,1,.56-3.1,21.67,21.67,0,0,1,13.46-4.37C1129.26,587.17,1134.69,592.31,1134.69,601.62Zm-5.29,8.8v-2.25a24.33,24.33,0,0,0-10.5-2.75c-5.77,0-9.58,3-9.58,7.26,0,4,3.53,6.62,8.74,6.62C1123.7,619.3,1129.4,615.92,1129.4,610.42Z" fill="#103185"/><path d="M1163,622.19a11,11,0,0,1-6.48,1.9c-6.2,0-10.57-3.8-10.57-11.27V592.31h-4a1.79,1.79,0,0,1-2-1.9v-.84a1.8,1.8,0,0,1,2-1.91h4V577.8c0-1.06.63-1.69,1.91-2l1.47-.36c1.56-.42,2.19.43,2.19,1.91v10.35h8.94a1.83,1.83,0,0,1,2,1.91v.84a1.82,1.82,0,0,1-2,1.9h-8.94V612.6c0,4.59,2.18,6.56,5.56,6.56a6.94,6.94,0,0,0,3.67-1.2,1.76,1.76,0,0,1,2.82.7l.42.78C1164.78,620.71,1163.8,621.69,1163,622.19Z" fill="#103185"/><path d="M1185.15,619.23a16.74,16.74,0,0,0,10.86-4c1.26-1.06,2.18-.92,3,0l.71.63a1.81,1.81,0,0,1-.14,2.81c-4.23,4.09-10.22,5.43-14.45,5.43-9.65,0-18.67-6.69-18.67-18.32,0-10.64,7.61-18.6,17.76-18.6a17.2,17.2,0,0,1,12.26,4.72,18,18,0,0,1,5.28,13,2.21,2.21,0,0,1-2.39,2.26h-27.2A12.65,12.65,0,0,0,1185.15,619.23Zm-12.89-16.7h23.82a12.38,12.38,0,0,0-3.25-7,11.16,11.16,0,0,0-8.59-3.46C1177.83,592,1173.17,596.12,1172.26,602.53Z" fill="#103185"/><path d="M1228.15,621.13V579.56a1.92,1.92,0,0,1,2.12-2.11h15.64c14.37,0,23.81,9.16,23.81,22.83s-9.44,23-23.81,23h-15.64A2,2,0,0,1,1228.15,621.13Zm17.69-2.88c11,0,18.1-7.12,18.1-17.91s-7.11-17.89-18.1-17.89h-12v35.8Z" fill="#103185"/><path d="M1294.75,619.23a16.74,16.74,0,0,0,10.86-4c1.26-1.06,2.18-.92,3,0l.71.63a1.82,1.82,0,0,1-.14,2.81c-4.23,4.09-10.22,5.43-14.45,5.43-9.65,0-18.67-6.69-18.67-18.32,0-10.64,7.61-18.6,17.75-18.6a17.21,17.21,0,0,1,12.27,4.72,18,18,0,0,1,5.28,13,2.22,2.22,0,0,1-2.4,2.26h-27.19A12.65,12.65,0,0,0,1294.75,619.23Zm-12.89-16.7h23.82a12.38,12.38,0,0,0-3.25-7,11.17,11.17,0,0,0-8.6-3.46C1287.43,592,1282.77,596.12,1281.86,602.53Z" fill="#103185"/><path d="M1355.57,605.63c0,10.22-7.26,18.46-17.83,18.46a17.1,17.1,0,0,1-12.61-5.28v15.78a1.78,1.78,0,0,1-1.9,2h-1.76a1.81,1.81,0,0,1-1.9-2V589.71a1.82,1.82,0,0,1,1.9-2.05H1323a1.79,1.79,0,0,1,1.9,2.05v2.82a17.19,17.19,0,0,1,12.82-5.36C1348.31,587.17,1355.57,595.34,1355.57,605.63Zm-5.71,0c0-7.33-4.86-13.46-12.75-13.46-6.7,0-12.54,4.44-12.54,13.46s5.77,13.46,12.54,13.46C1345,619.09,1349.86,613,1349.86,605.63Z" fill="#103185"/><path d="M1380.17,619.23a16.68,16.68,0,0,0,10.85-4c1.27-1.06,2.19-.92,3,0l.71.63a1.82,1.82,0,0,1-.14,2.81c-4.23,4.09-10.22,5.43-14.45,5.43-9.65,0-18.67-6.69-18.67-18.32,0-10.64,7.61-18.6,17.76-18.6a17.2,17.2,0,0,1,12.26,4.72,18,18,0,0,1,5.28,13,2.22,2.22,0,0,1-2.39,2.26h-27.2A12.65,12.65,0,0,0,1380.17,619.23Zm-12.89-16.7h23.81a12.43,12.43,0,0,0-3.23-7,11.2,11.2,0,0,0-8.6-3.46C1372.85,592,1368.2,596.12,1367.28,602.53Z" fill="#103185"/><path d="M1436.2,601.82V621.2a1.82,1.82,0,0,1-1.9,2h-1.76a1.86,1.86,0,0,1-1.91-2V602.32c0-6.2-3.8-10.22-9.79-10.22s-10.36,4-10.36,10.22V621.2a1.82,1.82,0,0,1-1.9,2h-1.76a1.86,1.86,0,0,1-1.91-2V589.71a1.83,1.83,0,0,1,1.91-2.05h1.41a1.82,1.82,0,0,1,1.9,2.05v2.89c2.46-3.39,6.48-5.43,11.7-5.43C1430.7,587.17,1436.2,593.23,1436.2,601.82Z" fill="#103185"/><path d="M1480.11,574.91V621.2a1.85,1.85,0,0,1-1.9,2h-1.62a1.85,1.85,0,0,1-1.9-2v-2.68a17,17,0,0,1-12.76,5.57c-10.57,0-17.83-8.24-17.83-18.46s7.26-18.46,17.83-18.46a17.38,17.38,0,0,1,12.62,5.14V575.4c0-1,.56-1.69,1.83-2l1.48-.35C1479.48,572.58,1480.11,573.43,1480.11,574.91Zm-5,30.72c0-9-5.85-13.46-12.61-13.46-7.83,0-12.76,6.13-12.76,13.46s4.93,13.46,12.76,13.46C1469.33,619.09,1475.11,614.58,1475.11,605.63Z" fill="#103185"/><path d="M1507.88,619.23a16.7,16.7,0,0,0,10.85-4c1.27-1.06,2.19-.92,3,0l.71.63a1.82,1.82,0,0,1-.14,2.81c-4.23,4.09-10.22,5.43-14.45,5.43-9.65,0-18.67-6.69-18.67-18.32,0-10.64,7.61-18.6,17.75-18.6a17.21,17.21,0,0,1,12.27,4.72,18,18,0,0,1,5.28,13,2.22,2.22,0,0,1-2.4,2.26h-27.19A12.65,12.65,0,0,0,1507.88,619.23ZM1495,602.53h23.81a12.37,12.37,0,0,0-3.24-7A11.17,11.17,0,0,0,1507,592C1500.55,592,1495.91,596.12,1495,602.53Z" fill="#103185"/><path d="M1563.92,601.82V621.2a1.83,1.83,0,0,1-1.91,2h-1.76a1.85,1.85,0,0,1-1.9-2V602.32c0-6.2-3.81-10.22-9.8-10.22s-10.35,4-10.35,10.22V621.2a1.83,1.83,0,0,1-1.91,2h-1.76a1.85,1.85,0,0,1-1.9-2V589.71a1.82,1.82,0,0,1,1.9-2.05h1.41a1.82,1.82,0,0,1,1.9,2.05v2.89c2.47-3.39,6.49-5.43,11.7-5.43C1558.42,587.17,1563.92,593.23,1563.92,601.82Z" fill="#103185"/><path d="M1571.88,605.63c0-10.43,7.9-18.46,18.75-18.46a18.57,18.57,0,0,1,13.66,5.29,1.81,1.81,0,0,1,.15,2.81l-.78.78c-.92.77-1.83,1.13-3,0a13.38,13.38,0,0,0-9.93-3.88c-7.75,0-13.18,5.71-13.18,13.53,0,7.61,5.15,13.39,13.18,13.39a13.36,13.36,0,0,0,9.93-3.87,1.91,1.91,0,0,1,3,0l.78.77c1.06,1,.56,2-.15,2.82a18.6,18.6,0,0,1-13.66,5.28C1579.78,624.09,1571.88,616.06,1571.88,605.63Z" fill="#103185"/><path d="M1628.69,619.23a16.72,16.72,0,0,0,10.85-4c1.27-1.06,2.18-.92,3,0l.7.63a1.8,1.8,0,0,1-.14,2.81c-4.23,4.09-10.21,5.43-14.44,5.43-9.66,0-18.68-6.69-18.68-18.32,0-10.64,7.61-18.6,17.76-18.6a17.2,17.2,0,0,1,12.26,4.72,18,18,0,0,1,5.29,13,2.22,2.22,0,0,1-2.4,2.26h-27.2A12.66,12.66,0,0,0,1628.69,619.23Zm-12.9-16.7h23.82a12.37,12.37,0,0,0-3.24-7,11.19,11.19,0,0,0-8.6-3.46C1621.36,592,1616.71,596.12,1615.79,602.53Z" fill="#103185"/><path d="M1716.92,623.25h-1.4c-1.28,0-2-.78-2.12-2.12l-3.74-31.63-13.24,32.34c-.56,1.19-1.06,1.76-2,1.76h-.29c-.91,0-1.4-.57-2-1.76l-13.32-32.06-3.66,31.35c-.14,1.34-.85,2.12-2.11,2.12h-1.48a1.72,1.72,0,0,1-1.84-2.12l5.5-42.63c.14-1,.63-1.41,1.41-1.41h.28c.71,0,1.27.43,1.76,1.41l15.58,36.15,15.49-36.15c.5-1,1.06-1.41,1.77-1.41h.28c.77,0,1.27.43,1.48,1.41l5.35,42.63A1.64,1.64,0,0,1,1716.92,623.25Z" fill="#103185"/><path d="M1725.6,605.63c0-10.43,8-18.46,18.75-18.46s18.74,8,18.74,18.46-8,18.46-18.74,18.46S1725.6,616.06,1725.6,605.63Zm31.85,0c0-7.75-5.43-13.46-13.1-13.46s-13.11,5.71-13.11,13.46,5.43,13.46,13.11,13.46S1757.45,613.38,1757.45,605.63Z" fill="#103185"/><path d="M1804.89,574.91V621.2a1.86,1.86,0,0,1-1.91,2h-1.62a1.85,1.85,0,0,1-1.9-2v-2.68a17,17,0,0,1-12.75,5.57c-10.57,0-17.83-8.24-17.83-18.46s7.26-18.46,17.83-18.46a17.35,17.35,0,0,1,12.61,5.14V575.4c0-1,.56-1.69,1.83-2l1.48-.35C1804.25,572.58,1804.89,573.43,1804.89,574.91Zm-5,30.72c0-9-5.85-13.46-12.61-13.46-7.82,0-12.75,6.13-12.75,13.46s4.93,13.46,12.75,13.46C1794.1,619.09,1799.88,614.58,1799.88,605.63Z" fill="#103185"/><path d="M1832.66,619.23a16.72,16.72,0,0,0,10.85-4c1.27-1.06,2.18-.92,3,0l.7.63a1.8,1.8,0,0,1-.14,2.81c-4.22,4.09-10.21,5.43-14.44,5.43-9.66,0-18.68-6.69-18.68-18.32,0-10.64,7.61-18.6,17.76-18.6a17.2,17.2,0,0,1,12.26,4.72,18,18,0,0,1,5.29,13,2.22,2.22,0,0,1-2.4,2.26h-27.2A12.66,12.66,0,0,0,1832.66,619.23Zm-12.9-16.7h23.82a12.37,12.37,0,0,0-3.24-7,11.19,11.19,0,0,0-8.6-3.46C1825.33,592,1820.68,596.12,1819.76,602.53Z" fill="#103185"/><path d="M1857.61,621.2V575.4c0-1,.64-1.69,1.9-2L1861,573c1.55-.43,2.19.42,2.19,1.9V621.2a1.86,1.86,0,0,1-1.9,2h-1.77A1.86,1.86,0,0,1,1857.61,621.2Z" fill="#103185"/><path d="M1872.83,576.81a4.38,4.38,0,0,1,8.75,0,4.38,4.38,0,0,1-8.75,0Zm1.56,44.39V589.71a1.82,1.82,0,0,1,1.9-2.05h1.76a1.82,1.82,0,0,1,1.9,2.05V621.2a1.85,1.85,0,0,1-1.9,2h-1.76A1.85,1.85,0,0,1,1874.39,621.2Z" fill="#103185"/><path d="M1922.24,601.82V621.2a1.83,1.83,0,0,1-1.91,2h-1.76a1.85,1.85,0,0,1-1.9-2V602.32c0-6.2-3.81-10.22-9.79-10.22s-10.36,4-10.36,10.22V621.2a1.83,1.83,0,0,1-1.91,2h-1.76a1.86,1.86,0,0,1-1.9-2V589.71a1.82,1.82,0,0,1,1.9-2.05h1.41a1.82,1.82,0,0,1,1.9,2.05v2.89c2.47-3.39,6.49-5.43,11.7-5.43C1916.74,587.17,1922.24,593.23,1922.24,601.82Z" fill="#103185"/><path d="M1965.23,589.71v30.51c0,11.48-8.32,16.41-17.48,16.41a19.78,19.78,0,0,1-16.2-7.47,1.89,1.89,0,0,1,.35-3.1l.57-.42a1.89,1.89,0,0,1,2.89.28c3,3.81,6.62,5.92,12.46,5.92,6.77,0,11.91-3.59,11.91-11.27v-5.08a16.53,16.53,0,0,1-12.19,4.94c-10,0-17.26-7.26-17.26-16.63s7.26-16.63,17.33-16.63a16.29,16.29,0,0,1,12.48,5.29v-2.75c0-1.27.63-2.05,1.83-2.05h1.41A1.82,1.82,0,0,1,1965.23,589.71ZM1960,603.87c0-6.9-5-11.84-12.12-11.84s-12,4.94-12,11.77,4.79,11.69,12,11.69S1960,610.64,1960,603.87Z" fill="#103185"/><path d="M833.09,437.64V206.73c0-7.44,4.31-11.74,11.74-11.74h81.8c58.31,0,90.8,28.18,90.8,77.88,0,48.92-32.49,77.1-90.8,77.1H864.79v87.67c0,7-3.91,11.74-11,11.74h-9.78C837,449.38,833.09,444.68,833.09,437.64ZM933.28,323.36c32.88,0,51.27-18,51.27-50.1,0-32.48-18.39-50.48-51.27-50.48H864.79V323.36Z" fill="#103185"/><path d="M1222.48,262.7l-94.71,214.47c-15.27,34.44-28.18,46.57-55.19,46.57-10.56,0-20.35-2.74-27-6.66-4.3-2.74-9-6.26-6.27-13.69l1.57-3.53c2.35-6.65,8.61-9,16.83-5.08a37.63,37.63,0,0,0,14.48,3.52c11.74,0,18.4-4.31,27-24.26l15.65-35.62L1038.53,262.7c-2.35-5.87,1.18-11,7.44-11h13.31c7,0,10.56,3.91,13.3,11l59.1,140.5,59.1-140.5c2.74-7,6.26-11,13.3-11h11.35C1221.7,251.74,1225.22,256.83,1222.48,262.7Z" fill="#103185"/><path d="M1248.29,322.19c0-75.54,58.31-131.9,132.28-131.9,40.31,0,75.54,16.83,99.41,43.83,4.7,5.1,3.91,10.57-1.57,14.88l-6.65,5.48c-5.48,4.3-10.57,3.13-15.65-2.35-19.18-20.35-44.62-32.88-74.75-32.88-56.75,0-101,43.05-101,102.94s44.23,102.92,101,102.92c30.13,0,56-12.52,74.75-32.87,5.08-5.48,10.17-6.66,15.65-2.35l6.65,5.48c5.48,4.3,6.27,9.79,1.57,14.48-23.87,27.4-59.1,44.23-99.41,44.23C1306.6,454.08,1248.29,397.72,1248.29,322.19Z" fill="#103185"/><path d="M1510.48,351.53c0-57.92,44.23-102.53,104.11-102.53s104.1,44.61,104.1,102.53-44.22,102.55-104.1,102.55S1510.48,409.46,1510.48,351.53Zm176.9,0c0-43-30.13-74.74-72.79-74.74-42.27,0-72.8,31.7-72.8,74.74s30.13,74.76,72.8,74.76S1687.38,394.59,1687.38,351.53Z" fill="#103185"/><path d="M1965.23,351.53c0,56.76-40.31,102.55-99,102.55-29.36,0-53.23-11.75-70.06-29.36v87.67c0,7.05-3.52,11.35-10.57,11.35h-9.78c-6.65,0-10.57-4.3-10.57-11.35V263.09c0-7,3.92-11.35,10.57-11.35h8.61c7,0,10.56,4.3,10.56,11.35v15.65c17.23-18.39,41.88-29.74,71.24-29.74C1924.92,249,1965.23,294.4,1965.23,351.53Zm-31.7,0c0-40.7-27-74.74-70.84-74.74-37.18,0-69.66,24.65-69.66,74.74,0,49.71,32.09,74.76,69.66,74.76C1906.53,426.29,1933.53,392.24,1933.53,351.53Z" fill="#103185"/><path d="M729.6,771c-7.34,0-17.41-2.51-31.21-9.61l-268-137.75c-20.79-10.7-55.91-10.7-76.71,0l-268,137.75c-27.39,14.08-40.08,10.1-45.91,4.29s-9.8-18.51,4.28-45.91l137.76-268c10.69-20.79,10.69-55.93,0-76.72l-137.76-268C30,79.71,34,67,39.78,61.2s18.52-9.79,45.91,4.29l268,137.76c20.79,10.69,55.92,10.7,76.71,0l268-137.76c27.39-14.08,40.08-10.1,45.9-4.29s9.8,18.51-4.28,45.91l-137.75,268c-10.7,20.79-10.7,55.93,0,76.72L740,719.81c14.08,27.4,10.1,40.08,4.28,45.91C741.4,768.6,736.82,771,729.6,771ZM392,606.81c15.35,0,30.7,3,42.39,9l268,137.76c17.18,8.82,30.48,11,35.61,5.89S741,741,732.15,723.85l-137.75-268c-12-23.38-12-61.42,0-84.79l137.75-268c8.83-17.16,11-30.48,5.89-35.62s-18.43-2.93-35.61,5.89l-268,137.76c-23.37,12-61.41,12-84.78,0L81.65,73.34c-17.17-8.82-30.49-11-35.62-5.89s-2.94,18.46,5.89,35.62l137.76,268c12,23.37,12,61.41,0,84.79l-137.76,268c-8.83,17.17-11,30.48-5.89,35.62s18.45,2.93,35.62-5.89l268-137.76C361.33,609.81,376.68,606.81,392,606.81Z" fill="url(#radial-gradient)"/><path d="M685.5,724.54c-6.41,0-15.2-2.19-27.22-8.37l-233-119.77c-18-9.26-48.48-9.26-66.5,0l-233,119.77c-23.93,12.3-35,8.79-40.15,3.68S77,703.63,89.33,679.7l119.77-233c9.26-18,9.26-48.47,0-66.5l-119.77-233c-12.3-23.93-8.79-35-3.68-40.15s16.22-8.61,40.15,3.69l233,119.76c18,9.26,48.48,9.26,66.5,0l233-119.76c23.92-12.3,35-8.8,40.15-3.69s8.61,16.22-3.69,40.15L575,380.21c-9.26,18-9.26,48.48,0,66.5l119.76,233c12.3,23.93,8.79,35,3.69,40.15C695.88,722.39,691.86,724.54,685.5,724.54ZM662,709c14.84,7.62,26.32,9.55,30.72,5.15s2.47-15.88-5.16-30.72l-119.76-233c-10.47-20.37-10.47-53.52,0-73.9l119.76-233c7.63-14.84,9.56-26.32,5.16-30.72S676.82,110.32,662,118L429,237.72c-20.37,10.47-53.53,10.48-73.9,0L122.1,118c-14.84-7.64-26.33-9.56-30.73-5.16s-2.47,15.88,5.17,30.72l119.76,233c10.47,20.38,10.47,53.53,0,73.9L96.54,683.4c-7.64,14.84-9.56,26.33-5.17,30.72s15.9,2.47,30.73-5.15l233-119.77c20.37-10.46,53.53-10.47,73.9,0Z" fill="url(#radial-gradient)"/><path d="M142.66,678c-5.48,0-8.95-1.85-11.15-4-4.4-4.39-7.43-13.93,3.09-34.39l101.77-198c7.84-15.26,7.84-41,0-56.29l-101.77-198c-10.52-20.46-7.49-30-3.09-34.39s13.93-7.44,34.4,3.08l198,101.77c15.26,7.85,41,7.84,56.29,0L618.16,156c20.46-10.52,30-7.49,34.4-3.08s7.43,13.93-3.09,34.39l-101.77,198c-7.84,15.25-7.84,41,0,56.29l101.77,198c10.52,20.46,7.49,30,3.09,34.39s-13.94,7.43-34.4-3.08l-198-101.77c-15.26-7.85-41-7.85-56.29,0l-198,101.77C155.66,676.17,148.15,678,142.66,678ZM392,555.88c11.41,0,22.82,2.24,31.51,6.71l198,101.76c14.73,7.57,23,7.26,25.83,4.43s3.15-11.1-4.43-25.83L541.16,445c-8.93-17.38-8.93-45.64,0-63L642.93,184c7.58-14.73,7.25-23,4.43-25.83s-11.09-3.15-25.83,4.43l-198,101.77c-17.37,8.92-45.65,8.93-63,0l-198-101.77c-14.74-7.59-23-7.25-25.83-4.43s-3.15,11.1,4.43,25.83L242.92,382c8.92,17.38,8.92,45.64,0,63L141.15,643c-7.58,14.73-7.26,23-4.43,25.83s11.1,3.15,25.83-4.43l198-101.76C369.21,558.12,380.63,555.88,392,555.88Z" fill="url(#radial-gradient)"/><path d="M597.33,631.53c-4.57,0-10.8-1.54-19.28-5.9l-163-83.77c-12.49-6.43-33.59-6.44-46.08,0L206,625.63c-17,8.74-25,6.18-28.65,2.49s-6.25-11.65,2.49-28.64l83.77-163c6.42-12.49,6.42-33.59,0-46.08l-83.77-163c-8.74-17-6.18-25-2.49-28.64S189,192.55,206,201.29l163,83.77c12.48,6.42,33.58,6.43,46.08,0l163-83.77c17-8.72,25-6.17,28.65-2.48s6.25,11.64-2.49,28.64l-83.78,163c-6.42,12.49-6.42,33.59,0,46.08l83.78,163c8.74,17,6.17,25,2.49,28.64C604.85,630,601.93,631.53,597.33,631.53ZM392,530.42c9.44,0,18.87,1.85,26.06,5.55l163,83.77c12,6.18,18.68,6,20.93,3.7s2.47-8.94-3.69-20.94l-83.78-163c-7.39-14.38-7.39-37.76,0-52.14l83.78-163c6.16-12,5.95-18.68,3.69-20.93s-8.93-2.47-20.93,3.69L418.1,291c-14.37,7.4-37.76,7.4-52.13,0L203,207.18c-12-6.17-18.69-6-20.94-3.69s-2.47,8.94,3.7,20.93l83.77,163c7.39,14.38,7.39,37.76,0,52.14l-83.77,163c-6.17,12-5.95,18.68-3.7,20.94s8.95,2.47,20.94-3.7L366,536C373.16,532.27,382.6,530.42,392,530.42Z" fill="url(#radial-gradient)"/><path d="M230.84,585a10.26,10.26,0,0,1-7.6-2.78c-3-3-5.06-9.36,1.9-22.9l65.78-128c5-9.72,5-26.14,0-35.86l-65.78-128c-7-13.53-4.87-19.92-1.9-22.89s9.36-5.07,22.89,1.89l128,65.78c9.72,5,26.15,5,35.87,0l128-65.78c13.53-7,19.92-4.86,22.89-1.89s5.06,9.36-1.89,22.89l-65.78,128c-5,9.72-5,26.14,0,35.86l65.78,128c6.95,13.54,4.87,19.92,1.89,22.9s-9.36,5.07-22.89-1.9L410,514.58c-9.72-5-26.15-5-35.87,0l-128,65.78C239.44,583.81,234.49,585,230.84,585ZM392,505c7.47,0,14.94,1.46,20.62,4.39l128,65.78c9.27,4.76,14.35,4.64,16,3s1.79-6.78-3-16l-65.78-128c-5.84-11.36-5.84-29.87,0-41.24l65.78-128c4.76-9.26,4.65-14.36,3-16s-6.77-1.8-16,3l-128,65.78c-11.36,5.85-29.87,5.85-41.25,0l-128-65.78c-9.26-4.76-14.34-4.64-16-3s-1.79,6.78,3,16l65.78,128c5.85,11.37,5.85,29.88,0,41.24l-65.78,128c-4.75,9.25-4.65,14.35-3,16s6.77,1.8,16-3l128-65.78C377.1,506.42,384.57,505,392,505Z" fill="url(#radial-gradient)"/><path d="M509.14,538.53c-2.72,0-6.39-.9-11.31-3.44l-93-47.78c-6.95-3.58-18.7-3.59-25.65,0l-93,47.78c-10.07,5.18-14.87,3.56-17.14,1.3s-3.88-7.07,1.29-17.14l47.79-93c3.57-7,3.57-18.71,0-25.66l-47.79-93c-5.17-10.07-3.55-14.87-1.29-17.14s7.07-3.88,17.14,1.3l93,47.78c7,3.58,18.71,3.58,25.65,0l93-47.78c10.07-5.17,14.88-3.56,17.14-1.3s3.87,7.07-1.3,17.14l-47.78,93c-3.58,6.95-3.58,18.71,0,25.66l47.78,93c5.17,10.07,3.56,14.87,1.3,17.14A7.9,7.9,0,0,1,509.14,538.53Zm-9-8c6.12,3.13,10,3.38,11.14,2.22s.91-5-2.23-11.13l-47.78-93c-4.31-8.37-4.31-22,0-30.36l47.78-93c3.14-6.1,3.38-10,2.23-11.13s-5-.91-11.14,2.23l-93,47.78c-8.37,4.31-22,4.31-30.36,0l-93-47.78c-6.11-3.14-10-3.38-11.14-2.23s-.9,5,2.23,11.13l47.79,93c4.31,8.37,4.31,22,0,30.36l-47.79,93c-3.13,6.1-3.38,10-2.23,11.13s5,.91,11.14-2.22l93-47.79c8.37-4.31,22-4.3,30.36,0Z" fill="url(#radial-gradient)"/><path d="M319,492a5.49,5.49,0,0,1-4-1.51c-1.55-1.55-2.69-4.78.7-11.38l29.79-58c2.15-4.19,2.15-11.25,0-15.44l-29.79-58c-3.39-6.6-2.25-9.83-.7-11.38s4.8-2.68,11.39.7l58,29.79c4.18,2.14,11.24,2.16,15.44,0l58-29.79c6.59-3.39,9.83-2.25,11.38-.7s2.7,4.78-.7,11.38l-29.79,58c-2.15,4.19-2.15,11.25,0,15.44l29.79,58c3.4,6.6,2.25,9.83.7,11.38s-4.79,2.7-11.38-.7l-58-29.78c-4.18-2.15-11.26-2.15-15.44,0l-58,29.78A16.45,16.45,0,0,1,319,492Zm0-152.73a1.4,1.4,0,0,0-.94.22c-.3.29-.65,2.07,1.5,6.24l29.79,58c2.81,5.46,2.81,14,0,19.48l-29.79,58c-2.15,4.18-1.8,5.95-1.5,6.24s2.06.63,6.24-1.5l58-29.79c5.47-2.81,14-2.8,19.48,0l58,29.79c4.18,2.14,6,1.81,6.25,1.5s.65-2.06-1.5-6.24l-29.79-58c-2.81-5.46-2.81-14,0-19.48l29.79-58c2.15-4.17,1.79-5.95,1.5-6.24s-2.07-.65-6.25,1.5l-58,29.79c-5.46,2.82-14,2.81-19.48,0l-58-29.79A12.5,12.5,0,0,0,319,339.3Z" fill="url(#radial-gradient)"/></svg>