<svg id="Layer_1" data-name="Layer 1" xmlns="http://www.w3.org/2000/svg" xmlns:xlink="http://www.w3.org/1999/xlink" viewBox="0 0 2000 779.41"><defs><style>.cls-1{fill:#103185;}.cls-2{fill:url(#radial-gradient);}</style><radialGradient id="radial-gradient" cx="384.56" cy="387.62" r="429.78" gradientUnits="userSpaceOnUse"><stop offset="0" stop-color="#ffc810"/><stop offset="0.2" stop-color="#fd6e08"/><stop offset="0.4" stop-color="#fd102a"/><stop offset="0.63" stop-color="#ee73ef"/><stop offset="0.82" stop-color="#742beb"/><stop offset="1" stop-color="#312ad6"/></radialGradient></defs><path class="cls-1" d="M878.51,601.44h-1.4c-1.26,0-2-.78-2.1-2.11l-3.72-31.48L858.11,600c-.56,1.19-1.05,1.75-2,1.75h-.28c-.92,0-1.41-.56-2-1.75l-13.25-31.91L837,599.33c-.14,1.33-.84,2.11-2.1,2.11h-1.47a1.71,1.71,0,0,1-1.83-2.11l5.47-42.42c.14-1,.63-1.4,1.41-1.4h.28c.7,0,1.26.42,1.75,1.4l15.49,36,15.43-36c.49-1,1.05-1.4,1.75-1.4h.29c.77,0,1.26.42,1.47,1.4l5.33,42.42A1.64,1.64,0,0,1,878.51,601.44Z"/><path class="cls-1" d="M919.27,568.06V599.4a1.85,1.85,0,0,1-1.89,2H916a1.85,1.85,0,0,1-1.89-2v-2.24c-2.39,3.16-6.1,5.12-11.15,5.12-8.34,0-13.88-5.82-13.88-14.52v-19.7a1.81,1.81,0,0,1,1.89-2h1.82c1.2,0,1.83.78,1.83,2v19.56c0,5.82,3.71,9.75,9.32,9.75,6,0,9.82-4,9.82-10.17V568.06c0-1.26.63-2,1.82-2h1.83A1.81,1.81,0,0,1,919.27,568.06Z"/><path class="cls-1" d="M930.36,599.4V553.83c0-1.06.63-1.69,1.89-2l1.48-.35c1.54-.42,2.17.42,2.17,1.9V599.4a1.85,1.85,0,0,1-1.89,2h-1.76A1.85,1.85,0,0,1,930.36,599.4Z"/><path class="cls-1" d="M965.07,600.38a10.91,10.91,0,0,1-6.45,1.9c-6.17,0-10.52-3.79-10.52-11.22V570.65h-3.92a1.79,1.79,0,0,1-2-1.89v-.84a1.79,1.79,0,0,1,2-1.9h3.92v-9.81c0-1.05.63-1.68,1.9-2l1.47-.34c1.54-.42,2.17.42,2.17,1.89V566h8.91a1.81,1.81,0,0,1,2,1.9v.84a1.81,1.81,0,0,1-2,1.89h-8.91v20.2c0,4.56,2.18,6.52,5.54,6.52a6.86,6.86,0,0,0,3.65-1.19,1.75,1.75,0,0,1,2.8.7l.42.77C966.82,598.91,965.84,599.9,965.07,600.38Z"/><path class="cls-1" d="M970.13,555.23a4.35,4.35,0,1,1,4.35,4.35A4.37,4.37,0,0,1,970.13,555.23Zm1.54,44.17V568.06a1.81,1.81,0,0,1,1.89-2h1.76a1.81,1.81,0,0,1,1.89,2V599.4a1.85,1.85,0,0,1-1.89,2h-1.76A1.85,1.85,0,0,1,971.67,599.4Z"/><path class="cls-1" d="M1017.74,568l-14.65,32.12c-.56,1.19-1.12,1.68-2,1.68h-.14c-.92,0-1.48-.49-2-1.68L984.16,568a1.32,1.32,0,0,1,1.33-2h1.89c1.26,0,1.82.71,2.39,2L1001,593.37,1012.21,568c.56-1.26,1.19-2,2.45-2h1.82A1.31,1.31,0,0,1,1017.74,568Z"/><path class="cls-1" d="M1051.55,579.91V599.4c0,1.33-.56,2-1.82,2h-1.41a1.81,1.81,0,0,1-1.89-2v-2.59a15.87,15.87,0,0,1-12.06,5.47c-8.13,0-13.6-4.56-13.6-11.43s6-11.71,14.86-11.71a24.32,24.32,0,0,1,10.59,2.52v-2.8c0-5.12-3.86-8.48-9.6-8.48A17.75,17.75,0,0,0,1026,574c-1.12.84-2,.42-2.67-.49l-.42-.56a2.05,2.05,0,0,1,.56-3.09,21.57,21.57,0,0,1,13.4-4.34C1046.15,565.54,1051.55,570.65,1051.55,579.91Zm-5.26,8.76v-2.24a24.29,24.29,0,0,0-10.45-2.73c-5.75,0-9.53,2.94-9.53,7.22,0,4,3.5,6.59,8.69,6.59C1040.61,597.51,1046.29,594.15,1046.29,588.67Z"/><path class="cls-1" d="M1081.08,568.48l-.28,1.12a1.81,1.81,0,0,1-2.52,1.26,7.57,7.57,0,0,0-2.46-.42c-5.19,0-8.27,4.63-8.27,10.94v18a1.81,1.81,0,0,1-1.89,2h-1.76a1.85,1.85,0,0,1-1.89-2V568.06a1.81,1.81,0,0,1,1.89-2h1.4a1.82,1.82,0,0,1,1.9,2V571a10,10,0,0,1,9.12-5.46,13.59,13.59,0,0,1,3.57.41C1080.87,566.24,1081.57,566.8,1081.08,568.48Z"/><path class="cls-1" d="M1085.44,555.23a4.35,4.35,0,1,1,4.34,4.35A4.36,4.36,0,0,1,1085.44,555.23ZM1087,599.4V568.06a1.81,1.81,0,0,1,1.89-2h1.75a1.82,1.82,0,0,1,1.9,2V599.4a1.85,1.85,0,0,1-1.9,2h-1.75A1.85,1.85,0,0,1,1087,599.4Z"/><path class="cls-1" d="M1131.72,579.91V599.4c0,1.33-.56,2-1.83,2h-1.4a1.81,1.81,0,0,1-1.89-2v-2.59a15.87,15.87,0,0,1-12.06,5.47c-8.13,0-13.6-4.56-13.6-11.43s6-11.71,14.86-11.71a24.35,24.35,0,0,1,10.59,2.52v-2.8c0-5.12-3.86-8.48-9.61-8.48A17.74,17.74,0,0,0,1106.2,574c-1.13.84-2,.42-2.67-.49l-.42-.56a2.05,2.05,0,0,1,.56-3.09,21.57,21.57,0,0,1,13.4-4.34C1126.32,565.54,1131.72,570.65,1131.72,579.91Zm-5.26,8.76v-2.24A24.29,24.29,0,0,0,1116,583.7c-5.75,0-9.53,2.94-9.53,7.22,0,4,3.5,6.59,8.69,6.59C1120.78,597.51,1126.46,594.15,1126.46,588.67Z"/><path class="cls-1" d="M1159.92,600.38a11,11,0,0,1-6.45,1.9c-6.18,0-10.52-3.79-10.52-11.22V570.65H1139a1.78,1.78,0,0,1-2-1.89v-.84a1.79,1.79,0,0,1,2-1.9H1143v-9.81c0-1.05.63-1.68,1.89-2l1.47-.34c1.55-.42,2.18.42,2.18,1.89V566h8.9a1.82,1.82,0,0,1,2,1.9v.84a1.81,1.81,0,0,1-2,1.89h-8.9v20.2c0,4.56,2.17,6.52,5.54,6.52a6.83,6.83,0,0,0,3.64-1.19,1.76,1.76,0,0,1,2.81.7l.42.77C1161.67,598.91,1160.69,599.9,1159.92,600.38Z"/><path class="cls-1" d="M1181.94,597.44a16.56,16.56,0,0,0,10.8-4c1.26-1.05,2.17-.91,3,0l.7.64a1.81,1.81,0,0,1-.14,2.8c-4.21,4.07-10.17,5.4-14.38,5.4-9.6,0-18.58-6.66-18.58-18.23,0-10.59,7.57-18.51,17.67-18.51a17.08,17.08,0,0,1,12.2,4.7,17.91,17.91,0,0,1,5.26,13,2.21,2.21,0,0,1-2.38,2.24H1169A12.59,12.59,0,0,0,1181.94,597.44Zm-12.83-16.62h23.7a12.27,12.27,0,0,0-3.23-7,11.13,11.13,0,0,0-8.55-3.43C1174.65,570.38,1170,574.44,1169.11,580.82Z"/><path class="cls-1" d="M1224.73,599.33V558a1.92,1.92,0,0,1,2.1-2.1h15.57c14.31,0,23.7,9.11,23.7,22.72s-9.39,22.86-23.7,22.86h-15.57A2,2,0,0,1,1224.73,599.33Zm17.6-2.87c10.94,0,18-7.08,18-17.81s-7.08-17.81-18-17.81h-11.92v35.62Z"/><path class="cls-1" d="M1291,597.44a16.58,16.58,0,0,0,10.8-4c1.26-1.05,2.17-.91,3,0l.7.64a1.81,1.81,0,0,1-.14,2.8c-4.2,4.07-10.16,5.4-14.37,5.4-9.61,0-18.58-6.66-18.58-18.23,0-10.59,7.57-18.51,17.67-18.51a17.1,17.1,0,0,1,12.2,4.7,18,18,0,0,1,5.26,13,2.22,2.22,0,0,1-2.39,2.24H1278.1A12.61,12.61,0,0,0,1291,597.44Zm-12.83-16.62h23.7a12.33,12.33,0,0,0-3.23-7,11.14,11.14,0,0,0-8.55-3.43C1283.72,570.38,1279.09,574.44,1278.18,580.82Z"/><path class="cls-1" d="M1351.53,583.9c0,10.18-7.22,18.38-17.74,18.38a17,17,0,0,1-12.55-5.26v15.71a1.77,1.77,0,0,1-1.89,2h-1.76a1.81,1.81,0,0,1-1.89-2V568.06a1.81,1.81,0,0,1,1.89-2h1.55a1.78,1.78,0,0,1,1.89,2v2.8a17.14,17.14,0,0,1,12.76-5.32C1344.31,565.54,1351.53,573.67,1351.53,583.9Zm-5.68,0c0-7.29-4.84-13.39-12.69-13.39-6.66,0-12.48,4.42-12.48,13.39s5.75,13.4,12.48,13.4C1341,597.3,1345.85,591.2,1345.85,583.9Z"/><path class="cls-1" d="M1376,597.44a16.54,16.54,0,0,0,10.79-4c1.27-1.05,2.18-.91,3,0l.7.64a1.81,1.81,0,0,1-.14,2.8c-4.21,4.07-10.17,5.4-14.37,5.4-9.61,0-18.59-6.66-18.59-18.23,0-10.59,7.58-18.51,17.67-18.51a17.08,17.08,0,0,1,12.2,4.7,17.92,17.92,0,0,1,5.27,13,2.22,2.22,0,0,1-2.39,2.24h-27.07A12.61,12.61,0,0,0,1376,597.44Zm-12.84-16.62h23.7a12.26,12.26,0,0,0-3.22-7,11.15,11.15,0,0,0-8.56-3.43C1368.72,570.38,1364.09,574.44,1363.18,580.82Z"/><path class="cls-1" d="M1431.77,580.12V599.4a1.81,1.81,0,0,1-1.89,2h-1.76a1.85,1.85,0,0,1-1.89-2V580.61c0-6.17-3.78-10.17-9.74-10.17s-10.31,4-10.31,10.17V599.4a1.81,1.81,0,0,1-1.9,2h-1.75a1.85,1.85,0,0,1-1.89-2V568.06a1.81,1.81,0,0,1,1.89-2h1.4a1.82,1.82,0,0,1,1.9,2v2.87c2.45-3.36,6.45-5.39,11.64-5.39C1426.3,565.54,1431.77,571.57,1431.77,580.12Z"/><path class="cls-1" d="M1475.47,553.34V599.4a1.85,1.85,0,0,1-1.9,2H1472a1.85,1.85,0,0,1-1.89-2v-2.66a16.88,16.88,0,0,1-12.69,5.54c-10.52,0-17.74-8.2-17.74-18.38s7.22-18.36,17.74-18.36a17.29,17.29,0,0,1,12.55,5.11V553.83c0-1.06.56-1.69,1.82-2l1.48-.35C1474.84,551,1475.47,551.86,1475.47,553.34Zm-5,30.56c0-9-5.82-13.39-12.55-13.39-7.78,0-12.69,6.1-12.69,13.39s4.91,13.4,12.69,13.4C1464.74,597.3,1470.49,592.81,1470.49,583.9Z"/><path class="cls-1" d="M1503.11,597.44a16.54,16.54,0,0,0,10.79-4c1.27-1.05,2.18-.91,3,0l.7.64a1.81,1.81,0,0,1-.14,2.8c-4.21,4.07-10.17,5.4-14.37,5.4-9.61,0-18.59-6.66-18.59-18.23,0-10.59,7.58-18.51,17.67-18.51a17.08,17.08,0,0,1,12.2,4.7,17.92,17.92,0,0,1,5.27,13,2.22,2.22,0,0,1-2.39,2.24H1490.2A12.59,12.59,0,0,0,1503.11,597.44Zm-12.84-16.62H1514a12.33,12.33,0,0,0-3.22-7,11.15,11.15,0,0,0-8.56-3.43C1495.81,570.38,1491.19,574.44,1490.27,580.82Z"/><path class="cls-1" d="M1558.87,580.12V599.4a1.82,1.82,0,0,1-1.9,2h-1.75a1.86,1.86,0,0,1-1.9-2V580.61c0-6.17-3.78-10.17-9.74-10.17s-10.31,4-10.31,10.17V599.4a1.81,1.81,0,0,1-1.89,2h-1.76a1.85,1.85,0,0,1-1.89-2V568.06a1.81,1.81,0,0,1,1.89-2H1531a1.81,1.81,0,0,1,1.89,2v2.87c2.45-3.36,6.45-5.39,11.64-5.39C1553.39,565.54,1558.87,571.57,1558.87,580.12Z"/><path class="cls-1" d="M1566.8,583.9c0-10.37,7.85-18.36,18.65-18.36a18.53,18.53,0,0,1,13.6,5.25,1.82,1.82,0,0,1,.14,2.81l-.77.77a2,2,0,0,1-3,0,13.31,13.31,0,0,0-9.89-3.86c-7.71,0-13.11,5.69-13.11,13.47,0,7.57,5.12,13.32,13.11,13.32a13.31,13.31,0,0,0,9.89-3.86,1.9,1.9,0,0,1,3,0l.77.78c1.06,1,.56,2-.14,2.8a18.5,18.5,0,0,1-13.6,5.26C1574.65,602.28,1566.8,594.29,1566.8,583.9Z"/><path class="cls-1" d="M1623.33,597.44a16.54,16.54,0,0,0,10.79-4c1.27-1.05,2.18-.91,3,0l.7.64a1.81,1.81,0,0,1-.14,2.8c-4.21,4.07-10.17,5.4-14.37,5.4-9.61,0-18.59-6.66-18.59-18.23,0-10.59,7.58-18.51,17.67-18.51a17.08,17.08,0,0,1,12.2,4.7,17.91,17.91,0,0,1,5.26,13,2.21,2.21,0,0,1-2.38,2.24h-27.07A12.59,12.59,0,0,0,1623.33,597.44Zm-12.84-16.62h23.7a12.33,12.33,0,0,0-3.22-7,11.16,11.16,0,0,0-8.56-3.43C1616,570.38,1611.41,574.44,1610.49,580.82Z"/><path class="cls-1" d="M1711.13,601.44h-1.4c-1.26,0-2-.78-2.1-2.11l-3.72-31.48L1690.73,600c-.56,1.19-1,1.75-2,1.75h-.29c-.91,0-1.4-.56-2-1.75l-13.25-31.91-3.65,31.2c-.14,1.33-.84,2.11-2.1,2.11h-1.47a1.71,1.71,0,0,1-1.83-2.11l5.47-42.42c.14-1,.63-1.4,1.4-1.4h.28c.71,0,1.26.42,1.76,1.4l15.49,36,15.43-36c.49-1,1-1.4,1.75-1.4h.28c.77,0,1.26.42,1.48,1.4l5.32,42.42A1.64,1.64,0,0,1,1711.13,601.44Z"/><path class="cls-1" d="M1719.77,583.9c0-10.37,7.93-18.36,18.65-18.36s18.65,8,18.65,18.36-7.92,18.38-18.65,18.38S1719.77,594.29,1719.77,583.9Zm31.7,0c0-7.7-5.41-13.39-13-13.39s-13,5.69-13,13.39,5.4,13.4,13,13.4S1751.47,591.62,1751.47,583.9Z"/><path class="cls-1" d="M1798.67,553.34V599.4a1.85,1.85,0,0,1-1.9,2h-1.61a1.85,1.85,0,0,1-1.89-2v-2.66a16.88,16.88,0,0,1-12.69,5.54c-10.52,0-17.74-8.2-17.74-18.38s7.22-18.36,17.74-18.36a17.29,17.29,0,0,1,12.55,5.11V553.83c0-1.06.56-1.69,1.82-2l1.48-.35C1798,551,1798.67,551.86,1798.67,553.34Zm-5,30.56c0-9-5.82-13.39-12.55-13.39-7.78,0-12.69,6.1-12.69,13.39s4.91,13.4,12.69,13.4C1787.94,597.3,1793.69,592.81,1793.69,583.9Z"/><path class="cls-1" d="M1826.31,597.44a16.54,16.54,0,0,0,10.79-4c1.27-1.05,2.18-.91,3,0l.7.64a1.81,1.81,0,0,1-.14,2.8c-4.21,4.07-10.17,5.4-14.37,5.4-9.61,0-18.59-6.66-18.59-18.23,0-10.59,7.58-18.51,17.67-18.51a17.08,17.08,0,0,1,12.2,4.7,17.92,17.92,0,0,1,5.27,13,2.22,2.22,0,0,1-2.39,2.24H1813.4A12.6,12.6,0,0,0,1826.31,597.44Zm-12.84-16.62h23.7a12.33,12.33,0,0,0-3.22-7,11.15,11.15,0,0,0-8.56-3.43C1819,570.38,1814.39,574.44,1813.47,580.82Z"/><path class="cls-1" d="M1851.14,599.4V553.83c0-1.06.63-1.69,1.89-2l1.47-.35c1.55-.42,2.18.42,2.18,1.9V599.4a1.85,1.85,0,0,1-1.89,2H1853A1.85,1.85,0,0,1,1851.14,599.4Z"/><path class="cls-1" d="M1867.9,599.4V553.83c0-1.06.63-1.69,1.9-2l1.47-.35c1.54-.42,2.17.42,2.17,1.9V599.4a1.85,1.85,0,0,1-1.89,2h-1.75A1.85,1.85,0,0,1,1867.9,599.4Z"/><path class="cls-1" d="M1883.05,555.23a4.35,4.35,0,1,1,8.7,0,4.35,4.35,0,1,1-8.7,0Zm1.55,44.17V568.06a1.81,1.81,0,0,1,1.89-2h1.75a1.82,1.82,0,0,1,1.9,2V599.4a1.86,1.86,0,0,1-1.9,2h-1.75A1.85,1.85,0,0,1,1884.6,599.4Z"/><path class="cls-1" d="M1932.21,580.12V599.4a1.81,1.81,0,0,1-1.89,2h-1.75a1.86,1.86,0,0,1-1.9-2V580.61c0-6.17-3.78-10.17-9.74-10.17s-10.31,4-10.31,10.17V599.4a1.81,1.81,0,0,1-1.89,2H1903a1.85,1.85,0,0,1-1.89-2V568.06a1.81,1.81,0,0,1,1.89-2h1.4a1.82,1.82,0,0,1,1.9,2v2.87c2.45-3.36,6.45-5.39,11.64-5.39C1926.74,565.54,1932.21,571.57,1932.21,580.12Z"/><path class="cls-1" d="M1975,568.06v30.36c0,11.43-8.28,16.34-17.39,16.34a19.73,19.73,0,0,1-16.13-7.43,1.89,1.89,0,0,1,.35-3.09l.57-.42a1.87,1.87,0,0,1,2.87.28c3,3.79,6.59,5.89,12.41,5.89,6.73,0,11.85-3.58,11.85-11.22v-5a16.44,16.44,0,0,1-12.13,4.91c-10,0-17.18-7.22-17.18-16.54s7.22-16.55,17.25-16.55a16.24,16.24,0,0,1,12.41,5.25v-2.73c0-1.26.63-2,1.82-2h1.41A1.81,1.81,0,0,1,1975,568.06Zm-5.19,14.1c0-6.88-5-11.78-12.06-11.78s-11.92,4.9-11.92,11.71,4.77,11.63,12,11.63S1969.81,588.88,1969.81,582.16Z"/><path class="cls-1" d="M831.59,414.34V181.24c0-7.5,4.34-11.85,11.85-11.85H926c58.86,0,91.65,28.45,91.65,78.62,0,49.39-32.79,77.83-91.65,77.83H863.59v88.5c0,7.11-4,11.85-11.07,11.85h-9.87C835.53,426.19,831.59,421.45,831.59,414.34ZM932.73,299c33.18,0,51.75-18.18,51.75-50.57,0-32.79-18.57-51-51.75-51H863.59V299Z"/><path class="cls-1" d="M1224.66,237.74l-95.61,216.5c-15.41,34.77-28.44,47-55.7,47-10.67,0-20.55-2.76-27.27-6.71-4.34-2.77-9.08-6.32-6.32-13.83l1.58-3.56c2.38-6.71,8.7-9.08,17-5.13a38,38,0,0,0,14.62,3.55c11.85,0,18.57-4.34,27.26-24.49l15.8-35.95-77-177.39c-2.38-5.93,1.18-11.06,7.5-11.06h13.43c7.11,0,10.67,3.95,13.44,11.06L1133,379.57l59.66-141.83c2.76-7.11,6.32-11.06,13.43-11.06h11.46C1223.87,226.68,1227.42,231.81,1224.66,237.74Z"/><path class="cls-1" d="M1250.72,297.79c0-76.25,58.86-133.14,133.53-133.14,40.69,0,76.25,17,100.35,44.25,4.74,5.14,4,10.67-1.58,15l-6.72,5.53c-5.53,4.35-10.66,3.16-15.8-2.37-19.36-20.54-45-33.18-75.46-33.18-57.29,0-101.93,43.45-101.93,103.9S1327.75,401.7,1385,401.7c30.42,0,56.5-12.65,75.46-33.19,5.14-5.53,10.27-6.72,15.8-2.37l6.72,5.53c5.53,4.34,6.32,9.88,1.58,14.62-24.1,27.65-59.66,44.64-100.35,44.64C1309.58,430.93,1250.72,374,1250.72,297.79Z"/><path class="cls-1" d="M1515.39,327.42c0-58.47,44.65-103.51,105.09-103.51s105.09,45,105.09,103.51-44.64,103.51-105.09,103.51S1515.39,385.89,1515.39,327.42Zm178.57,0c0-43.46-30.42-75.46-73.48-75.46-42.67,0-73.49,32-73.49,75.46s30.42,75.46,73.49,75.46S1694,370.88,1694,327.42Z"/><path class="cls-1" d="M1974.44,327.42c0,57.29-40.69,103.51-100,103.51-29.63,0-53.73-11.85-70.72-29.63v88.5c0,7.11-3.55,11.45-10.67,11.45h-9.87c-6.72,0-10.67-4.34-10.67-11.45V238.13c0-7.11,4-11.45,10.67-11.45h8.69c7.11,0,10.66,4.34,10.66,11.45v15.81c17.39-18.57,42.28-30,71.91-30C1933.75,223.91,1974.44,269.74,1974.44,327.42Zm-32,0c0-41.09-27.26-75.46-71.5-75.46-37.54,0-70.33,24.89-70.33,75.46,0,50.17,32.4,75.46,70.33,75.46C1915.18,402.88,1942.44,368.51,1942.44,327.42Z"/><path class="cls-2" d="M727.06,750.84c-7.41,0-17.58-2.53-31.52-9.7L424.88,602c-21-10.8-56.47-10.8-77.48,0L76.74,741.14c-27.66,14.22-40.48,10.2-46.37,4.33s-9.89-18.69,4.33-46.36L173.83,428.45c10.79-21,10.79-56.49,0-77.48L34.7,80.3C20.48,52.63,24.5,39.82,30.37,33.94s18.71-9.89,46.37,4.33L347.4,177.4c21,10.79,56.47,10.8,77.48,0L695.54,38.27C723.2,24.05,736,28.07,741.9,33.94s9.9,18.69-4.32,46.36L598.45,351c-10.8,21-10.8,56.48,0,77.48L737.58,699.11c14.22,27.67,10.2,40.48,4.32,46.36C739,748.38,734.36,750.84,727.06,750.84ZM386.14,585c15.5,0,31,3,42.81,9.1L699.62,733.21c17.35,8.91,30.79,11.15,36,5.95s3-18.64-6-36L590.51,432.52c-12.13-23.61-12.13-62,0-85.63L729.64,76.23c8.92-17.34,11.14-30.79,6-36s-18.62-3-36,6L429,185.33c-23.6,12.14-62,12.14-85.63,0L72.66,46.2c-17.34-8.91-30.79-11.14-36-6s-3,18.64,6,36L181.76,346.89c12.14,23.61,12.14,62,0,85.63L42.63,703.18c-8.91,17.34-11.14,30.79-6,36s18.64,3,36-5.95L343.32,594.08C355.13,588,370.63,585,386.14,585Z"/><path class="cls-2" d="M682.53,703.88c-6.48,0-15.36-2.21-27.5-8.45l-235.31-121c-18.21-9.36-49-9.36-67.16,0l-235.31,121c-24.17,12.43-35.39,8.87-40.55,3.72S68,682.76,80.42,658.59l121-235.3c9.36-18.2,9.36-49,0-67.17L80.42,120.81C68,96.65,71.54,85.42,76.7,80.26S93.08,71.57,117.25,84l235.31,121c18.21,9.36,49,9.36,67.16,0L655,84c24.16-12.42,35.38-8.88,40.55-3.73s8.7,16.39-3.72,40.55l-121,235.31c-9.35,18.21-9.35,49,0,67.17l121,235.3c12.42,24.17,8.88,35.4,3.72,40.56C693,701.71,688.94,703.88,682.53,703.88Zm-23.77-15.73c15,7.7,26.59,9.65,31,5.21s2.49-16-5.22-31L563.63,427c-10.58-20.58-10.58-54.06,0-74.64l121-235.31c7.71-15,9.66-26.59,5.22-31s-16-2.51-31,5.21l-235.3,121c-20.57,10.58-54.06,10.59-74.64,0L113.51,91.26c-15-7.72-26.59-9.65-31-5.21s-2.5,16,5.21,31l121,235.31c10.57,20.58,10.57,54.06,0,74.64l-121,235.3c-7.71,15-9.65,26.59-5.21,31s16,2.49,31-5.21L348.82,567.2c20.57-10.57,54.06-10.58,74.64,0Z"/><path class="cls-2" d="M134.28,656.91c-5.53,0-9-1.87-11.26-4.09-4.44-4.44-7.51-14.07,3.12-34.74l102.78-200c7.92-15.41,7.92-41.44,0-56.85L126.14,161.33c-10.63-20.67-7.56-30.3-3.12-34.74s14.06-7.52,34.74,3.11l200,102.79c15.42,7.92,41.45,7.91,56.85,0l200-102.79c20.66-10.63,30.29-7.56,34.74-3.11s7.5,14.07-3.12,34.74L543.36,361.28c-7.92,15.41-7.92,41.44,0,56.85l102.78,200c10.62,20.67,7.56,30.3,3.12,34.74s-14.08,7.51-34.74-3.11l-200-102.78c-15.41-7.93-41.44-7.93-56.85,0L157.76,649.71C147.41,655,139.83,656.91,134.28,656.91ZM386.14,533.55c11.52,0,23.05,2.25,31.82,6.77l200,102.77c14.88,7.65,23.23,7.34,26.09,4.48s3.18-11.21-4.47-26.09l-102.79-200c-9-17.55-9-46.1,0-63.65L639.53,157.93c7.65-14.88,7.32-23.24,4.47-26.09s-11.2-3.18-26.09,4.47L418,239.1c-17.54,9-46.1,9-63.64,0l-200-102.79c-14.88-7.66-23.24-7.32-26.08-4.47s-3.18,11.21,4.47,26.09l102.78,200c9,17.55,9,46.1,0,63.65l-102.78,200c-7.65,14.88-7.33,23.23-4.47,26.09s11.21,3.18,26.08-4.48l200-102.77C363.09,535.8,374.62,533.55,386.14,533.55Z"/><path class="cls-2" d="M593.48,610c-4.63,0-10.91-1.56-19.47-6l-164.6-84.61c-12.62-6.49-33.93-6.5-46.54,0L198.27,604c-17.17,8.83-25.21,6.24-28.93,2.51s-6.31-11.76,2.51-28.93L256.46,413c6.49-12.61,6.49-33.92,0-46.53l-84.61-164.6c-8.82-17.16-6.23-25.2-2.51-28.93s11.76-6.31,28.93,2.51L362.87,260c12.6,6.48,33.91,6.49,46.54,0L574,175.42c17.16-8.81,25.21-6.23,28.93-2.51s6.31,11.77-2.52,28.93l-84.61,164.6c-6.48,12.61-6.48,33.92,0,46.53l84.61,164.6c8.83,17.17,6.24,25.21,2.52,28.93C601.07,608.37,598.12,610,593.48,610ZM386.14,507.83c9.53,0,19.06,1.87,26.32,5.6L577.07,598c12.12,6.24,18.86,6,21.14,3.73s2.49-9-3.74-21.14L509.86,416c-7.46-14.52-7.46-38.13,0-52.65l84.61-164.6c6.23-12.11,6-18.86,3.74-21.14s-9-2.49-21.14,3.73L412.46,266c-14.52,7.46-38.14,7.46-52.65,0L195.22,181.37c-12.11-6.23-18.88-6-21.15-3.73s-2.5,9,3.73,21.14l84.61,164.6c7.47,14.52,7.47,38.13,0,52.65L177.8,580.63c-6.23,12.11-6,18.86-3.73,21.14s9,2.5,21.15-3.73l164.59-84.61C367.07,509.7,376.61,507.83,386.14,507.83Z"/><path class="cls-2" d="M223.33,563a10.34,10.34,0,0,1-7.67-2.81c-3-3-5.11-9.45,1.91-23.12L284,407.82c5.05-9.82,5.05-26.41,0-36.23L217.57,242.35c-7-13.66-4.91-20.12-1.91-23.12s9.45-5.11,23.12,1.91L368,287.58c9.81,5,26.4,5,36.22,0L533.5,221.14c13.66-7,20.11-4.91,23.11-1.91s5.12,9.46-1.91,23.12L488.27,371.59c-5,9.82-5,26.41,0,36.23L554.7,537.06c7,13.67,4.92,20.12,1.91,23.12s-9.45,5.12-23.11-1.91L404.25,491.83c-9.82-5.05-26.41-5-36.22,0L238.78,558.27C232,561.75,227,563,223.33,563Zm162.81-80.87c7.54,0,15.09,1.47,20.83,4.43L536.21,553c9.36,4.81,14.49,4.7,16.2,3s1.81-6.85-3-16.2L483,410.53c-5.91-11.48-5.91-30.17,0-41.65l66.43-129.25c4.81-9.35,4.7-14.49,3-16.2s-6.84-1.81-16.2,3L407,292.86c-11.48,5.91-30.18,5.91-41.66,0L236.06,226.43c-9.35-4.81-14.48-4.7-16.19-3s-1.81,6.85,3,16.2L289.3,368.88c5.9,11.48,5.9,30.17,0,41.65L222.86,539.78c-4.8,9.35-4.69,14.49-3,16.2s6.83,1.81,16.19-3l129.25-66.43C371.05,483.59,378.59,482.12,386.14,482.12Z"/><path class="cls-2" d="M504.41,516c-2.75,0-6.45-.91-11.43-3.47l-93.89-48.26c-7-3.61-18.89-3.62-25.91,0l-93.89,48.26c-10.16,5.23-15,3.59-17.3,1.31s-3.92-7.15,1.3-17.31l48.27-93.89c3.6-7,3.6-18.89,0-25.91l-48.27-93.89c-5.22-10.17-3.59-15-1.3-17.31s7.13-3.92,17.3,1.31l93.89,48.26c7,3.61,18.9,3.61,25.91,0L493,266.86c10.18-5.22,15-3.59,17.31-1.31s3.92,7.14-1.31,17.31l-48.26,93.89c-3.61,7-3.61,18.89,0,25.91L509,496.55c5.23,10.16,3.6,15,1.31,17.31A8,8,0,0,1,504.41,516Zm-9.05-8.09c6.18,3.16,10.1,3.42,11.25,2.25s.91-5.09-2.25-11.25L456.1,405c-4.35-8.46-4.35-22.21,0-30.67l48.26-93.89c3.16-6.16,3.41-10.09,2.25-11.25s-5.08-.92-11.25,2.25l-93.89,48.27c-8.45,4.35-22.2,4.35-30.66,0l-93.89-48.27c-6.18-3.16-10.09-3.4-11.25-2.25s-.92,5.09,2.25,11.25l48.26,93.89c4.35,8.46,4.35,22.21,0,30.67l-48.26,93.89c-3.17,6.16-3.42,10.09-2.25,11.25s5.07.91,11.25-2.25l93.89-48.26c8.46-4.36,22.22-4.35,30.66,0Z"/><path class="cls-2" d="M312.39,469.06a5.55,5.55,0,0,1-4.08-1.52c-1.57-1.57-2.72-4.84.7-11.5L339.1,397.5c2.17-4.23,2.17-11.36,0-15.59L309,323.37c-3.42-6.66-2.27-9.93-.7-11.5s4.84-2.7,11.5.71l58.53,30.09c4.22,2.16,11.36,2.18,15.6,0l58.53-30.09c6.66-3.42,9.93-2.27,11.5-.71s2.72,4.84-.71,11.5l-30.08,58.54c-2.18,4.23-2.18,11.36,0,15.59L463.26,456c3.43,6.66,2.28,9.93.71,11.5s-4.84,2.72-11.5-.71l-58.53-30.09c-4.22-2.17-11.37-2.17-15.6,0l-58.53,30.09A16.74,16.74,0,0,1,312.39,469.06Zm0-154.25a1.46,1.46,0,0,0-1,.22c-.3.29-.65,2.08,1.52,6.3l30.08,58.54c2.84,5.51,2.84,14.16,0,19.67L313,458.08c-2.17,4.22-1.82,6-1.52,6.3s2.09.64,6.31-1.51l58.53-30.09c5.52-2.84,14.17-2.83,19.67,0l58.54,30.09c4.22,2.16,6,1.82,6.31,1.51s.65-2.08-1.52-6.3l-30.09-58.54c-2.84-5.51-2.84-14.16,0-19.67l30.09-58.54c2.17-4.22,1.81-6,1.52-6.3s-2.1-.66-6.31,1.51L396,346.63c-5.51,2.84-14.15,2.84-19.67,0l-58.53-30.09A12.67,12.67,0,0,0,312.41,314.81Z"/></svg>